# Exported from Wings 3D 1.0.2
mtllib PistolAmmo.mtl
o cylinder6_sep7
#92 vertices, 58 faces
v -0.43919533 0.60009591 1.16589392
v -0.43919533 0.82319991 1.16589392
v 0.49174867 0.82319991 1.16589392
v 0.49174867 0.60009591 1.16589392
v -0.43919533 0.60009591 -0.95246384
v -0.43919533 0.82319991 -0.75148667
v 0.49174867 0.82319991 -0.75148667
v 0.49174867 0.60009591 -0.95246384
v -0.29380638 0.80688930 -5.4112446e-3
v -0.29380638 0.98135662 -5.4112446e-3
v 0.14299254 0.90105266 -5.4112446e-3
v 0.14299254 0.80688930 -5.4112446e-3
v -0.29380638 0.80688930 -0.31021751
v -0.29380638 0.98135662 -0.31021751
v 0.14299254 0.90105266 -0.31021751
v 0.14299254 0.80688930 -0.31021751
v -0.29380638 0.80688930 0.43521762
v -0.29380638 0.98135662 0.43521762
v 0.14299254 0.90105266 0.43521762
v 0.14299254 0.80688930 0.43521762
v -0.29380638 0.80688930 0.13041136
v -0.29380638 0.98135662 0.13041136
v 0.14299254 0.90105266 0.13041136
v 0.14299254 0.80688930 0.13041136
v -0.29380638 0.80688930 0.93313404
v -0.29380638 0.98135662 0.93313404
v 0.14299254 0.90105266 0.93313404
v 0.14299254 0.80688930 0.93313404
v -0.29380638 0.80688930 0.62832778
v -0.29380638 0.98135662 0.62832778
v 0.14299254 0.90105266 0.62832778
v 0.14299254 0.80688930 0.62832778
v 0.35683463 -1.24091838 1.5217628e-3
v 0.35683463 0.18804641 1.5217628e-3
v 0.46245863 0.18804641 1.5217628e-3
v 0.46245863 -1.24091838 1.5217628e-3
v 0.35683463 -1.50314369 -0.32247824
v 0.35683463 0.18804641 -0.32247824
v 0.46245863 0.18804641 -0.32247824
v 0.46245863 -1.50314369 -0.32247824
v -0.17154508 -0.61757514 -0.52061573
v -0.17154508 0.49357807 -0.52061573
v 0.23174930 0.49357807 -0.52061573
v 0.23174930 -0.61757514 -0.52061573
v -0.17154508 -0.61757514 -0.92505875
v -0.17154508 0.49357807 -0.92505875
v 0.23174930 0.49357807 -0.92505875
v 0.23174930 -0.61757514 -0.92505875
v -0.34681984 0.62740903 1.09216976
v 0.40702406 0.62740903 1.09216976
v -0.34681984 -1.38383850 -0.98383024
v -0.34681984 0.62740903 -0.52877664
v 0.40702406 0.62740903 -0.52877664
v 0.40702406 -1.38383850 -0.98383024
v -0.34681984 -2.16418906 0.74817903
v -0.34681984 -1.94188038 1.09216976
v 0.40702406 -2.16418906 0.74817903
v 0.40702406 -1.94188038 1.09216976
v -0.34681984 -0.56520006 -0.98383024
v -0.34681984 -0.31246160 -0.52877664
v 0.40702406 -0.31246160 -0.52877664
v 0.40702406 -0.56520006 -0.98383024
v -0.34681984 0.43502919 -0.52877664
v 0.40702406 0.43502919 -0.52877664
v 0.40702406 0.43502919 -1.13632895
v -0.34681984 0.43502919 -1.13632895
v -0.34681984 0.62740903 -1.13632895
v 0.40702406 0.62740903 -1.13632895
v 0.35683463 -1.24091838 0.51431789
v 0.35683463 0.18804641 0.51431789
v 0.46245863 0.18804641 0.51431789
v 0.46245863 -1.24091838 0.51431789
v 0.35683463 -1.50314369 0.19031789
v 0.35683463 0.18804641 0.19031789
v 0.46245863 0.18804641 0.19031789
v 0.46245863 -1.50314369 0.19031789
v -0.30954128 -1.24091838 1.5217628e-3
v -0.30954128 0.18804641 1.5217628e-3
v -0.41516528 0.18804641 1.5217628e-3
v -0.41516528 -1.24091838 1.5217628e-3
v -0.30954128 -1.50314369 -0.32247824
v -0.30954128 0.18804641 -0.32247824
v -0.41516528 0.18804641 -0.32247824
v -0.41516528 -1.50314369 -0.32247824
v -0.30954128 -1.24091838 0.51431789
v -0.30954128 0.18804641 0.51431789
v -0.41516528 0.18804641 0.51431789
v -0.41516528 -1.24091838 0.51431789
v -0.30954128 -1.50314369 0.19031789
v -0.30954128 0.18804641 0.19031789
v -0.41516528 0.18804641 0.19031789
v -0.41516528 -1.50314369 0.19031789
vt 2.7439878e-2 0.31057439
vt 2.7439878e-2 0.61975218
vt 2.7439878e-2 0.43187112
vt 2.7439878e-2 0.50899732
vt 2.7439878e-2 2.9100219e-2
vt 2.8592570e-2 0.98734100
vt 2.8592570e-2 0.94284906
vt 2.8592570e-2 0.65875296
vt 0.13913607 0.61975218
vt 0.13913607 0.50899732
vt 0.13913607 0.43187112
vt 0.13913607 2.9100219e-2
vt 0.13913607 0.31057439
vt 0.14688561 0.60823082
vt 0.14688561 0.63408145
vt 0.14894916 0.45434434
vt 0.14894916 0.48452579
vt 0.14894916 0.60305083
vt 0.14894916 0.57454613
vt 0.14894916 1.2969551e-2
vt 0.14894916 7.3655650e-2
vt 0.16652949 0.94284906
vt 0.16652949 0.65875296
vt 0.16652949 0.98734100
vt 0.17864796 0.96847289
vt 0.17864796 0.65459822
vt 0.21160561 0.60823082
vt 0.21160561 0.62218290
vt 0.21643250 0.60849216
vt 0.21643250 0.63434278
vt 0.26064536 0.45434434
vt 0.26064536 0.48452579
vt 0.26064536 0.57454613
vt 0.26064536 0.60305083
vt 0.26064536 1.2969551e-2
vt 0.26064536 7.3655650e-2
vt 0.26159530 0.60849216
vt 0.26159530 0.63434278
vt 0.26839490 0.60612265
vt 0.26839490 0.63197327
vt 0.26981468 0.55810174
vt 0.26981468 0.60326454
vt 0.27161114 0.52160866
vt 0.27161114 0.55466573
vt 0.27868561 0.48274313
vt 0.27868561 0.44968606
vt 0.27999371 0.48564736
vt 0.28353652 0.43536055
vt 0.28353652 5.4671850e-2
vt 0.30977227 0.51870443
vt 0.31658487 0.96847289
vt 0.31658487 0.65459822
vt 0.32333159 0.65181792
vt 0.32333159 0.90239963
vt 0.32548710 0.92823338
vt 0.32548710 0.91428130
vt 0.33311490 0.60612265
vt 0.33311490 0.62007473
vt 0.33450524 2.1732627e-2
vt 0.33561934 0.55810174
vt 0.33561934 0.60326454
vt 0.33898177 0.65181792
vt 0.33898177 0.90239963
vt 0.34035672 0.65181792
vt 0.34035672 0.90239963
vt 0.34957142 0.55810174
vt 0.34957142 0.60326454
vt 0.35429958 0.55725340
vt 0.35429958 0.58310403
vt 0.35429958 0.58537514
vt 0.35429958 0.61122576
vt 0.35600691 0.65181792
vt 0.35600691 0.90239963
vt 0.35880321 0.90325301
vt 0.35880321 0.65267129
vt 0.39020711 0.91428130
vt 0.39020711 0.94013193
vt 0.39589309 0.92823338
vt 0.39589309 0.91428130
vt 0.39946238 0.55725340
vt 0.39946238 0.58310403
vt 0.39946238 0.58537514
vt 0.39946238 0.61122576
vt 0.40680992 0.90325301
vt 0.40680992 0.69152492
vt 0.40954805 0.52160866
vt 0.40954805 0.55466573
vt 0.41102756 0.90325301
vt 0.41102756 0.65267129
vt 0.42051384 0.52411092
vt 0.42051384 0.61413126
vt 0.45903427 0.90325301
vt 0.45903427 0.69152492
vt 0.46061309 0.91428130
vt 0.46061309 0.94013193
vt 0.46325191 0.69152492
vt 0.46325191 0.90325301
vt 0.51125862 0.65267129
vt 0.51125862 0.90325301
vt 0.51547626 0.69152492
vt 0.51547626 0.90325301
vt 0.52371031 0.43536055
vt 0.52371031 0.29610098
vt 0.52371031 0.40685584
vt 0.53221003 0.52411092
vt 0.53221003 0.61413126
vt 0.53780405 0.52286950
vt 0.53780405 0.58462910
vt 0.53780405 0.58945087
vt 0.53780405 0.63745758
vt 0.55345424 0.52286950
vt 0.55345424 0.58462910
vt 0.55345424 0.58945087
vt 0.55345424 0.63745758
vt 0.55482919 0.52286950
vt 0.55482919 0.58462910
vt 0.55482919 0.58945087
vt 0.55482919 0.63745758
vt 0.56278171 0.48274313
vt 0.56348297 0.65267129
vt 0.56348297 0.90325301
vt 0.56627927 0.65181792
vt 0.56627927 0.90239963
vt 0.57047938 0.52286950
vt 0.57047938 0.58462910
vt 0.57047938 0.58945087
vt 0.57047938 0.63745758
vt 0.57185433 0.58945087
vt 0.57185433 0.63745758
vt 0.58192945 0.65181792
vt 0.58192945 0.90239963
vt 0.58330440 0.65181792
vt 0.58330440 0.90239963
vt 0.58750451 0.58945087
vt 0.58750451 0.63745758
vt 0.59113508 0.13735628
vt 0.59113508 0.25865301
vt 0.59256027 0.44968606
vt 0.59386837 0.48564736
vt 0.59386837 0.51870443
vt 0.59895459 0.65181792
vt 0.59895459 0.90239963
vt 0.60032954 0.65011117
vt 0.60032954 0.86183926
vt 0.60768956 0.45094689
vt 0.60768956 0.51270650
vt 0.60768956 0.51813240
vt 0.60768956 0.57989200
vt 0.60768956 0.58471377
vt 0.60768956 0.63272049
vt 0.61373065 0.43536055
vt 0.61373065 0.40685584
vt 0.61597973 0.65011117
vt 0.61597973 0.86183926
vt 0.61735468 0.65011117
vt 0.61735468 0.86183926
vt 0.62333975 0.45094689
vt 0.62333975 0.51270650
vt 0.62333975 0.51813240
vt 0.62333975 0.57989200
vt 0.62333975 0.58471377
vt 0.62333975 0.63272049
vt 0.63264501 0.45546611
vt 0.63264501 0.62010442
vt 0.63300487 0.65011117
vt 0.63300487 0.86183926
vt 0.63437982 0.86183926
vt 0.63437982 0.65011117
vt 0.63577994 0.40685584
vt 0.63577994 0.43536055
vt 0.65003001 0.86183926
vt 0.65003001 0.65011117
vt 0.65140496 0.86183926
vt 0.65140496 0.65011117
vt 0.65837550 0.13735628
vt 0.65837550 0.25865301
vt 0.66705515 0.86183926
vt 0.66705515 0.65011117
vt 0.69257087 0.45546611
vt 0.69257087 0.62010442
vt 0.72580027 0.29610098
vt 0.72580027 0.43536055
vt 0.72580027 0.40685584
vt 0.75232655 0.45546611
vt 0.75232655 0.62010442
vt 0.81225241 0.45546611
vt 0.81225241 0.62010442
vt 0.82276705 0.62010442
vt 0.82276705 0.45546611
vt 0.88252272 0.62010442
vt 0.88252272 0.45546611
vt 0.88799064 0.54736933
vt 0.88799064 0.57321995
vt 0.88799064 0.57549107
vt 0.88799064 0.58944315
vt 0.88941042 0.45021784
vt 0.88941042 0.49538063
vt 0.88941042 0.49934842
vt 0.88941042 0.54451122
vt 0.91500535 2.1732627e-2
vt 0.95271064 0.54736933
vt 0.95271064 0.56132141
vt 0.95271064 0.57549107
vt 0.95271064 0.60134169
vt 0.95521509 0.45021784
vt 0.95521509 0.49538063
vt 0.95521509 0.49934842
vt 0.95521509 0.54451122
vt 0.96597406 5.4671850e-2
vt 0.96597406 0.43536055
vt 0.96916717 0.45021784
vt 0.96916717 0.49538063
vt 0.96916717 0.49934842
vt 0.96916717 0.54451122
vn 0.0000000e+0 0.0000000e+0 1.00000000
vn 0.0000000e+0 -1.00000000 0.0000000e+0
vn -1.00000000 0.0000000e+0 0.0000000e+0
vn 0.0000000e+0 0.0000000e+0 1.00000000
vn 0.0000000e+0 1.00000000 0.0000000e+0
vn -1.00000000 0.0000000e+0 0.0000000e+0
vn 0.0000000e+0 0.0000000e+0 1.00000000
vn 1.00000000 0.0000000e+0 0.0000000e+0
vn 0.0000000e+0 1.00000000 0.0000000e+0
vn 0.0000000e+0 0.0000000e+0 1.00000000
vn 1.00000000 0.0000000e+0 0.0000000e+0
vn 0.0000000e+0 -1.00000000 0.0000000e+0
vn 0.0000000e+0 -1.00000000 0.0000000e+0
vn 4.9644638e-17 0.66930242 -0.74299009
vn -1.00000000 0.0000000e+0 0.0000000e+0
vn 0.0000000e+0 1.00000000 0.0000000e+0
vn 4.9644638e-17 0.66930242 -0.74299009
vn -1.00000000 0.0000000e+0 0.0000000e+0
vn 1.00000000 0.0000000e+0 0.0000000e+0
vn 0.0000000e+0 1.00000000 0.0000000e+0
vn 4.9644638e-17 0.66930242 -0.74299009
vn 1.00000000 0.0000000e+0 0.0000000e+0
vn 0.0000000e+0 -1.00000000 0.0000000e+0
vn 4.9644638e-17 0.66930242 -0.74299009
vn 0.0000000e+0 0.0000000e+0 1.00000000
vn -1.00000000 0.0000000e+0 0.0000000e+0
vn 0.0000000e+0 0.0000000e+0 1.00000000
vn 0.18081616 0.98351691 0.0000000e+0
vn -1.00000000 0.0000000e+0 0.0000000e+0
vn 0.0000000e+0 0.0000000e+0 1.00000000
vn 1.00000000 0.0000000e+0 0.0000000e+0
vn 0.18081616 0.98351691 0.0000000e+0
vn 0.0000000e+0 0.0000000e+0 1.00000000
vn 1.00000000 0.0000000e+0 0.0000000e+0
vn 0.0000000e+0 0.0000000e+0 -1.00000000
vn -1.00000000 0.0000000e+0 0.0000000e+0
vn 0.18081616 0.98351691 0.0000000e+0
vn 0.0000000e+0 0.0000000e+0 -1.00000000
vn -1.00000000 0.0000000e+0 0.0000000e+0
vn 1.00000000 0.0000000e+0 0.0000000e+0
vn 0.18081616 0.98351691 0.0000000e+0
vn 0.0000000e+0 0.0000000e+0 -1.00000000
vn 1.00000000 0.0000000e+0 0.0000000e+0
vn 0.0000000e+0 0.0000000e+0 -1.00000000
vn 0.0000000e+0 0.0000000e+0 1.00000000
vn -1.00000000 0.0000000e+0 0.0000000e+0
vn 0.0000000e+0 0.0000000e+0 1.00000000
vn 0.18081616 0.98351691 0.0000000e+0
vn -1.00000000 0.0000000e+0 0.0000000e+0
vn 0.0000000e+0 0.0000000e+0 1.00000000
vn 1.00000000 0.0000000e+0 0.0000000e+0
vn 0.18081616 0.98351691 0.0000000e+0
vn 0.0000000e+0 0.0000000e+0 1.00000000
vn 1.00000000 0.0000000e+0 0.0000000e+0
vn 0.0000000e+0 0.0000000e+0 -1.00000000
vn -1.00000000 0.0000000e+0 0.0000000e+0
vn 0.18081616 0.98351691 0.0000000e+0
vn 0.0000000e+0 0.0000000e+0 -1.00000000
vn -1.00000000 0.0000000e+0 0.0000000e+0
vn 1.00000000 0.0000000e+0 0.0000000e+0
vn 0.18081616 0.98351691 0.0000000e+0
vn 0.0000000e+0 0.0000000e+0 -1.00000000
vn 1.00000000 0.0000000e+0 0.0000000e+0
vn 0.0000000e+0 0.0000000e+0 -1.00000000
vn 0.0000000e+0 0.0000000e+0 1.00000000
vn -1.00000000 0.0000000e+0 0.0000000e+0
vn 0.0000000e+0 0.0000000e+0 1.00000000
vn 0.18081616 0.98351691 0.0000000e+0
vn -1.00000000 0.0000000e+0 0.0000000e+0
vn 0.0000000e+0 0.0000000e+0 1.00000000
vn 1.00000000 0.0000000e+0 0.0000000e+0
vn 0.18081616 0.98351691 0.0000000e+0
vn 0.0000000e+0 0.0000000e+0 1.00000000
vn 1.00000000 0.0000000e+0 0.0000000e+0
vn 0.0000000e+0 0.0000000e+0 -1.00000000
vn -1.00000000 0.0000000e+0 0.0000000e+0
vn 0.18081616 0.98351691 0.0000000e+0
vn 0.0000000e+0 0.0000000e+0 -1.00000000
vn -1.00000000 0.0000000e+0 0.0000000e+0
vn 1.00000000 0.0000000e+0 0.0000000e+0
vn 0.18081616 0.98351691 0.0000000e+0
vn 0.0000000e+0 0.0000000e+0 -1.00000000
vn 1.00000000 0.0000000e+0 0.0000000e+0
vn 0.0000000e+0 0.0000000e+0 -1.00000000
vn 0.0000000e+0 0.0000000e+0 1.00000000
vn 0.0000000e+0 -0.77731574 0.62911068
vn 0.0000000e+0 0.0000000e+0 1.00000000
vn 0.0000000e+0 1.00000000 0.0000000e+0
vn 0.0000000e+0 0.0000000e+0 1.00000000
vn 1.00000000 0.0000000e+0 1.0982193e-16
vn 0.0000000e+0 1.00000000 0.0000000e+0
vn 0.0000000e+0 0.0000000e+0 1.00000000
vn 1.00000000 0.0000000e+0 1.0982193e-16
vn 0.0000000e+0 -0.77731574 0.62911068
vn 0.0000000e+0 -0.77731574 0.62911068
vn 0.0000000e+0 0.0000000e+0 -1.00000000
vn 0.0000000e+0 1.00000000 0.0000000e+0
vn 0.0000000e+0 0.0000000e+0 -1.00000000
vn 1.00000000 0.0000000e+0 1.0982193e-16
vn 0.0000000e+0 1.00000000 0.0000000e+0
vn 0.0000000e+0 0.0000000e+0 -1.00000000
vn 1.00000000 0.0000000e+0 1.0982193e-16
vn 0.0000000e+0 -0.77731574 0.62911068
vn 0.0000000e+0 0.0000000e+0 -1.00000000
vn 0.0000000e+0 0.0000000e+0 1.00000000
vn -1.00000000 0.0000000e+0 0.0000000e+0
vn 0.0000000e+0 0.0000000e+0 1.00000000
vn -1.00000000 0.0000000e+0 0.0000000e+0
vn 0.0000000e+0 0.0000000e+0 1.00000000
vn 1.00000000 0.0000000e+0 0.0000000e+0
vn 0.0000000e+0 0.0000000e+0 1.00000000
vn 1.00000000 0.0000000e+0 0.0000000e+0
vn 0.0000000e+0 0.0000000e+0 -1.00000000
vn -1.00000000 0.0000000e+0 0.0000000e+0
vn 0.0000000e+0 0.0000000e+0 -1.00000000
vn -1.00000000 0.0000000e+0 0.0000000e+0
vn 1.00000000 0.0000000e+0 0.0000000e+0
vn 0.0000000e+0 0.0000000e+0 -1.00000000
vn 1.00000000 0.0000000e+0 0.0000000e+0
vn 0.0000000e+0 0.0000000e+0 -1.00000000
vn 0.0000000e+0 0.0000000e+0 1.00000000
vn -1.00000000 0.0000000e+0 0.0000000e+0
vn 0.0000000e+0 0.0000000e+0 1.00000000
vn 1.00000000 -2.4155563e-17 0.0000000e+0
vn 0.0000000e+0 -0.91173498 -0.41077892
vn 0.0000000e+0 0.0000000e+0 -1.00000000
vn -1.00000000 0.0000000e+0 0.0000000e+0
vn -1.00000000 0.0000000e+0 0.0000000e+0
vn -1.00000000 0.0000000e+0 0.0000000e+0
vn 0.0000000e+0 1.00000000 0.0000000e+0
vn 1.00000000 -2.4155563e-17 0.0000000e+0
vn 0.0000000e+0 1.00000000 0.0000000e+0
vn 1.00000000 0.0000000e+0 0.0000000e+0
vn 1.00000000 -2.4155563e-17 0.0000000e+0
vn 0.0000000e+0 -0.91173498 -0.41077892
vn 0.0000000e+0 0.0000000e+0 -1.00000000
vn 0.0000000e+0 -0.91173498 -0.41077892
vn -1.00000000 0.0000000e+0 0.0000000e+0
vn 0.0000000e+0 -0.83987467 0.54278038
vn 0.0000000e+0 0.0000000e+0 1.00000000
vn -1.00000000 0.0000000e+0 0.0000000e+0
vn 0.0000000e+0 -0.83987467 0.54278038
vn 1.00000000 -2.4155563e-17 0.0000000e+0
vn 0.0000000e+0 -0.91173498 -0.41077892
vn 0.0000000e+0 -0.83987467 0.54278038
vn 0.0000000e+0 0.0000000e+0 1.00000000
vn 1.00000000 -2.4155563e-17 0.0000000e+0
vn 0.0000000e+0 -0.83987467 0.54278038
vn 0.0000000e+0 0.0000000e+0 -1.00000000
vn -1.00000000 0.0000000e+0 0.0000000e+0
vn 0.0000000e+0 0.87421362 -0.48554149
vn -1.00000000 0.0000000e+0 0.0000000e+0
vn 0.0000000e+0 0.87421362 -0.48554149
vn 0.0000000e+0 0.0000000e+0 -1.00000000
vn 1.00000000 -2.4155563e-17 0.0000000e+0
vn 0.0000000e+0 0.87421362 -0.48554149
vn 0.0000000e+0 0.0000000e+0 -1.00000000
vn 1.00000000 -2.4155563e-17 0.0000000e+0
vn 0.0000000e+0 0.0000000e+0 -1.00000000
vn 0.0000000e+0 0.87421362 -0.48554149
vn -1.00000000 0.0000000e+0 0.0000000e+0
vn 0.0000000e+0 0.0000000e+0 -1.00000000
vn 0.0000000e+0 -1.00000000 0.0000000e+0
vn -1.00000000 0.0000000e+0 0.0000000e+0
vn 1.00000000 -2.4155563e-17 0.0000000e+0
vn 0.0000000e+0 0.0000000e+0 -1.00000000
vn 0.0000000e+0 -1.00000000 0.0000000e+0
vn 1.00000000 0.0000000e+0 0.0000000e+0
vn 0.0000000e+0 0.0000000e+0 -1.00000000
vn 0.0000000e+0 -1.00000000 0.0000000e+0
vn 1.00000000 0.0000000e+0 0.0000000e+0
vn 0.0000000e+0 0.0000000e+0 -1.00000000
vn 0.0000000e+0 -1.00000000 0.0000000e+0
vn -1.00000000 0.0000000e+0 0.0000000e+0
vn 0.0000000e+0 0.0000000e+0 -1.00000000
vn -1.00000000 0.0000000e+0 0.0000000e+0
vn 0.0000000e+0 1.00000000 0.0000000e+0
vn 0.0000000e+0 0.0000000e+0 -1.00000000
vn 0.0000000e+0 1.00000000 0.0000000e+0
vn 1.00000000 0.0000000e+0 0.0000000e+0
vn 0.0000000e+0 0.0000000e+0 1.00000000
vn 0.0000000e+0 -0.77731574 0.62911068
vn 0.0000000e+0 0.0000000e+0 1.00000000
vn 0.0000000e+0 1.00000000 0.0000000e+0
vn 0.0000000e+0 0.0000000e+0 1.00000000
vn 1.00000000 0.0000000e+0 1.0982193e-16
vn 0.0000000e+0 1.00000000 0.0000000e+0
vn 0.0000000e+0 0.0000000e+0 1.00000000
vn 1.00000000 0.0000000e+0 1.0982193e-16
vn 0.0000000e+0 -0.77731574 0.62911068
vn 0.0000000e+0 -0.77731574 0.62911068
vn 0.0000000e+0 0.0000000e+0 -1.00000000
vn 0.0000000e+0 1.00000000 0.0000000e+0
vn 0.0000000e+0 0.0000000e+0 -1.00000000
vn 1.00000000 0.0000000e+0 1.0982193e-16
vn 0.0000000e+0 1.00000000 0.0000000e+0
vn 0.0000000e+0 0.0000000e+0 -1.00000000
vn 1.00000000 0.0000000e+0 1.0982193e-16
vn 0.0000000e+0 -0.77731574 0.62911068
vn 0.0000000e+0 0.0000000e+0 -1.00000000
vn 0.0000000e+0 0.0000000e+0 1.00000000
vn 0.0000000e+0 -0.77731574 0.62911068
vn 0.0000000e+0 0.0000000e+0 1.00000000
vn 0.0000000e+0 1.00000000 0.0000000e+0
vn 0.0000000e+0 0.0000000e+0 1.00000000
vn -1.00000000 0.0000000e+0 0.0000000e+0
vn 0.0000000e+0 1.00000000 0.0000000e+0
vn 0.0000000e+0 0.0000000e+0 1.00000000
vn -1.00000000 0.0000000e+0 0.0000000e+0
vn 0.0000000e+0 -0.77731574 0.62911068
vn 0.0000000e+0 -0.77731574 0.62911068
vn 0.0000000e+0 0.0000000e+0 -1.00000000
vn 0.0000000e+0 1.00000000 0.0000000e+0
vn 0.0000000e+0 0.0000000e+0 -1.00000000
vn -1.00000000 0.0000000e+0 0.0000000e+0
vn 0.0000000e+0 1.00000000 0.0000000e+0
vn 0.0000000e+0 0.0000000e+0 -1.00000000
vn -1.00000000 0.0000000e+0 0.0000000e+0
vn 0.0000000e+0 -0.77731574 0.62911068
vn 0.0000000e+0 0.0000000e+0 -1.00000000
vn 0.0000000e+0 0.0000000e+0 1.00000000
vn 0.0000000e+0 -0.77731574 0.62911068
vn 0.0000000e+0 0.0000000e+0 1.00000000
vn 0.0000000e+0 1.00000000 0.0000000e+0
vn 0.0000000e+0 0.0000000e+0 1.00000000
vn -1.00000000 0.0000000e+0 0.0000000e+0
vn 0.0000000e+0 1.00000000 0.0000000e+0
vn 0.0000000e+0 0.0000000e+0 1.00000000
vn -1.00000000 0.0000000e+0 0.0000000e+0
vn 0.0000000e+0 -0.77731574 0.62911068
vn 0.0000000e+0 -0.77731574 0.62911068
vn 0.0000000e+0 0.0000000e+0 -1.00000000
vn 0.0000000e+0 1.00000000 0.0000000e+0
vn 0.0000000e+0 0.0000000e+0 -1.00000000
vn -1.00000000 0.0000000e+0 0.0000000e+0
vn 0.0000000e+0 1.00000000 0.0000000e+0
vn 0.0000000e+0 0.0000000e+0 -1.00000000
vn -1.00000000 0.0000000e+0 0.0000000e+0
vn 0.0000000e+0 -0.77731574 0.62911068
vn 0.0000000e+0 0.0000000e+0 -1.00000000
g cylinder6_sep7_default
usemtl default
f 1/43/1 4/86/10 3/87/7 2/44/4
f 1/52/2 5/51/13 8/25/23 4/26/12
f 2/140/6 6/50/18 5/47/15 1/139/3
f 3/23/9 7/22/20 6/7/16 2/8/5
f 4/46/11 8/138/22 7/119/19 3/45/8
f 6/7/17 7/22/21 8/24/24 5/6/14
f 9/14/25 12/27/33 11/28/30 10/15/27
f 10/81/29 14/69/39 13/68/36 9/80/26
f 11/205/32 15/206/41 14/197/37 10/196/28
f 12/211/34 16/212/43 15/206/40 11/205/31
f 14/204/38 15/195/42 16/194/44 13/203/35
f 17/39/45 20/57/53 19/58/50 18/40/47
f 18/83/49 22/71/59 21/70/56 17/82/46
f 19/207/52 23/208/61 22/199/57 18/198/48
f 20/213/54 24/214/63 23/208/60 19/207/51
f 22/77/58 23/55/62 24/56/64 21/76/55
f 25/192/65 28/201/73 27/202/70 26/193/67
f 26/38/69 30/30/79 29/29/76 25/37/66
f 27/60/72 31/61/81 30/42/77 26/41/68
f 28/66/74 32/67/83 31/61/80 27/60/71
f 30/95/78 31/78/82 32/79/84 29/94/75
f 33/143/85 36/153/92 35/154/89 34/144/87
f 33/111/86 37/112/95 40/108/103 36/107/94
f 35/126/91 39/127/100 38/118/97 34/117/88
f 36/96/93 40/98/102 39/99/99 35/97/90
f 38/131/98 39/123/101 40/122/104 37/130/96
f 41/189/105 44/191/111 43/190/109 42/188/107
f 42/187/108 46/185/116 45/184/114 41/186/106
f 44/163/112 48/179/119 47/180/117 43/164/110
f 46/185/115 47/180/118 48/179/120 45/184/113
f 49/16/121 56/21/140 58/36/146 50/31/123
f 52/182/128 63/183/161 60/181/152 59/176/150 51/175/127 55/200/138 56/209/141 49/210/122
f 52/182/129 67/170/176 66/169/174 63/183/164
f 53/32/132 68/33/179 67/19/177 52/17/130
f 54/1/135 57/5/144 55/12/137 51/13/125
f 55/20/139 57/35/145 58/36/148 56/21/142
f 58/49/147 57/59/143 54/136/134 62/137/158 61/103/155 64/104/165 53/102/131 50/48/124
f 59/11/149 62/3/159 54/1/136 51/13/126
f 60/10/153 61/4/156 62/3/160 59/11/151
f 63/9/162 64/2/166 61/4/157 60/10/154
f 63/105/163 66/106/173 65/91/170 64/90/167
f 64/104/168 65/152/171 68/151/180 53/102/133
f 66/18/172 67/19/175 68/33/178 65/34/169
f 69/155/181 72/165/188 71/166/185 70/156/183
f 69/124/182 73/125/191 76/116/199 72/115/190
f 71/134/187 75/135/196 74/129/193 70/128/184
f 72/100/189 76/120/198 75/121/195 71/101/186
f 74/142/194 75/133/197 76/132/200 73/141/192
f 78/171/203 79/167/205 80/168/208 77/172/201
f 78/161/204 82/162/213 83/150/216 79/149/207
f 79/84/206 83/74/215 84/75/218 80/85/209
f 80/157/210 84/158/219 81/146/211 77/145/202
f 81/53/212 84/62/220 83/63/217 82/54/214
f 86/177/223 87/173/225 88/174/228 85/178/221
f 86/113/224 90/114/233 91/110/236 87/109/227
f 87/92/226 91/88/235 92/89/238 88/93/229
f 88/159/230 92/160/239 89/148/231 85/147/222
f 89/64/232 92/72/240 91/73/237 90/65/234
