<?xml version="1.0" encoding="UTF-8" standalone="no" ?>
<!DOCTYPE sesx>
<sesx version="1.4">

  <session appBuild="10.1.1.11" appVersion="10.1" audioChannelType="mono" bitDepth="16" duration="4006289" sampleRate="44100">
    <name>Untitled Session 2.sesx</name>
    <tracks>
      <audioTrack automationLaneOpenState="false" id="10001" index="1" select="false" visible="true">
        <trackParameters trackHeight="52" trackHue="-1" trackMinimized="false">
          <name>Track 1</name>
        </trackParameters>
        <trackAudioParameters audioChannelType="mono" automationMode="1" monitoring="false" recordArmed="true" solo="false" soloSafe="false">
          <trackOutput outputID="10000" type="trackID"/>
          <trackInput inputID="1"/>
          <component componentGuid="2f327840-afd7-4ee8-8b83-cd8c0ba4c27a" componentID="Audition.Fader" id="trackFader" name="volume" powered="true">
            <parameter index="0" name="volume" parameterValue="1"/>
            <parameter index="1" name="static gain" parameterValue="1"/>
          </component>
          <component componentGuid="b99ad70b-ab06-4365-812b-533b7489fbc9" componentID="Audition.Mute" id="trackMute" name="Mute" powered="true">
            <parameter index="0" parameterValue="0"/>
            <parameter index="1" name="mute" parameterValue="0"/>
          </component>
          <component componentGuid="8b8889ef-f117-48f0-bfd0-7b81c9df7e66" componentID="Audition.StereoPanner" id="trackPan" name="StereoPanner" powered="true">
            <parameter index="0" name="Pan" parameterValue="0"/>
          </component>
          <component componentGuid="027b5c30-354d-4d19-a7e0-95e2e3506ddd" componentID="Audition.EQ" id="trackEQ" name="EQ" powered="false">
            <parameter index="0" name="Low Shelf Frequency" parameterValue="0.0009079"/>
            <parameter index="1" name="Low Shelf Gain" parameterValue="0.5"/>
            <parameter index="2" name="High Shelf Frequency" parameterValue="0.8161598"/>
            <parameter index="3" name="High Shelf Gain" parameterValue="0.5"/>
            <parameter index="4" name="EQ Band 1 Center Frequency" parameterValue="0.0013618"/>
            <parameter index="5" name="EQ Band 1 Q" parameterValue="0.0002"/>
            <parameter index="6" name="EQ Band 1 Gain" parameterValue="0.5"/>
            <parameter index="7" name="EQ Band 1 Enable" parameterValue="1"/>
            <parameter index="8" name="EQ Band 2 Center Frequency" parameterValue="0.0081707"/>
            <parameter index="9" name="EQ Band 2 Q" parameterValue="0.0002"/>
            <parameter index="10" name="EQ Band 2 Gain" parameterValue="0.5"/>
            <parameter index="11" name="EQ Band 2 Enable" parameterValue="1"/>
            <parameter index="12" name="EQ Band 3 Center Frequency" parameterValue="0.0354063"/>
            <parameter index="13" name="EQ Band 3 Q" parameterValue="0.0002"/>
            <parameter index="14" name="EQ Band 3 Gain" parameterValue="0.5"/>
            <parameter index="15" name="EQ Band 3 Enable" parameterValue="1"/>
            <parameter index="16" name="EQ Band 4 Center Frequency" parameterValue="0.1443486"/>
            <parameter index="17" name="EQ Band 4 Q" parameterValue="0.0002"/>
            <parameter index="18" name="EQ Band 4 Gain" parameterValue="0.5"/>
            <parameter index="19" name="EQ Band 4 Enable" parameterValue="1"/>
            <parameter index="20" name="EQ Band 5 Center Frequency" parameterValue="0.580118"/>
            <parameter index="21" name="EQ Band 5 Q" parameterValue="0.0002"/>
            <parameter index="22" name="EQ Band 5 Gain" parameterValue="0.5"/>
            <parameter index="23" name="EQ Band 5 Enable" parameterValue="1"/>
            <parameter index="24" name="Master Gain" parameterValue="0.6666667"/>
            <parameter index="25" name="ConstantQ" parameterValue="1"/>
            <parameter index="26" name="Low Shelf Filter Order" parameterValue="0"/>
            <parameter index="27" name="High Shelf Filter Order" parameterValue="0"/>
            <parameter index="28" name="Ultra-Quiet Mode" parameterValue="0"/>
            <parameter index="29" name="Low Shelf Enable" parameterValue="1"/>
            <parameter index="30" name="High Shelf Enable" parameterValue="1"/>
            <parameter index="31" name="Original Sample Rate" parameterValue="0.2296875"/>
            <parameter index="32" name="EQ Band 1 Bandwidth" parameterValue="0.0025"/>
            <parameter index="33" name="EQ Band 2 Bandwidth" parameterValue="0.01"/>
            <parameter index="34" name="EQ Band 3 Bandwidth" parameterValue="0.04"/>
            <parameter index="35" name="EQ Band 4 Bandwidth" parameterValue="0.16"/>
            <parameter index="36" name="EQ Band 5 Bandwidth" parameterValue="0.64"/>
            <parameter index="37" name="High-Pass Filter Enable" parameterValue="0"/>
            <parameter index="38" name="High-Pass Cutoff Frequency" parameterValue="0"/>
            <parameter index="39" name="High-Pass Slope" parameterValue="0.4"/>
            <parameter index="40" name="Low-Pass Filter Enable" parameterValue="0"/>
            <parameter index="41" name="Low-Pass Cutoff Frequency" parameterValue="0.906945"/>
            <parameter index="42" name="Low-Pass Slope" parameterValue="0.4"/>
            <parameter index="43" name="Bypass" parameterValue="0"/>
            <parameter index="44" name="LowGraphRange" parameterValue="1"/>
          </component>
        </trackAudioParameters>
        <effectsRack preFader="true">
          <component componentGuid="01376efa-eda9-462e-ab85-c545b8d6d27b" id="rackMix" powered="true">
            <parameter index="0" parameterValue="0"/>
            <parameter index="1" parameterValue="0"/>
          </component>
          <component componentGuid="5dcaad6d-b7d5-4978-a8b5-9b31109eb60c" id="rackInput" powered="true">
            <parameter index="0" parameterValue="1"/>
            <parameter index="1" parameterValue="0"/>
          </component>
          <component componentGuid="274f2a81-847b-49dc-b389-3b96620cf8ff" id="rackOutput" powered="true">
            <parameter index="0" parameterValue="1"/>
            <parameter index="1" parameterValue="0"/>
          </component>
          <slot powered="false" slotIndex="0">
            <component componentGuid="3abcc42a-1fac-4feb-a963-3ce2bced9daa" componentID="f14fee7d-fe5f-4202-b790-f53209e56411" editorHeight="316" editorLeft="672" editorTop="357" editorWidth="576" name="Amplify">
              <channelMap direction="input">
                <channel index="0" sourceIndex="0"/>
              </channelMap>
              <channelMap direction="output">
                <channel index="0" sourceIndex="0"/>
              </channelMap>
              <parameter index="0" name="Channel Count" parameterValue="0.03125"/>
              <parameter index="1" name="Link Sliders" parameterValue="1"/>
              <parameter index="2" name="Gain" parameterValue="0.6666667"/>
              <parameter index="3" name="" parameterValue="0.6666667"/>
              <parameter index="4" name="" parameterValue="0.6666667"/>
              <parameter index="5" name="" parameterValue="0.6666667"/>
              <parameter index="6" name="" parameterValue="0.6666667"/>
              <parameter index="7" name="" parameterValue="0.6666667"/>
              <parameter index="8" name="" parameterValue="0.6666667"/>
              <parameter index="9" name="" parameterValue="0.6666667"/>
              <parameter index="10" name="" parameterValue="0.6666667"/>
              <parameter index="11" name="" parameterValue="0.6666667"/>
              <parameter index="12" name="" parameterValue="0.6666667"/>
              <parameter index="13" name="" parameterValue="0.6666667"/>
              <parameter index="14" name="" parameterValue="0.6666667"/>
              <parameter index="15" name="" parameterValue="0.6666667"/>
              <parameter index="16" name="" parameterValue="0.6666667"/>
              <parameter index="17" name="" parameterValue="0.6666667"/>
              <parameter index="18" name="" parameterValue="0.6666667"/>
              <parameter index="19" name="" parameterValue="0.6666667"/>
              <parameter index="20" name="" parameterValue="0.6666667"/>
              <parameter index="21" name="" parameterValue="0.6666667"/>
              <parameter index="22" name="" parameterValue="0.6666667"/>
              <parameter index="23" name="" parameterValue="0.6666667"/>
              <parameter index="24" name="" parameterValue="0.6666667"/>
              <parameter index="25" name="" parameterValue="0.6666667"/>
              <parameter index="26" name="" parameterValue="0.6666667"/>
              <parameter index="27" name="" parameterValue="0.6666667"/>
              <parameter index="28" name="" parameterValue="0.6666667"/>
              <parameter index="29" name="" parameterValue="0.6666667"/>
              <parameter index="30" name="" parameterValue="0.6666667"/>
              <parameter index="31" name="" parameterValue="0.6666667"/>
              <parameter index="32" name="" parameterValue="0.6666667"/>
              <parameter index="33" name="" parameterValue="0.6666667"/>
            </component>
          </slot>
        </effectsRack>
        <editParameter parameterIndex="0" slotIndex="4294967280"/>
        <sendList>
          <sendSlot preFader="false" sendOutputID="0" slotIndex="0">
            <component componentGuid="99698d86-c8e1-47fe-bb01-ba1e3f8ab718" id="sendComponent" powered="false">
              <parameter index="0" name="Power On/Off" parameterValue="0"/>
              <parameter index="1" name="Level" parameterValue="0"/>
            </component>
            <component id="sendPan" powered="true"/>
          </sendSlot>
          <sendSlot preFader="false" sendOutputID="0" slotIndex="1">
            <component componentGuid="6253d457-807a-43a4-b8e0-beef7a13bf31" id="sendComponent" powered="false">
              <parameter index="0" name="Power On/Off" parameterValue="0"/>
              <parameter index="1" name="Level" parameterValue="0"/>
            </component>
            <component id="sendPan" powered="true"/>
          </sendSlot>
          <sendSlot preFader="false" sendOutputID="0" slotIndex="2">
            <component componentGuid="e14bb0fc-57c0-4e6b-a617-59db57b50e3b" id="sendComponent" powered="false">
              <parameter index="0" name="Power On/Off" parameterValue="0"/>
              <parameter index="1" name="Level" parameterValue="0"/>
            </component>
            <component id="sendPan" powered="true"/>
          </sendSlot>
          <sendSlot preFader="false" sendOutputID="0" slotIndex="3">
            <component componentGuid="0412d86a-2dd0-4cf7-9f96-2751f51f2cda" id="sendComponent" powered="false">
              <parameter index="0" name="Power On/Off" parameterValue="0"/>
              <parameter index="1" name="Level" parameterValue="0"/>
            </component>
            <component id="sendPan" powered="true"/>
          </sendSlot>
          <sendSlot preFader="false" sendOutputID="0" slotIndex="4">
            <component componentGuid="f15eb05f-0f2b-47fb-b9ed-c8383f0577f2" id="sendComponent" powered="false">
              <parameter index="0" name="Power On/Off" parameterValue="0"/>
              <parameter index="1" name="Level" parameterValue="0"/>
            </component>
            <component id="sendPan" powered="true"/>
          </sendSlot>
          <sendSlot preFader="false" sendOutputID="0" slotIndex="5">
            <component componentGuid="4092e32f-92c9-45d0-b5ec-eb408f0f42f0" id="sendComponent" powered="false">
              <parameter index="0" name="Power On/Off" parameterValue="0"/>
              <parameter index="1" name="Level" parameterValue="0"/>
            </component>
            <component id="sendPan" powered="true"/>
          </sendSlot>
          <sendSlot preFader="false" sendOutputID="0" slotIndex="6">
            <component componentGuid="8c7f6c60-77d3-4f1a-b9c1-671e5e5c3c4f" id="sendComponent" powered="false">
              <parameter index="0" name="Power On/Off" parameterValue="0"/>
              <parameter index="1" name="Level" parameterValue="0"/>
            </component>
            <component id="sendPan" powered="true"/>
          </sendSlot>
          <sendSlot preFader="false" sendOutputID="0" slotIndex="7">
            <component componentGuid="03b9a60a-a5af-4a4c-9760-520a4b8fa216" id="sendComponent" powered="false">
              <parameter index="0" name="Power On/Off" parameterValue="0"/>
              <parameter index="1" name="Level" parameterValue="0"/>
            </component>
            <component id="sendPan" powered="true"/>
          </sendSlot>
          <sendSlot preFader="false" sendOutputID="0" slotIndex="8">
            <component componentGuid="3e3f8c65-97b7-4e0c-8739-5ed7ab5e37c8" id="sendComponent" powered="false">
              <parameter index="0" name="Power On/Off" parameterValue="0"/>
              <parameter index="1" name="Level" parameterValue="0"/>
            </component>
            <component id="sendPan" powered="true"/>
          </sendSlot>
          <sendSlot preFader="false" sendOutputID="0" slotIndex="9">
            <component componentGuid="1dd9eb90-2452-46bf-9c76-1269cc4b3429" id="sendComponent" powered="false">
              <parameter index="0" name="Power On/Off" parameterValue="0"/>
              <parameter index="1" name="Level" parameterValue="0"/>
            </component>
            <component id="sendPan" powered="true"/>
          </sendSlot>
          <sendSlot preFader="false" sendOutputID="0" slotIndex="10">
            <component componentGuid="50a308c3-1844-408a-b087-500e1924cede" id="sendComponent" powered="false">
              <parameter index="0" name="Power On/Off" parameterValue="0"/>
              <parameter index="1" name="Level" parameterValue="0"/>
            </component>
            <component id="sendPan" powered="true"/>
          </sendSlot>
          <sendSlot preFader="false" sendOutputID="0" slotIndex="11">
            <component componentGuid="b104a23a-e5db-4afd-88d7-5e1d4f524d83" id="sendComponent" powered="false">
              <parameter index="0" name="Power On/Off" parameterValue="0"/>
              <parameter index="1" name="Level" parameterValue="0"/>
            </component>
            <component id="sendPan" powered="true"/>
          </sendSlot>
          <sendSlot preFader="false" sendOutputID="0" slotIndex="12">
            <component componentGuid="1365891a-4b2a-48fd-b952-0b7debd56d35" id="sendComponent" powered="false">
              <parameter index="0" name="Power On/Off" parameterValue="0"/>
              <parameter index="1" name="Level" parameterValue="0"/>
            </component>
            <component id="sendPan" powered="true"/>
          </sendSlot>
          <sendSlot preFader="false" sendOutputID="0" slotIndex="13">
            <component componentGuid="b3b11397-2298-4f60-9a5e-6228eeb35ea4" id="sendComponent" powered="false">
              <parameter index="0" name="Power On/Off" parameterValue="0"/>
              <parameter index="1" name="Level" parameterValue="0"/>
            </component>
            <component id="sendPan" powered="true"/>
          </sendSlot>
          <sendSlot preFader="false" sendOutputID="0" slotIndex="14">
            <component componentGuid="b5e2e7d1-b011-482a-b010-a316478c367a" id="sendComponent" powered="false">
              <parameter index="0" name="Power On/Off" parameterValue="0"/>
              <parameter index="1" name="Level" parameterValue="0"/>
            </component>
            <component id="sendPan" powered="true"/>
          </sendSlot>
          <sendSlot preFader="false" sendOutputID="0" slotIndex="15">
            <component componentGuid="7a17ceba-10dc-4b1f-ae8c-3a01534b2b9c" id="sendComponent" powered="false">
              <parameter index="0" name="Power On/Off" parameterValue="0"/>
              <parameter index="1" name="Level" parameterValue="0"/>
            </component>
            <component id="sendPan" powered="true"/>
          </sendSlot>
        </sendList>
        <audioClip clipAutoCrossfade="true" crossFadeHeadClipID="-1" crossFadeTailClipID="1" endPoint="754268" fileID="25" hue="-1" id="0" lockedInTime="false" looped="false" name="Track 1_046" offline="false" select="false" sourceInPoint="12915" sourceOutPoint="754268" startPoint="12915" zOrder="182">
          <component componentGuid="7e6028db-de1e-45c5-8552-bd2602e7b748" componentID="Audition.Fader" id="clipGain" name="volume" powered="true">
            <parameter index="0" name="volume" parameterValue="1"/>
            <parameter index="1" name="static gain" parameterValue="1"/>
          </component>
          <component componentGuid="ab6b42c9-cdbd-4c80-8763-2fb903a1fcf5" componentID="Audition.Mute" id="clipMute" name="Mute" powered="true">
            <parameter index="0" parameterValue="0"/>
            <parameter index="1" name="mute" parameterValue="0"/>
          </component>
          <component id="clipPan" powered="true"/>
          <fadeIn crossFadeLinkType="linkedAsymmetric" endPoint="0" shape="0" startPoint="0" type="cosine"/>
          <fadeOut crossFadeLinkType="linkedAsymmetric" endPoint="741353" shape="18" startPoint="729117" type="log"/>
          <take sourceInPoint="0"/>
          <editParameter parameterIndex="0" slotIndex="4294967280"/>
          <channelMap>
            <channel index="0" sourceIndex="0"/>
          </channelMap>
        </audioClip>
        <audioClip clipAutoCrossfade="true" crossFadeHeadClipID="0" crossFadeTailClipID="-1" endPoint="1032227" fileID="26" hue="-1" id="1" lockedInTime="false" looped="false" name="Track 1_047" offline="false" select="false" sourceInPoint="80075" sourceOutPoint="370270" startPoint="742032" zOrder="181">
          <component componentGuid="91bab1a8-6e23-4a01-9a70-78619532ffd5" componentID="Audition.Fader" id="clipGain" name="volume" powered="true">
            <parameter index="0" name="volume" parameterValue="1"/>
            <parameter index="1" name="static gain" parameterValue="1"/>
          </component>
          <component componentGuid="db588b60-0f3d-4310-9025-7f7047532a6e" componentID="Audition.Mute" id="clipMute" name="Mute" powered="true">
            <parameter index="0" parameterValue="0"/>
            <parameter index="1" name="mute" parameterValue="0"/>
          </component>
          <component id="clipPan" powered="true"/>
          <fadeIn crossFadeLinkType="linkedAsymmetric" endPoint="12236" shape="19" startPoint="0" type="log"/>
          <fadeOut crossFadeLinkType="linkedAsymmetric" endPoint="290195" shape="0" startPoint="290195" type="cosine"/>
          <take sourceInPoint="0"/>
          <editParameter parameterIndex="0" slotIndex="4294967280"/>
          <channelMap>
            <channel index="0" sourceIndex="0"/>
          </channelMap>
        </audioClip>
      </audioTrack>
      <audioTrack automationLaneOpenState="false" id="10002" index="2" select="false" visible="true">
        <trackParameters trackHeight="52" trackHue="260.4538679122924805" trackMinimized="false">
          <name>Track 2</name>
        </trackParameters>
        <trackAudioParameters audioChannelType="mono" automationMode="1" monitoring="false" recordArmed="false" solo="false" soloSafe="false">
          <trackOutput outputID="10000" type="trackID"/>
          <trackInput inputID="1"/>
          <component componentGuid="461c80b7-05e3-4713-bf94-10fdddee2ba7" componentID="Audition.Fader" id="trackFader" name="volume" powered="true">
            <parameter index="0" name="volume" parameterValue="1"/>
            <parameter index="1" name="static gain" parameterValue="1"/>
          </component>
          <component componentGuid="e796f0ba-30dc-484f-89c3-7d91c0229c72" componentID="Audition.Mute" id="trackMute" name="Mute" powered="true">
            <parameter index="0" parameterValue="0"/>
            <parameter index="1" name="mute" parameterValue="1"/>
          </component>
          <component componentGuid="e26c8f72-871d-48a7-b43b-386400d8ff36" componentID="Audition.StereoPanner" id="trackPan" name="StereoPanner" powered="true">
            <parameter index="0" name="Pan" parameterValue="0"/>
          </component>
          <component componentGuid="4ce6fdff-b274-426f-a487-a3780c73293d" componentID="Audition.EQ" id="trackEQ" name="EQ" powered="false">
            <parameter index="0" name="Low Shelf Frequency" parameterValue="0.0009079"/>
            <parameter index="1" name="Low Shelf Gain" parameterValue="0.5"/>
            <parameter index="2" name="High Shelf Frequency" parameterValue="0.8161598"/>
            <parameter index="3" name="High Shelf Gain" parameterValue="0.5"/>
            <parameter index="4" name="EQ Band 1 Center Frequency" parameterValue="0.0013618"/>
            <parameter index="5" name="EQ Band 1 Q" parameterValue="0.0002"/>
            <parameter index="6" name="EQ Band 1 Gain" parameterValue="0.5"/>
            <parameter index="7" name="EQ Band 1 Enable" parameterValue="1"/>
            <parameter index="8" name="EQ Band 2 Center Frequency" parameterValue="0.0081707"/>
            <parameter index="9" name="EQ Band 2 Q" parameterValue="0.0002"/>
            <parameter index="10" name="EQ Band 2 Gain" parameterValue="0.5"/>
            <parameter index="11" name="EQ Band 2 Enable" parameterValue="1"/>
            <parameter index="12" name="EQ Band 3 Center Frequency" parameterValue="0.0354063"/>
            <parameter index="13" name="EQ Band 3 Q" parameterValue="0.0002"/>
            <parameter index="14" name="EQ Band 3 Gain" parameterValue="0.5"/>
            <parameter index="15" name="EQ Band 3 Enable" parameterValue="1"/>
            <parameter index="16" name="EQ Band 4 Center Frequency" parameterValue="0.1443486"/>
            <parameter index="17" name="EQ Band 4 Q" parameterValue="0.0002"/>
            <parameter index="18" name="EQ Band 4 Gain" parameterValue="0.5"/>
            <parameter index="19" name="EQ Band 4 Enable" parameterValue="1"/>
            <parameter index="20" name="EQ Band 5 Center Frequency" parameterValue="0.580118"/>
            <parameter index="21" name="EQ Band 5 Q" parameterValue="0.0002"/>
            <parameter index="22" name="EQ Band 5 Gain" parameterValue="0.5"/>
            <parameter index="23" name="EQ Band 5 Enable" parameterValue="1"/>
            <parameter index="24" name="Master Gain" parameterValue="0.6666667"/>
            <parameter index="25" name="ConstantQ" parameterValue="1"/>
            <parameter index="26" name="Low Shelf Filter Order" parameterValue="0"/>
            <parameter index="27" name="High Shelf Filter Order" parameterValue="0"/>
            <parameter index="28" name="Ultra-Quiet Mode" parameterValue="0"/>
            <parameter index="29" name="Low Shelf Enable" parameterValue="1"/>
            <parameter index="30" name="High Shelf Enable" parameterValue="1"/>
            <parameter index="31" name="Original Sample Rate" parameterValue="0.2296875"/>
            <parameter index="32" name="EQ Band 1 Bandwidth" parameterValue="0.0025"/>
            <parameter index="33" name="EQ Band 2 Bandwidth" parameterValue="0.01"/>
            <parameter index="34" name="EQ Band 3 Bandwidth" parameterValue="0.04"/>
            <parameter index="35" name="EQ Band 4 Bandwidth" parameterValue="0.16"/>
            <parameter index="36" name="EQ Band 5 Bandwidth" parameterValue="0.64"/>
            <parameter index="37" name="High-Pass Filter Enable" parameterValue="0"/>
            <parameter index="38" name="High-Pass Cutoff Frequency" parameterValue="0"/>
            <parameter index="39" name="High-Pass Slope" parameterValue="0.4"/>
            <parameter index="40" name="Low-Pass Filter Enable" parameterValue="0"/>
            <parameter index="41" name="Low-Pass Cutoff Frequency" parameterValue="0.906945"/>
            <parameter index="42" name="Low-Pass Slope" parameterValue="0.4"/>
            <parameter index="43" name="Bypass" parameterValue="0"/>
            <parameter index="44" name="LowGraphRange" parameterValue="1"/>
          </component>
        </trackAudioParameters>
        <editParameter parameterIndex="0" slotIndex="4294967280"/>
        <sendList>
          <sendSlot preFader="false" sendOutputID="0" slotIndex="0">
            <component componentGuid="1ef2ce5a-ef76-4a08-bbd3-ff44258b8a84" id="sendComponent" powered="false">
              <parameter index="0" name="Power On/Off" parameterValue="0"/>
              <parameter index="1" name="Level" parameterValue="0"/>
            </component>
            <component id="sendPan" powered="true"/>
          </sendSlot>
          <sendSlot preFader="false" sendOutputID="0" slotIndex="1">
            <component componentGuid="24bd9396-03ea-450d-964d-2b489aacb033" id="sendComponent" powered="false">
              <parameter index="0" name="Power On/Off" parameterValue="0"/>
              <parameter index="1" name="Level" parameterValue="0"/>
            </component>
            <component id="sendPan" powered="true"/>
          </sendSlot>
          <sendSlot preFader="false" sendOutputID="0" slotIndex="2">
            <component componentGuid="460eab58-3aca-45bb-9aa4-dce226220df2" id="sendComponent" powered="false">
              <parameter index="0" name="Power On/Off" parameterValue="0"/>
              <parameter index="1" name="Level" parameterValue="0"/>
            </component>
            <component id="sendPan" powered="true"/>
          </sendSlot>
          <sendSlot preFader="false" sendOutputID="0" slotIndex="3">
            <component componentGuid="e9fd7a24-5bff-40bc-9252-9bc9758924f9" id="sendComponent" powered="false">
              <parameter index="0" name="Power On/Off" parameterValue="0"/>
              <parameter index="1" name="Level" parameterValue="0"/>
            </component>
            <component id="sendPan" powered="true"/>
          </sendSlot>
          <sendSlot preFader="false" sendOutputID="0" slotIndex="4">
            <component componentGuid="b0099a79-de60-4eb9-8a4c-ee518dba9104" id="sendComponent" powered="false">
              <parameter index="0" name="Power On/Off" parameterValue="0"/>
              <parameter index="1" name="Level" parameterValue="0"/>
            </component>
            <component id="sendPan" powered="true"/>
          </sendSlot>
          <sendSlot preFader="false" sendOutputID="0" slotIndex="5">
            <component componentGuid="8a4d44d0-3599-4ed2-a565-ed13d5fb60a0" id="sendComponent" powered="false">
              <parameter index="0" name="Power On/Off" parameterValue="0"/>
              <parameter index="1" name="Level" parameterValue="0"/>
            </component>
            <component id="sendPan" powered="true"/>
          </sendSlot>
          <sendSlot preFader="false" sendOutputID="0" slotIndex="6">
            <component componentGuid="3fd9172f-ee1c-46a0-a43f-cab4818cb772" id="sendComponent" powered="false">
              <parameter index="0" name="Power On/Off" parameterValue="0"/>
              <parameter index="1" name="Level" parameterValue="0"/>
            </component>
            <component id="sendPan" powered="true"/>
          </sendSlot>
          <sendSlot preFader="false" sendOutputID="0" slotIndex="7">
            <component componentGuid="8a5b8cf0-7cdb-48d4-892e-551baf0b2127" id="sendComponent" powered="false">
              <parameter index="0" name="Power On/Off" parameterValue="0"/>
              <parameter index="1" name="Level" parameterValue="0"/>
            </component>
            <component id="sendPan" powered="true"/>
          </sendSlot>
          <sendSlot preFader="false" sendOutputID="0" slotIndex="8">
            <component componentGuid="ef2619fa-66b3-477a-aae0-3e366eca8634" id="sendComponent" powered="false">
              <parameter index="0" name="Power On/Off" parameterValue="0"/>
              <parameter index="1" name="Level" parameterValue="0"/>
            </component>
            <component id="sendPan" powered="true"/>
          </sendSlot>
          <sendSlot preFader="false" sendOutputID="0" slotIndex="9">
            <component componentGuid="5f08567c-f32e-47ce-9c93-bb1ee032c6a8" id="sendComponent" powered="false">
              <parameter index="0" name="Power On/Off" parameterValue="0"/>
              <parameter index="1" name="Level" parameterValue="0"/>
            </component>
            <component id="sendPan" powered="true"/>
          </sendSlot>
          <sendSlot preFader="false" sendOutputID="0" slotIndex="10">
            <component componentGuid="e14fc0af-2778-4421-8898-1ecc887785f2" id="sendComponent" powered="false">
              <parameter index="0" name="Power On/Off" parameterValue="0"/>
              <parameter index="1" name="Level" parameterValue="0"/>
            </component>
            <component id="sendPan" powered="true"/>
          </sendSlot>
          <sendSlot preFader="false" sendOutputID="0" slotIndex="11">
            <component componentGuid="8fdaf717-1e9b-4570-a764-ef51324a8133" id="sendComponent" powered="false">
              <parameter index="0" name="Power On/Off" parameterValue="0"/>
              <parameter index="1" name="Level" parameterValue="0"/>
            </component>
            <component id="sendPan" powered="true"/>
          </sendSlot>
          <sendSlot preFader="false" sendOutputID="0" slotIndex="12">
            <component componentGuid="58f623ac-7de0-4d9c-af9d-ed0a10babbe2" id="sendComponent" powered="false">
              <parameter index="0" name="Power On/Off" parameterValue="0"/>
              <parameter index="1" name="Level" parameterValue="0"/>
            </component>
            <component id="sendPan" powered="true"/>
          </sendSlot>
          <sendSlot preFader="false" sendOutputID="0" slotIndex="13">
            <component componentGuid="3c3ae09c-e2c2-4652-8fca-7e0c36c21794" id="sendComponent" powered="false">
              <parameter index="0" name="Power On/Off" parameterValue="0"/>
              <parameter index="1" name="Level" parameterValue="0"/>
            </component>
            <component id="sendPan" powered="true"/>
          </sendSlot>
          <sendSlot preFader="false" sendOutputID="0" slotIndex="14">
            <component componentGuid="3c837985-e0c1-46fa-b113-36f136c9d998" id="sendComponent" powered="false">
              <parameter index="0" name="Power On/Off" parameterValue="0"/>
              <parameter index="1" name="Level" parameterValue="0"/>
            </component>
            <component id="sendPan" powered="true"/>
          </sendSlot>
          <sendSlot preFader="false" sendOutputID="0" slotIndex="15">
            <component componentGuid="bae37642-6570-46eb-af1f-98278fd4ea0e" id="sendComponent" powered="false">
              <parameter index="0" name="Power On/Off" parameterValue="0"/>
              <parameter index="1" name="Level" parameterValue="0"/>
            </component>
            <component id="sendPan" powered="true"/>
          </sendSlot>
        </sendList>
        <audioClip clipAutoCrossfade="true" crossFadeHeadClipID="-1" crossFadeTailClipID="-1" endPoint="478148" fileID="0" hue="-1" id="0" lockedInTime="false" looped="false" name="Track 1_009" offline="false" select="false" sourceInPoint="22423" sourceOutPoint="500571" startPoint="0" zOrder="14">
          <component componentGuid="f49578a9-fdb4-465e-a8b5-bce4762b6818" componentID="Audition.Fader" id="clipGain" name="volume" powered="true">
            <parameter index="0" name="volume" parameterValue="1"/>
            <parameter index="1" name="static gain" parameterValue="1"/>
          </component>
          <component componentGuid="034adf14-dab1-42b4-bf67-cd833a52fccc" componentID="Audition.Mute" id="clipMute" name="Mute" powered="true">
            <parameter index="0" parameterValue="0"/>
            <parameter index="1" name="mute" parameterValue="0"/>
          </component>
          <component id="clipPan" powered="true"/>
          <fadeIn crossFadeLinkType="linkedAsymmetric" endPoint="0" shape="0" startPoint="0" type="cosine"/>
          <fadeOut crossFadeLinkType="linkedAsymmetric" endPoint="478148" shape="0" startPoint="478148" type="cosine"/>
          <take sourceInPoint="0"/>
          <editParameter parameterIndex="0" slotIndex="4294967280"/>
          <channelMap>
            <channel index="0" sourceIndex="0"/>
          </channelMap>
        </audioClip>
        <audioClip clipAutoCrossfade="true" crossFadeHeadClipID="-1" crossFadeTailClipID="-1" endPoint="850554" fileID="1" hue="-1" id="1" lockedInTime="false" looped="false" name="Track 1_010" offline="false" select="false" sourceInPoint="30832" sourceOutPoint="332005" startPoint="549381" zOrder="12">
          <component componentGuid="192e88b4-c656-465c-a101-a7089fa7745c" componentID="Audition.Fader" id="clipGain" name="volume" powered="true">
            <parameter index="0" name="volume" parameterValue="1"/>
            <parameter index="1" name="static gain" parameterValue="1"/>
          </component>
          <component componentGuid="4abf59b7-1907-4f8b-94ba-1acdf73a41b1" componentID="Audition.Mute" id="clipMute" name="Mute" powered="true">
            <parameter index="0" parameterValue="0"/>
            <parameter index="1" name="mute" parameterValue="0"/>
          </component>
          <component id="clipPan" powered="true"/>
          <fadeIn crossFadeLinkType="linkedAsymmetric" endPoint="0" shape="0" startPoint="0" type="cosine"/>
          <fadeOut crossFadeLinkType="linkedAsymmetric" endPoint="301173" shape="0" startPoint="301173" type="cosine"/>
          <take sourceInPoint="0"/>
          <editParameter parameterIndex="0" slotIndex="4294967280"/>
          <channelMap>
            <channel index="0" sourceIndex="0"/>
          </channelMap>
        </audioClip>
        <audioClip clipAutoCrossfade="true" crossFadeHeadClipID="-1" crossFadeTailClipID="-1" endPoint="997283" fileID="3" hue="-1" id="2" lockedInTime="false" looped="false" name="Track 1_012" offline="false" select="false" sourceInPoint="31373" sourceOutPoint="102556" startPoint="926100" zOrder="46">
          <component componentGuid="8aed8a26-0b2c-444b-a41b-a6f5d0655e5c" componentID="Audition.Fader" id="clipGain" name="volume" powered="true">
            <parameter index="0" name="volume" parameterValue="1"/>
            <parameter index="1" name="static gain" parameterValue="1"/>
          </component>
          <component componentGuid="bb8c2d26-83f6-429f-8ddd-b9c2f06098d5" componentID="Audition.Mute" id="clipMute" name="Mute" powered="true">
            <parameter index="0" parameterValue="0"/>
            <parameter index="1" name="mute" parameterValue="0"/>
          </component>
          <component id="clipPan" powered="true"/>
          <fadeIn crossFadeLinkType="linkedAsymmetric" endPoint="0" shape="0" startPoint="0" type="cosine"/>
          <fadeOut crossFadeLinkType="linkedAsymmetric" endPoint="71183" shape="19" startPoint="71183" type="log"/>
          <take sourceInPoint="0"/>
          <editParameter parameterIndex="0" slotIndex="4294967280"/>
          <channelMap>
            <channel index="0" sourceIndex="0"/>
          </channelMap>
        </audioClip>
        <audioClip clipAutoCrossfade="true" crossFadeHeadClipID="-1" crossFadeTailClipID="-1" endPoint="1294541" fileID="2" hue="-1" id="3" lockedInTime="false" looped="false" name="Track 1_011" offline="false" select="false" sourceInPoint="112974" sourceOutPoint="410232" startPoint="997283" zOrder="47">
          <component componentGuid="8b2bcd4a-2dd5-4425-ad15-9ef0499f3b10" componentID="Audition.Fader" id="clipGain" name="volume" powered="true">
            <parameter index="0" name="volume" parameterValue="1"/>
            <parameter index="1" name="static gain" parameterValue="1"/>
          </component>
          <component componentGuid="827e1e77-bbbd-4b12-b557-60ff3c1ec1de" componentID="Audition.Mute" id="clipMute" name="Mute" powered="true">
            <parameter index="0" parameterValue="0"/>
            <parameter index="1" name="mute" parameterValue="0"/>
          </component>
          <component id="clipPan" powered="true"/>
          <fadeIn crossFadeLinkType="linkedAsymmetric" endPoint="0" shape="18" startPoint="0" type="log"/>
          <fadeOut crossFadeLinkType="linkedAsymmetric" endPoint="297258" shape="0" startPoint="297258" type="cosine"/>
          <editParameter parameterIndex="0" slotIndex="4294967280"/>
          <channelMap>
            <channel index="0" sourceIndex="0"/>
          </channelMap>
        </audioClip>
      </audioTrack>
      <audioTrack automationLaneOpenState="false" id="10003" index="3" select="false" visible="true">
        <trackParameters trackHeight="52" trackHue="227.0613527297973633" trackMinimized="false">
          <name>Track 3</name>
        </trackParameters>
        <trackAudioParameters audioChannelType="mono" automationMode="1" monitoring="false" recordArmed="false" solo="false" soloSafe="false">
          <trackOutput outputID="10000" type="trackID"/>
          <trackInput inputID="1"/>
          <component componentGuid="77576224-742f-4fd4-9eb6-19fd28b431df" componentID="Audition.Fader" id="trackFader" name="volume" powered="true">
            <parameter index="0" name="volume" parameterValue="1"/>
            <parameter index="1" name="static gain" parameterValue="1"/>
          </component>
          <component componentGuid="7fc68c35-407f-424e-ad2d-b112c99a3d6f" componentID="Audition.Mute" id="trackMute" name="Mute" powered="true">
            <parameter index="0" parameterValue="0"/>
            <parameter index="1" name="mute" parameterValue="1"/>
          </component>
          <component componentGuid="210125ba-b2c9-4e21-961e-385b5f49197c" componentID="Audition.StereoPanner" id="trackPan" name="StereoPanner" powered="true">
            <parameter index="0" name="Pan" parameterValue="0"/>
          </component>
          <component componentGuid="2a41c308-88ec-4527-a5d3-a964f0e53e3c" componentID="Audition.EQ" id="trackEQ" name="EQ" powered="false">
            <parameter index="0" name="Low Shelf Frequency" parameterValue="0.0009079"/>
            <parameter index="1" name="Low Shelf Gain" parameterValue="0.5"/>
            <parameter index="2" name="High Shelf Frequency" parameterValue="0.8161598"/>
            <parameter index="3" name="High Shelf Gain" parameterValue="0.5"/>
            <parameter index="4" name="EQ Band 1 Center Frequency" parameterValue="0.0013618"/>
            <parameter index="5" name="EQ Band 1 Q" parameterValue="0.0002"/>
            <parameter index="6" name="EQ Band 1 Gain" parameterValue="0.5"/>
            <parameter index="7" name="EQ Band 1 Enable" parameterValue="1"/>
            <parameter index="8" name="EQ Band 2 Center Frequency" parameterValue="0.0081707"/>
            <parameter index="9" name="EQ Band 2 Q" parameterValue="0.0002"/>
            <parameter index="10" name="EQ Band 2 Gain" parameterValue="0.5"/>
            <parameter index="11" name="EQ Band 2 Enable" parameterValue="1"/>
            <parameter index="12" name="EQ Band 3 Center Frequency" parameterValue="0.0354063"/>
            <parameter index="13" name="EQ Band 3 Q" parameterValue="0.0002"/>
            <parameter index="14" name="EQ Band 3 Gain" parameterValue="0.5"/>
            <parameter index="15" name="EQ Band 3 Enable" parameterValue="1"/>
            <parameter index="16" name="EQ Band 4 Center Frequency" parameterValue="0.1443486"/>
            <parameter index="17" name="EQ Band 4 Q" parameterValue="0.0002"/>
            <parameter index="18" name="EQ Band 4 Gain" parameterValue="0.5"/>
            <parameter index="19" name="EQ Band 4 Enable" parameterValue="1"/>
            <parameter index="20" name="EQ Band 5 Center Frequency" parameterValue="0.580118"/>
            <parameter index="21" name="EQ Band 5 Q" parameterValue="0.0002"/>
            <parameter index="22" name="EQ Band 5 Gain" parameterValue="0.5"/>
            <parameter index="23" name="EQ Band 5 Enable" parameterValue="1"/>
            <parameter index="24" name="Master Gain" parameterValue="0.6666667"/>
            <parameter index="25" name="ConstantQ" parameterValue="1"/>
            <parameter index="26" name="Low Shelf Filter Order" parameterValue="0"/>
            <parameter index="27" name="High Shelf Filter Order" parameterValue="0"/>
            <parameter index="28" name="Ultra-Quiet Mode" parameterValue="0"/>
            <parameter index="29" name="Low Shelf Enable" parameterValue="1"/>
            <parameter index="30" name="High Shelf Enable" parameterValue="1"/>
            <parameter index="31" name="Original Sample Rate" parameterValue="0.2296875"/>
            <parameter index="32" name="EQ Band 1 Bandwidth" parameterValue="0.0025"/>
            <parameter index="33" name="EQ Band 2 Bandwidth" parameterValue="0.01"/>
            <parameter index="34" name="EQ Band 3 Bandwidth" parameterValue="0.04"/>
            <parameter index="35" name="EQ Band 4 Bandwidth" parameterValue="0.16"/>
            <parameter index="36" name="EQ Band 5 Bandwidth" parameterValue="0.64"/>
            <parameter index="37" name="High-Pass Filter Enable" parameterValue="0"/>
            <parameter index="38" name="High-Pass Cutoff Frequency" parameterValue="0"/>
            <parameter index="39" name="High-Pass Slope" parameterValue="0.4"/>
            <parameter index="40" name="Low-Pass Filter Enable" parameterValue="0"/>
            <parameter index="41" name="Low-Pass Cutoff Frequency" parameterValue="0.906945"/>
            <parameter index="42" name="Low-Pass Slope" parameterValue="0.4"/>
            <parameter index="43" name="Bypass" parameterValue="0"/>
            <parameter index="44" name="LowGraphRange" parameterValue="1"/>
          </component>
        </trackAudioParameters>
        <editParameter parameterIndex="0" slotIndex="4294967280"/>
        <sendList>
          <sendSlot preFader="false" sendOutputID="0" slotIndex="0">
            <component componentGuid="a8d7ecc6-7a9a-4992-beb3-2f4534220255" id="sendComponent" powered="false">
              <parameter index="0" name="Power On/Off" parameterValue="0"/>
              <parameter index="1" name="Level" parameterValue="0"/>
            </component>
            <component id="sendPan" powered="true"/>
          </sendSlot>
          <sendSlot preFader="false" sendOutputID="0" slotIndex="1">
            <component componentGuid="7a613f6e-6c76-4b8d-8100-fa12d537a8ee" id="sendComponent" powered="false">
              <parameter index="0" name="Power On/Off" parameterValue="0"/>
              <parameter index="1" name="Level" parameterValue="0"/>
            </component>
            <component id="sendPan" powered="true"/>
          </sendSlot>
          <sendSlot preFader="false" sendOutputID="0" slotIndex="2">
            <component componentGuid="75110fed-b453-4e27-bf22-391ff6bb1d77" id="sendComponent" powered="false">
              <parameter index="0" name="Power On/Off" parameterValue="0"/>
              <parameter index="1" name="Level" parameterValue="0"/>
            </component>
            <component id="sendPan" powered="true"/>
          </sendSlot>
          <sendSlot preFader="false" sendOutputID="0" slotIndex="3">
            <component componentGuid="0000382d-17b2-4e8f-bf29-6b1f4636f849" id="sendComponent" powered="false">
              <parameter index="0" name="Power On/Off" parameterValue="0"/>
              <parameter index="1" name="Level" parameterValue="0"/>
            </component>
            <component id="sendPan" powered="true"/>
          </sendSlot>
          <sendSlot preFader="false" sendOutputID="0" slotIndex="4">
            <component componentGuid="3096e399-6a77-48ac-8f03-0caf43fbc130" id="sendComponent" powered="false">
              <parameter index="0" name="Power On/Off" parameterValue="0"/>
              <parameter index="1" name="Level" parameterValue="0"/>
            </component>
            <component id="sendPan" powered="true"/>
          </sendSlot>
          <sendSlot preFader="false" sendOutputID="0" slotIndex="5">
            <component componentGuid="e55f4e54-e1d1-4e58-a852-e9aa6d016daa" id="sendComponent" powered="false">
              <parameter index="0" name="Power On/Off" parameterValue="0"/>
              <parameter index="1" name="Level" parameterValue="0"/>
            </component>
            <component id="sendPan" powered="true"/>
          </sendSlot>
          <sendSlot preFader="false" sendOutputID="0" slotIndex="6">
            <component componentGuid="7beba86b-653d-44bc-b22f-a41f3ac52474" id="sendComponent" powered="false">
              <parameter index="0" name="Power On/Off" parameterValue="0"/>
              <parameter index="1" name="Level" parameterValue="0"/>
            </component>
            <component id="sendPan" powered="true"/>
          </sendSlot>
          <sendSlot preFader="false" sendOutputID="0" slotIndex="7">
            <component componentGuid="9630ccf4-cd33-49d3-a1c8-4cdc138eb6e4" id="sendComponent" powered="false">
              <parameter index="0" name="Power On/Off" parameterValue="0"/>
              <parameter index="1" name="Level" parameterValue="0"/>
            </component>
            <component id="sendPan" powered="true"/>
          </sendSlot>
          <sendSlot preFader="false" sendOutputID="0" slotIndex="8">
            <component componentGuid="6e6f0c8c-0cb6-4b09-8f55-be5d32d9254f" id="sendComponent" powered="false">
              <parameter index="0" name="Power On/Off" parameterValue="0"/>
              <parameter index="1" name="Level" parameterValue="0"/>
            </component>
            <component id="sendPan" powered="true"/>
          </sendSlot>
          <sendSlot preFader="false" sendOutputID="0" slotIndex="9">
            <component componentGuid="265c6796-1fd5-4bba-beb5-4ac7911149a8" id="sendComponent" powered="false">
              <parameter index="0" name="Power On/Off" parameterValue="0"/>
              <parameter index="1" name="Level" parameterValue="0"/>
            </component>
            <component id="sendPan" powered="true"/>
          </sendSlot>
          <sendSlot preFader="false" sendOutputID="0" slotIndex="10">
            <component componentGuid="5e230769-ffbf-4b0a-9b7d-d98af563fd47" id="sendComponent" powered="false">
              <parameter index="0" name="Power On/Off" parameterValue="0"/>
              <parameter index="1" name="Level" parameterValue="0"/>
            </component>
            <component id="sendPan" powered="true"/>
          </sendSlot>
          <sendSlot preFader="false" sendOutputID="0" slotIndex="11">
            <component componentGuid="ac7b44be-3ff6-4c2c-a7e7-feec00045ca8" id="sendComponent" powered="false">
              <parameter index="0" name="Power On/Off" parameterValue="0"/>
              <parameter index="1" name="Level" parameterValue="0"/>
            </component>
            <component id="sendPan" powered="true"/>
          </sendSlot>
          <sendSlot preFader="false" sendOutputID="0" slotIndex="12">
            <component componentGuid="3724ccf4-0a4c-4c76-887e-fc242d9b74bb" id="sendComponent" powered="false">
              <parameter index="0" name="Power On/Off" parameterValue="0"/>
              <parameter index="1" name="Level" parameterValue="0"/>
            </component>
            <component id="sendPan" powered="true"/>
          </sendSlot>
          <sendSlot preFader="false" sendOutputID="0" slotIndex="13">
            <component componentGuid="568cb5db-bd94-4bfa-b5eb-ccbe1d97186c" id="sendComponent" powered="false">
              <parameter index="0" name="Power On/Off" parameterValue="0"/>
              <parameter index="1" name="Level" parameterValue="0"/>
            </component>
            <component id="sendPan" powered="true"/>
          </sendSlot>
          <sendSlot preFader="false" sendOutputID="0" slotIndex="14">
            <component componentGuid="6015f71a-0745-4a63-bd8d-1dfaa4a405a3" id="sendComponent" powered="false">
              <parameter index="0" name="Power On/Off" parameterValue="0"/>
              <parameter index="1" name="Level" parameterValue="0"/>
            </component>
            <component id="sendPan" powered="true"/>
          </sendSlot>
          <sendSlot preFader="false" sendOutputID="0" slotIndex="15">
            <component componentGuid="95926689-7ab1-49de-bb4b-67c65ef4de2a" id="sendComponent" powered="false">
              <parameter index="0" name="Power On/Off" parameterValue="0"/>
              <parameter index="1" name="Level" parameterValue="0"/>
            </component>
            <component id="sendPan" powered="true"/>
          </sendSlot>
        </sendList>
        <audioClip clipAutoCrossfade="true" crossFadeHeadClipID="-1" crossFadeTailClipID="-1" endPoint="218863" fileID="4" hue="-1" id="0" lockedInTime="false" looped="false" name="Track 1_013" offline="false" select="false" sourceInPoint="24140" sourceOutPoint="243003" startPoint="0" zOrder="51">
          <component componentGuid="98253eda-6b11-41ac-9b4e-9d76b8393b29" componentID="Audition.Fader" id="clipGain" name="volume" powered="true">
            <parameter index="0" name="volume" parameterValue="1"/>
            <parameter index="1" name="static gain" parameterValue="1"/>
          </component>
          <component componentGuid="ba104627-24cd-4126-88be-13bc4ec7dcbb" componentID="Audition.Mute" id="clipMute" name="Mute" powered="true">
            <parameter index="0" parameterValue="0"/>
            <parameter index="1" name="mute" parameterValue="0"/>
          </component>
          <component id="clipPan" powered="true"/>
          <fadeIn crossFadeLinkType="linkedAsymmetric" endPoint="0" shape="0" startPoint="0" type="cosine"/>
          <fadeOut crossFadeLinkType="linkedAsymmetric" endPoint="218863" shape="0" startPoint="218863" type="cosine"/>
          <take sourceInPoint="0"/>
          <editParameter parameterIndex="0" slotIndex="4294967280"/>
          <channelMap>
            <channel index="0" sourceIndex="0"/>
          </channelMap>
        </audioClip>
        <audioClip clipAutoCrossfade="true" crossFadeHeadClipID="-1" crossFadeTailClipID="-1" endPoint="639681" fileID="5" hue="-1" id="1" lockedInTime="false" looped="false" name="Track 1_015" offline="false" select="false" sourceInPoint="28968" sourceOutPoint="432071" startPoint="236578" zOrder="54">
          <component componentGuid="cc13a19a-4045-495b-99e6-dbe5fe33f9e6" componentID="Audition.Fader" id="clipGain" name="volume" powered="true">
            <parameter index="0" name="volume" parameterValue="1"/>
            <parameter index="1" name="static gain" parameterValue="1"/>
          </component>
          <component componentGuid="082b039a-820c-46fb-866f-54056ecfaf3a" componentID="Audition.Mute" id="clipMute" name="Mute" powered="true">
            <parameter index="0" parameterValue="0"/>
            <parameter index="1" name="mute" parameterValue="0"/>
          </component>
          <component id="clipPan" powered="true"/>
          <fadeIn crossFadeLinkType="linkedAsymmetric" endPoint="0" shape="0" startPoint="0" type="cosine"/>
          <fadeOut crossFadeLinkType="linkedAsymmetric" endPoint="403103" shape="0" startPoint="403103" type="cosine"/>
          <take sourceInPoint="0"/>
          <editParameter parameterIndex="0" slotIndex="4294967280"/>
          <channelMap>
            <channel index="0" sourceIndex="0"/>
          </channelMap>
        </audioClip>
        <audioClip clipAutoCrossfade="true" crossFadeHeadClipID="-1" crossFadeTailClipID="-1" endPoint="1155266" fileID="6" hue="-1" id="2" lockedInTime="false" looped="false" name="Track 1_016" offline="false" select="false" sourceInPoint="33796" sourceOutPoint="549381" startPoint="639681" zOrder="68">
          <component componentGuid="40239ad7-de08-4c6f-b1f7-46ab39bcdde5" componentID="Audition.Fader" id="clipGain" name="volume" powered="true">
            <parameter index="0" name="volume" parameterValue="1"/>
            <parameter index="1" name="static gain" parameterValue="1"/>
          </component>
          <component componentGuid="09387801-8757-4ef4-9f2d-dd686c135df5" componentID="Audition.Mute" id="clipMute" name="Mute" powered="true">
            <parameter index="0" parameterValue="0"/>
            <parameter index="1" name="mute" parameterValue="0"/>
          </component>
          <component id="clipPan" powered="true"/>
          <fadeIn crossFadeLinkType="linkedAsymmetric" endPoint="0" shape="0" startPoint="0" type="cosine"/>
          <fadeOut crossFadeLinkType="linkedAsymmetric" endPoint="515585" shape="0" startPoint="515585" type="cosine"/>
          <take sourceInPoint="0"/>
          <editParameter parameterIndex="0" slotIndex="4294967280"/>
          <channelMap>
            <channel index="0" sourceIndex="0"/>
          </channelMap>
        </audioClip>
        <audioClip clipAutoCrossfade="true" crossFadeHeadClipID="-1" crossFadeTailClipID="-1" endPoint="1248578" fileID="7" hue="-1" id="3" lockedInTime="false" looped="false" name="395407__littlerainyseasons__laugh-track-4" offline="false" select="false" sourceInPoint="0" sourceOutPoint="93312" startPoint="1155266" zOrder="69">
          <component componentGuid="145d536b-15ed-465c-97f9-c79a4392a1cc" componentID="Audition.Fader" id="clipGain" name="volume" powered="true">
            <parameter index="0" name="volume" parameterValue="1">
              <parameterKeyframes enableSplines="false">
                <parameterKeyframe sampleOffset="76104" select="false" type="linear" value="0.65"/>
                <parameterKeyframe sampleOffset="91615" select="true" type="linear" value="0"/>
              </parameterKeyframes>
            </parameter>
            <parameter index="1" name="static gain" parameterValue="1"/>
          </component>
          <component componentGuid="ce0d70e0-83ef-4310-9c88-4cdbdb081dea" componentID="Audition.Mute" id="clipMute" name="Mute" powered="true">
            <parameter index="0" parameterValue="0"/>
            <parameter index="1" name="mute" parameterValue="0"/>
          </component>
          <component id="clipPan" powered="true"/>
          <fadeIn crossFadeLinkType="linkedAsymmetric" endPoint="0" shape="0" startPoint="0" type="cosine"/>
          <fadeOut crossFadeLinkType="linkedAsymmetric" endPoint="93312" shape="0" startPoint="93312" type="cosine"/>
          <editParameter parameterIndex="0" slotIndex="4294967280"/>
          <channelMap>
            <channel index="0" sourceIndex="0"/>
          </channelMap>
        </audioClip>
        <audioClip clipAutoCrossfade="true" crossFadeHeadClipID="-1" crossFadeTailClipID="-1" endPoint="1499400" fileID="9" hue="-1" id="4" lockedInTime="false" looped="false" name="Track 1_021" offline="false" select="false" sourceInPoint="31251" sourceOutPoint="264699" startPoint="1265952" zOrder="102">
          <component componentGuid="f91e6210-2f80-44c9-9778-f0a09e6fe3a8" componentID="Audition.Fader" id="clipGain" name="volume" powered="true">
            <parameter index="0" name="volume" parameterValue="1"/>
            <parameter index="1" name="static gain" parameterValue="1"/>
          </component>
          <component componentGuid="9a0b8b41-306f-4e27-97d8-1dd99b77acf1" componentID="Audition.Mute" id="clipMute" name="Mute" powered="true">
            <parameter index="0" parameterValue="0"/>
            <parameter index="1" name="mute" parameterValue="0"/>
          </component>
          <component id="clipPan" powered="true"/>
          <fadeIn crossFadeLinkType="linkedAsymmetric" endPoint="0" shape="0" startPoint="0" type="cosine"/>
          <fadeOut crossFadeLinkType="linkedAsymmetric" endPoint="233448" shape="18" startPoint="233448" type="log"/>
          <take sourceInPoint="0"/>
          <editParameter parameterIndex="0" slotIndex="4294967280"/>
          <channelMap>
            <channel index="0" sourceIndex="0"/>
          </channelMap>
        </audioClip>
        <audioClip clipAutoCrossfade="true" crossFadeHeadClipID="-1" crossFadeTailClipID="-1" endPoint="1675800" fileID="8" hue="-1" id="5" lockedInTime="false" looped="false" name="Track 1_020" offline="false" select="false" sourceInPoint="25001" sourceOutPoint="180856" startPoint="1519945" zOrder="103">
          <component componentGuid="b7f2bbd6-d9de-43fa-911e-35c33289bf76" componentID="Audition.Fader" id="clipGain" name="volume" powered="true">
            <parameter index="0" name="volume" parameterValue="1"/>
            <parameter index="1" name="static gain" parameterValue="1"/>
          </component>
          <component componentGuid="4f95455d-ccce-4640-9688-943572849271" componentID="Audition.Mute" id="clipMute" name="Mute" powered="true">
            <parameter index="0" parameterValue="0"/>
            <parameter index="1" name="mute" parameterValue="0"/>
          </component>
          <component id="clipPan" powered="true"/>
          <fadeIn crossFadeLinkType="linkedAsymmetric" endPoint="0" shape="19" startPoint="0" type="log"/>
          <fadeOut crossFadeLinkType="linkedAsymmetric" endPoint="155855" shape="18" startPoint="155855" type="log"/>
          <take sourceInPoint="0"/>
          <editParameter parameterIndex="0" slotIndex="4294967280"/>
          <channelMap>
            <channel index="0" sourceIndex="0"/>
          </channelMap>
        </audioClip>
        <audioClip clipAutoCrossfade="true" crossFadeHeadClipID="-1" crossFadeTailClipID="-1" endPoint="1807566" fileID="9" hue="-1" id="6" lockedInTime="false" looped="false" name="Track 1_021" offline="false" select="false" sourceInPoint="441000" sourceOutPoint="572766" startPoint="1675800" zOrder="104">
          <component componentGuid="002f672b-018d-456e-8fbb-c82f05a5aefc" componentID="Audition.Fader" id="clipGain" name="volume" powered="true">
            <parameter index="0" name="volume" parameterValue="1"/>
            <parameter index="1" name="static gain" parameterValue="1"/>
          </component>
          <component componentGuid="7069dd14-caf0-470e-84fa-e010bd46db0a" componentID="Audition.Mute" id="clipMute" name="Mute" powered="true">
            <parameter index="0" parameterValue="0"/>
            <parameter index="1" name="mute" parameterValue="0"/>
          </component>
          <component id="clipPan" powered="true"/>
          <fadeIn crossFadeLinkType="linkedAsymmetric" endPoint="0" shape="19" startPoint="0" type="log"/>
          <fadeOut crossFadeLinkType="linkedAsymmetric" endPoint="131766" shape="0" startPoint="131766" type="cosine"/>
          <editParameter parameterIndex="0" slotIndex="4294967280"/>
          <channelMap>
            <channel index="0" sourceIndex="0"/>
          </channelMap>
        </audioClip>
      </audioTrack>
      <audioTrack automationLaneOpenState="false" id="10004" index="4" select="false" visible="true">
        <trackParameters trackHeight="52" trackHue="153.4897756576538086" trackMinimized="false">
          <name>Track 4</name>
        </trackParameters>
        <trackAudioParameters audioChannelType="mono" automationMode="1" monitoring="false" recordArmed="false" solo="false" soloSafe="false">
          <trackOutput outputID="10000" type="trackID"/>
          <trackInput inputID="1"/>
          <component componentGuid="243668ba-5eed-407b-9814-5058ad3ba33e" componentID="Audition.Fader" id="trackFader" name="volume" powered="true">
            <parameter index="0" name="volume" parameterValue="0.4365159"/>
            <parameter index="1" name="static gain" parameterValue="1"/>
          </component>
          <component componentGuid="6f219eb0-6311-4fec-9eb2-3acc09e4b84b" componentID="Audition.Mute" id="trackMute" name="Mute" powered="true">
            <parameter index="0" parameterValue="0"/>
            <parameter index="1" name="mute" parameterValue="1"/>
          </component>
          <component componentGuid="42b4b7cd-e1ac-45ef-b3f9-dd6f7bbc449b" componentID="Audition.StereoPanner" id="trackPan" name="StereoPanner" powered="true">
            <parameter index="0" name="Pan" parameterValue="0"/>
          </component>
          <component componentGuid="223e9104-5f51-413e-afd7-8fcb142c8dd6" componentID="Audition.EQ" id="trackEQ" name="EQ" powered="false">
            <parameter index="0" name="Low Shelf Frequency" parameterValue="0.0009079"/>
            <parameter index="1" name="Low Shelf Gain" parameterValue="0.5"/>
            <parameter index="2" name="High Shelf Frequency" parameterValue="0.8161598"/>
            <parameter index="3" name="High Shelf Gain" parameterValue="0.5"/>
            <parameter index="4" name="EQ Band 1 Center Frequency" parameterValue="0.0013618"/>
            <parameter index="5" name="EQ Band 1 Q" parameterValue="0.0002"/>
            <parameter index="6" name="EQ Band 1 Gain" parameterValue="0.5"/>
            <parameter index="7" name="EQ Band 1 Enable" parameterValue="1"/>
            <parameter index="8" name="EQ Band 2 Center Frequency" parameterValue="0.0081707"/>
            <parameter index="9" name="EQ Band 2 Q" parameterValue="0.0002"/>
            <parameter index="10" name="EQ Band 2 Gain" parameterValue="0.5"/>
            <parameter index="11" name="EQ Band 2 Enable" parameterValue="1"/>
            <parameter index="12" name="EQ Band 3 Center Frequency" parameterValue="0.0354063"/>
            <parameter index="13" name="EQ Band 3 Q" parameterValue="0.0002"/>
            <parameter index="14" name="EQ Band 3 Gain" parameterValue="0.5"/>
            <parameter index="15" name="EQ Band 3 Enable" parameterValue="1"/>
            <parameter index="16" name="EQ Band 4 Center Frequency" parameterValue="0.1443486"/>
            <parameter index="17" name="EQ Band 4 Q" parameterValue="0.0002"/>
            <parameter index="18" name="EQ Band 4 Gain" parameterValue="0.5"/>
            <parameter index="19" name="EQ Band 4 Enable" parameterValue="1"/>
            <parameter index="20" name="EQ Band 5 Center Frequency" parameterValue="0.580118"/>
            <parameter index="21" name="EQ Band 5 Q" parameterValue="0.0002"/>
            <parameter index="22" name="EQ Band 5 Gain" parameterValue="0.5"/>
            <parameter index="23" name="EQ Band 5 Enable" parameterValue="1"/>
            <parameter index="24" name="Master Gain" parameterValue="0.6666667"/>
            <parameter index="25" name="ConstantQ" parameterValue="1"/>
            <parameter index="26" name="Low Shelf Filter Order" parameterValue="0"/>
            <parameter index="27" name="High Shelf Filter Order" parameterValue="0"/>
            <parameter index="28" name="Ultra-Quiet Mode" parameterValue="0"/>
            <parameter index="29" name="Low Shelf Enable" parameterValue="1"/>
            <parameter index="30" name="High Shelf Enable" parameterValue="1"/>
            <parameter index="31" name="Original Sample Rate" parameterValue="0.2296875"/>
            <parameter index="32" name="EQ Band 1 Bandwidth" parameterValue="0.0025"/>
            <parameter index="33" name="EQ Band 2 Bandwidth" parameterValue="0.01"/>
            <parameter index="34" name="EQ Band 3 Bandwidth" parameterValue="0.04"/>
            <parameter index="35" name="EQ Band 4 Bandwidth" parameterValue="0.16"/>
            <parameter index="36" name="EQ Band 5 Bandwidth" parameterValue="0.64"/>
            <parameter index="37" name="High-Pass Filter Enable" parameterValue="0"/>
            <parameter index="38" name="High-Pass Cutoff Frequency" parameterValue="0"/>
            <parameter index="39" name="High-Pass Slope" parameterValue="0.4"/>
            <parameter index="40" name="Low-Pass Filter Enable" parameterValue="0"/>
            <parameter index="41" name="Low-Pass Cutoff Frequency" parameterValue="0.906945"/>
            <parameter index="42" name="Low-Pass Slope" parameterValue="0.4"/>
            <parameter index="43" name="Bypass" parameterValue="0"/>
            <parameter index="44" name="LowGraphRange" parameterValue="1"/>
          </component>
        </trackAudioParameters>
        <editParameter parameterIndex="0" slotIndex="4294967280"/>
        <sendList>
          <sendSlot preFader="false" sendOutputID="0" slotIndex="0">
            <component componentGuid="ef226d02-f423-49c6-9c1b-353f26a398d3" id="sendComponent" powered="false">
              <parameter index="0" name="Power On/Off" parameterValue="0"/>
              <parameter index="1" name="Level" parameterValue="0"/>
            </component>
            <component id="sendPan" powered="true"/>
          </sendSlot>
          <sendSlot preFader="false" sendOutputID="0" slotIndex="1">
            <component componentGuid="ad035484-6fd6-4c0a-8dda-52eac485da1e" id="sendComponent" powered="false">
              <parameter index="0" name="Power On/Off" parameterValue="0"/>
              <parameter index="1" name="Level" parameterValue="0"/>
            </component>
            <component id="sendPan" powered="true"/>
          </sendSlot>
          <sendSlot preFader="false" sendOutputID="0" slotIndex="2">
            <component componentGuid="b9c5e5c7-4fe4-4ada-8173-dd4189428c5e" id="sendComponent" powered="false">
              <parameter index="0" name="Power On/Off" parameterValue="0"/>
              <parameter index="1" name="Level" parameterValue="0"/>
            </component>
            <component id="sendPan" powered="true"/>
          </sendSlot>
          <sendSlot preFader="false" sendOutputID="0" slotIndex="3">
            <component componentGuid="374523e4-6176-48ac-a1c9-6261a82b1752" id="sendComponent" powered="false">
              <parameter index="0" name="Power On/Off" parameterValue="0"/>
              <parameter index="1" name="Level" parameterValue="0"/>
            </component>
            <component id="sendPan" powered="true"/>
          </sendSlot>
          <sendSlot preFader="false" sendOutputID="0" slotIndex="4">
            <component componentGuid="9afeb811-2435-44ef-b79f-e95f8bad3ab1" id="sendComponent" powered="false">
              <parameter index="0" name="Power On/Off" parameterValue="0"/>
              <parameter index="1" name="Level" parameterValue="0"/>
            </component>
            <component id="sendPan" powered="true"/>
          </sendSlot>
          <sendSlot preFader="false" sendOutputID="0" slotIndex="5">
            <component componentGuid="6824e7b7-3d14-4a49-bf6c-2a0455150f9f" id="sendComponent" powered="false">
              <parameter index="0" name="Power On/Off" parameterValue="0"/>
              <parameter index="1" name="Level" parameterValue="0"/>
            </component>
            <component id="sendPan" powered="true"/>
          </sendSlot>
          <sendSlot preFader="false" sendOutputID="0" slotIndex="6">
            <component componentGuid="644fdf00-0178-4d8e-994e-03a73305559a" id="sendComponent" powered="false">
              <parameter index="0" name="Power On/Off" parameterValue="0"/>
              <parameter index="1" name="Level" parameterValue="0"/>
            </component>
            <component id="sendPan" powered="true"/>
          </sendSlot>
          <sendSlot preFader="false" sendOutputID="0" slotIndex="7">
            <component componentGuid="6abf5ba4-55bd-4537-8709-635cc9f7370e" id="sendComponent" powered="false">
              <parameter index="0" name="Power On/Off" parameterValue="0"/>
              <parameter index="1" name="Level" parameterValue="0"/>
            </component>
            <component id="sendPan" powered="true"/>
          </sendSlot>
          <sendSlot preFader="false" sendOutputID="0" slotIndex="8">
            <component componentGuid="0581afc8-3b4d-4daf-961f-7bbd7305d6c4" id="sendComponent" powered="false">
              <parameter index="0" name="Power On/Off" parameterValue="0"/>
              <parameter index="1" name="Level" parameterValue="0"/>
            </component>
            <component id="sendPan" powered="true"/>
          </sendSlot>
          <sendSlot preFader="false" sendOutputID="0" slotIndex="9">
            <component componentGuid="51700422-571a-437f-aa43-53c45505efa6" id="sendComponent" powered="false">
              <parameter index="0" name="Power On/Off" parameterValue="0"/>
              <parameter index="1" name="Level" parameterValue="0"/>
            </component>
            <component id="sendPan" powered="true"/>
          </sendSlot>
          <sendSlot preFader="false" sendOutputID="0" slotIndex="10">
            <component componentGuid="3d7cde80-fe80-4e8d-a197-b47c0eadcd9f" id="sendComponent" powered="false">
              <parameter index="0" name="Power On/Off" parameterValue="0"/>
              <parameter index="1" name="Level" parameterValue="0"/>
            </component>
            <component id="sendPan" powered="true"/>
          </sendSlot>
          <sendSlot preFader="false" sendOutputID="0" slotIndex="11">
            <component componentGuid="b6357f9f-9b29-423f-a256-e8beb718382a" id="sendComponent" powered="false">
              <parameter index="0" name="Power On/Off" parameterValue="0"/>
              <parameter index="1" name="Level" parameterValue="0"/>
            </component>
            <component id="sendPan" powered="true"/>
          </sendSlot>
          <sendSlot preFader="false" sendOutputID="0" slotIndex="12">
            <component componentGuid="71d501ab-4ad7-40d2-8181-6feed902acb5" id="sendComponent" powered="false">
              <parameter index="0" name="Power On/Off" parameterValue="0"/>
              <parameter index="1" name="Level" parameterValue="0"/>
            </component>
            <component id="sendPan" powered="true"/>
          </sendSlot>
          <sendSlot preFader="false" sendOutputID="0" slotIndex="13">
            <component componentGuid="c9f964c2-2379-4b88-b5f3-7d4ff1ccc424" id="sendComponent" powered="false">
              <parameter index="0" name="Power On/Off" parameterValue="0"/>
              <parameter index="1" name="Level" parameterValue="0"/>
            </component>
            <component id="sendPan" powered="true"/>
          </sendSlot>
          <sendSlot preFader="false" sendOutputID="0" slotIndex="14">
            <component componentGuid="0c88708a-a30b-4b01-8968-ef3455969737" id="sendComponent" powered="false">
              <parameter index="0" name="Power On/Off" parameterValue="0"/>
              <parameter index="1" name="Level" parameterValue="0"/>
            </component>
            <component id="sendPan" powered="true"/>
          </sendSlot>
          <sendSlot preFader="false" sendOutputID="0" slotIndex="15">
            <component componentGuid="6646175e-22e5-40ea-8fcb-50a6b753fb4c" id="sendComponent" powered="false">
              <parameter index="0" name="Power On/Off" parameterValue="0"/>
              <parameter index="1" name="Level" parameterValue="0"/>
            </component>
            <component id="sendPan" powered="true"/>
          </sendSlot>
        </sendList>
        <audioClip clipAutoCrossfade="true" crossFadeHeadClipID="-1" crossFadeTailClipID="-1" endPoint="742032" fileID="10" hue="-1" id="0" lockedInTime="false" looped="false" name="Track 1_022" offline="false" select="false" sourceInPoint="33009" sourceOutPoint="775041" startPoint="0" zOrder="112">
          <component componentGuid="9f720e0f-a6d5-4276-8b28-aef2e516c063" componentID="Audition.Fader" id="clipGain" name="volume" powered="true">
            <parameter index="0" name="volume" parameterValue="1"/>
            <parameter index="1" name="static gain" parameterValue="1"/>
          </component>
          <component componentGuid="5090cac3-7aef-4302-a454-f2884cc57423" componentID="Audition.Mute" id="clipMute" name="Mute" powered="true">
            <parameter index="0" parameterValue="0"/>
            <parameter index="1" name="mute" parameterValue="0"/>
          </component>
          <component id="clipPan" powered="true"/>
          <fadeIn crossFadeLinkType="linkedAsymmetric" endPoint="0" shape="0" startPoint="0" type="cosine"/>
          <fadeOut crossFadeLinkType="linkedAsymmetric" endPoint="742032" shape="18" startPoint="742032" type="log"/>
          <take sourceInPoint="0"/>
          <editParameter parameterIndex="0" slotIndex="4294967280"/>
          <channelMap>
            <channel index="0" sourceIndex="0"/>
          </channelMap>
        </audioClip>
        <audioClip clipAutoCrossfade="true" crossFadeHeadClipID="-1" crossFadeTailClipID="-1" endPoint="929856" fileID="11" hue="-1" id="1" lockedInTime="false" looped="false" name="Track 1_024" offline="false" select="false" sourceInPoint="21091" sourceOutPoint="208915" startPoint="742032" zOrder="109">
          <component componentGuid="01f27af7-bf46-4157-b9c4-747a3a5a739c" componentID="Audition.Fader" id="clipGain" name="volume" powered="true">
            <parameter index="0" name="volume" parameterValue="1"/>
            <parameter index="1" name="static gain" parameterValue="1"/>
          </component>
          <component componentGuid="9781b4b4-8730-4877-a3bd-3ebd8c557fee" componentID="Audition.Mute" id="clipMute" name="Mute" powered="true">
            <parameter index="0" parameterValue="0"/>
            <parameter index="1" name="mute" parameterValue="0"/>
          </component>
          <component id="clipPan" powered="true"/>
          <fadeIn crossFadeLinkType="linkedAsymmetric" endPoint="0" shape="19" startPoint="0" type="log"/>
          <fadeOut crossFadeLinkType="linkedAsymmetric" endPoint="187824" shape="0" startPoint="187824" type="cosine"/>
          <take sourceInPoint="0"/>
          <editParameter parameterIndex="0" slotIndex="4294967280"/>
          <channelMap>
            <channel index="0" sourceIndex="0"/>
          </channelMap>
        </audioClip>
        <audioClip clipAutoCrossfade="true" crossFadeHeadClipID="-1" crossFadeTailClipID="-1" endPoint="2241230" fileID="12" hue="-1" id="2" lockedInTime="false" looped="false" name="Track 1_025" offline="false" select="false" sourceInPoint="23511" sourceOutPoint="1294541" startPoint="970200" zOrder="115">
          <component componentGuid="b5b827f5-a125-44f8-ba73-6dd4ee16dc01" componentID="Audition.Fader" id="clipGain" name="volume" powered="true">
            <parameter index="0" name="volume" parameterValue="1"/>
            <parameter index="1" name="static gain" parameterValue="1"/>
          </component>
          <component componentGuid="de36c7eb-b923-491c-9912-01a42d18ba8a" componentID="Audition.Mute" id="clipMute" name="Mute" powered="true">
            <parameter index="0" parameterValue="0"/>
            <parameter index="1" name="mute" parameterValue="0"/>
          </component>
          <component id="clipPan" powered="true"/>
          <fadeIn crossFadeLinkType="linkedAsymmetric" endPoint="0" shape="0" startPoint="0" type="cosine"/>
          <fadeOut crossFadeLinkType="linkedAsymmetric" endPoint="1271030" shape="0" startPoint="1271030" type="cosine"/>
          <take sourceInPoint="0"/>
          <editParameter parameterIndex="0" slotIndex="4294967280"/>
          <channelMap>
            <channel index="0" sourceIndex="0"/>
          </channelMap>
        </audioClip>
        <audioClip clipAutoCrossfade="true" crossFadeHeadClipID="-1" crossFadeTailClipID="4" endPoint="2341135" fileID="13" hue="-1" id="3" lockedInTime="false" looped="false" name="Track 1_028" offline="false" select="false" sourceInPoint="59838" sourceOutPoint="151873" startPoint="2249100" zOrder="131">
          <component componentGuid="2f5d884f-0672-45f5-a626-c7dcd5b239ba" componentID="Audition.Fader" id="clipGain" name="volume" powered="true">
            <parameter index="0" name="volume" parameterValue="0.5159642"/>
            <parameter index="1" name="static gain" parameterValue="1"/>
          </component>
          <component componentGuid="abcd3ba6-7e36-48ed-b112-225d4ccfd63f" componentID="Audition.Mute" id="clipMute" name="Mute" powered="true">
            <parameter index="0" parameterValue="0"/>
            <parameter index="1" name="mute" parameterValue="0"/>
          </component>
          <component id="clipPan" powered="true"/>
          <fadeIn crossFadeLinkType="linkedAsymmetric" endPoint="0" shape="0" startPoint="0" type="cosine"/>
          <fadeOut crossFadeLinkType="linkedAsymmetric" endPoint="92035" shape="18" startPoint="79956" type="log"/>
          <take sourceInPoint="0"/>
          <editParameter parameterIndex="0" slotIndex="4294967280"/>
          <channelMap>
            <channel index="0" sourceIndex="0"/>
          </channelMap>
        </audioClip>
        <audioClip clipAutoCrossfade="true" crossFadeHeadClipID="3" crossFadeTailClipID="-1" endPoint="2622158" fileID="14" hue="-1" id="4" lockedInTime="false" looped="false" name="Track 1_029" offline="false" select="false" sourceInPoint="32021" sourceOutPoint="325123" startPoint="2329056" zOrder="129">
          <component componentGuid="1a9cbf0d-9112-4df3-8acd-6b78b6bb033a" componentID="Audition.Fader" id="clipGain" name="volume" powered="true">
            <parameter index="0" name="volume" parameterValue="1"/>
            <parameter index="1" name="static gain" parameterValue="1"/>
          </component>
          <component componentGuid="626b7545-5fd0-42a3-80ea-fa7af3116f3e" componentID="Audition.Mute" id="clipMute" name="Mute" powered="true">
            <parameter index="0" parameterValue="0"/>
            <parameter index="1" name="mute" parameterValue="0"/>
          </component>
          <component id="clipPan" powered="true"/>
          <fadeIn crossFadeLinkType="linkedAsymmetric" endPoint="12079" shape="19" startPoint="0" type="log"/>
          <fadeOut crossFadeLinkType="linkedAsymmetric" endPoint="293102" shape="0" startPoint="293102" type="cosine"/>
          <take sourceInPoint="0"/>
          <editParameter parameterIndex="0" slotIndex="4294967280"/>
          <channelMap>
            <channel index="0" sourceIndex="0"/>
          </channelMap>
        </audioClip>
      </audioTrack>
      <audioTrack automationLaneOpenState="false" id="10005" index="5" select="true" visible="true">
        <trackParameters trackHeight="52" trackHue="240.287775993347168" trackMinimized="false">
          <name>Track 5</name>
        </trackParameters>
        <trackAudioParameters audioChannelType="mono" automationMode="1" monitoring="false" recordArmed="false" solo="false" soloSafe="false">
          <trackOutput outputID="10000" type="trackID"/>
          <trackInput inputID="1"/>
          <component componentGuid="863959b3-4a07-40a5-90ef-ddcd74d9f0f4" componentID="Audition.Fader" id="trackFader" name="volume" powered="true">
            <parameter index="0" name="volume" parameterValue="1"/>
            <parameter index="1" name="static gain" parameterValue="1"/>
          </component>
          <component componentGuid="4cc36197-bc84-4531-9d75-d28ca1525902" componentID="Audition.Mute" id="trackMute" name="Mute" powered="true">
            <parameter index="0" parameterValue="0"/>
            <parameter index="1" name="mute" parameterValue="1"/>
          </component>
          <component componentGuid="cbb5880b-2822-40cd-b574-7afec7bc5864" componentID="Audition.StereoPanner" id="trackPan" name="StereoPanner" powered="true">
            <parameter index="0" name="Pan" parameterValue="0"/>
          </component>
          <component componentGuid="501c3c98-84e1-4523-aacb-96b538f70d09" componentID="Audition.EQ" id="trackEQ" name="EQ" powered="false">
            <parameter index="0" name="Low Shelf Frequency" parameterValue="0.0009079"/>
            <parameter index="1" name="Low Shelf Gain" parameterValue="0.5"/>
            <parameter index="2" name="High Shelf Frequency" parameterValue="0.8161598"/>
            <parameter index="3" name="High Shelf Gain" parameterValue="0.5"/>
            <parameter index="4" name="EQ Band 1 Center Frequency" parameterValue="0.0013618"/>
            <parameter index="5" name="EQ Band 1 Q" parameterValue="0.0002"/>
            <parameter index="6" name="EQ Band 1 Gain" parameterValue="0.5"/>
            <parameter index="7" name="EQ Band 1 Enable" parameterValue="1"/>
            <parameter index="8" name="EQ Band 2 Center Frequency" parameterValue="0.0081707"/>
            <parameter index="9" name="EQ Band 2 Q" parameterValue="0.0002"/>
            <parameter index="10" name="EQ Band 2 Gain" parameterValue="0.5"/>
            <parameter index="11" name="EQ Band 2 Enable" parameterValue="1"/>
            <parameter index="12" name="EQ Band 3 Center Frequency" parameterValue="0.0354063"/>
            <parameter index="13" name="EQ Band 3 Q" parameterValue="0.0002"/>
            <parameter index="14" name="EQ Band 3 Gain" parameterValue="0.5"/>
            <parameter index="15" name="EQ Band 3 Enable" parameterValue="1"/>
            <parameter index="16" name="EQ Band 4 Center Frequency" parameterValue="0.1443486"/>
            <parameter index="17" name="EQ Band 4 Q" parameterValue="0.0002"/>
            <parameter index="18" name="EQ Band 4 Gain" parameterValue="0.5"/>
            <parameter index="19" name="EQ Band 4 Enable" parameterValue="1"/>
            <parameter index="20" name="EQ Band 5 Center Frequency" parameterValue="0.580118"/>
            <parameter index="21" name="EQ Band 5 Q" parameterValue="0.0002"/>
            <parameter index="22" name="EQ Band 5 Gain" parameterValue="0.5"/>
            <parameter index="23" name="EQ Band 5 Enable" parameterValue="1"/>
            <parameter index="24" name="Master Gain" parameterValue="0.6666667"/>
            <parameter index="25" name="ConstantQ" parameterValue="1"/>
            <parameter index="26" name="Low Shelf Filter Order" parameterValue="0"/>
            <parameter index="27" name="High Shelf Filter Order" parameterValue="0"/>
            <parameter index="28" name="Ultra-Quiet Mode" parameterValue="0"/>
            <parameter index="29" name="Low Shelf Enable" parameterValue="1"/>
            <parameter index="30" name="High Shelf Enable" parameterValue="1"/>
            <parameter index="31" name="Original Sample Rate" parameterValue="0.2296875"/>
            <parameter index="32" name="EQ Band 1 Bandwidth" parameterValue="0.0025"/>
            <parameter index="33" name="EQ Band 2 Bandwidth" parameterValue="0.01"/>
            <parameter index="34" name="EQ Band 3 Bandwidth" parameterValue="0.04"/>
            <parameter index="35" name="EQ Band 4 Bandwidth" parameterValue="0.16"/>
            <parameter index="36" name="EQ Band 5 Bandwidth" parameterValue="0.64"/>
            <parameter index="37" name="High-Pass Filter Enable" parameterValue="0"/>
            <parameter index="38" name="High-Pass Cutoff Frequency" parameterValue="0"/>
            <parameter index="39" name="High-Pass Slope" parameterValue="0.4"/>
            <parameter index="40" name="Low-Pass Filter Enable" parameterValue="0"/>
            <parameter index="41" name="Low-Pass Cutoff Frequency" parameterValue="0.906945"/>
            <parameter index="42" name="Low-Pass Slope" parameterValue="0.4"/>
            <parameter index="43" name="Bypass" parameterValue="0"/>
            <parameter index="44" name="LowGraphRange" parameterValue="1"/>
          </component>
        </trackAudioParameters>
        <editParameter parameterIndex="0" slotIndex="4294967280"/>
        <sendList>
          <sendSlot preFader="false" sendOutputID="0" slotIndex="0">
            <component componentGuid="9e3fc057-6fe5-4a41-8ae1-914e9920308f" id="sendComponent" powered="false">
              <parameter index="0" name="Power On/Off" parameterValue="0"/>
              <parameter index="1" name="Level" parameterValue="0"/>
            </component>
            <component id="sendPan" powered="true"/>
          </sendSlot>
          <sendSlot preFader="false" sendOutputID="0" slotIndex="1">
            <component componentGuid="3b614f01-6915-4096-bd4d-ab5b9accaf2f" id="sendComponent" powered="false">
              <parameter index="0" name="Power On/Off" parameterValue="0"/>
              <parameter index="1" name="Level" parameterValue="0"/>
            </component>
            <component id="sendPan" powered="true"/>
          </sendSlot>
          <sendSlot preFader="false" sendOutputID="0" slotIndex="2">
            <component componentGuid="fa1d95da-d45e-4a62-bf1a-c81b617dee39" id="sendComponent" powered="false">
              <parameter index="0" name="Power On/Off" parameterValue="0"/>
              <parameter index="1" name="Level" parameterValue="0"/>
            </component>
            <component id="sendPan" powered="true"/>
          </sendSlot>
          <sendSlot preFader="false" sendOutputID="0" slotIndex="3">
            <component componentGuid="0f425374-23c9-4afe-9944-c5be782839ba" id="sendComponent" powered="false">
              <parameter index="0" name="Power On/Off" parameterValue="0"/>
              <parameter index="1" name="Level" parameterValue="0"/>
            </component>
            <component id="sendPan" powered="true"/>
          </sendSlot>
          <sendSlot preFader="false" sendOutputID="0" slotIndex="4">
            <component componentGuid="b1137f17-0260-415f-8364-72f1f61fa4d5" id="sendComponent" powered="false">
              <parameter index="0" name="Power On/Off" parameterValue="0"/>
              <parameter index="1" name="Level" parameterValue="0"/>
            </component>
            <component id="sendPan" powered="true"/>
          </sendSlot>
          <sendSlot preFader="false" sendOutputID="0" slotIndex="5">
            <component componentGuid="840e5887-cc7f-4836-9fc1-4ec173a1fb98" id="sendComponent" powered="false">
              <parameter index="0" name="Power On/Off" parameterValue="0"/>
              <parameter index="1" name="Level" parameterValue="0"/>
            </component>
            <component id="sendPan" powered="true"/>
          </sendSlot>
          <sendSlot preFader="false" sendOutputID="0" slotIndex="6">
            <component componentGuid="67761ead-8add-46ef-b40e-c228e558738a" id="sendComponent" powered="false">
              <parameter index="0" name="Power On/Off" parameterValue="0"/>
              <parameter index="1" name="Level" parameterValue="0"/>
            </component>
            <component id="sendPan" powered="true"/>
          </sendSlot>
          <sendSlot preFader="false" sendOutputID="0" slotIndex="7">
            <component componentGuid="10b33422-6ade-49ca-bb3b-2602330facc8" id="sendComponent" powered="false">
              <parameter index="0" name="Power On/Off" parameterValue="0"/>
              <parameter index="1" name="Level" parameterValue="0"/>
            </component>
            <component id="sendPan" powered="true"/>
          </sendSlot>
          <sendSlot preFader="false" sendOutputID="0" slotIndex="8">
            <component componentGuid="6efe740f-407a-48e0-ad28-d5dce1595016" id="sendComponent" powered="false">
              <parameter index="0" name="Power On/Off" parameterValue="0"/>
              <parameter index="1" name="Level" parameterValue="0"/>
            </component>
            <component id="sendPan" powered="true"/>
          </sendSlot>
          <sendSlot preFader="false" sendOutputID="0" slotIndex="9">
            <component componentGuid="738c56e9-4bdb-4e7b-a756-b138c090595b" id="sendComponent" powered="false">
              <parameter index="0" name="Power On/Off" parameterValue="0"/>
              <parameter index="1" name="Level" parameterValue="0"/>
            </component>
            <component id="sendPan" powered="true"/>
          </sendSlot>
          <sendSlot preFader="false" sendOutputID="0" slotIndex="10">
            <component componentGuid="56f797b8-5122-4f86-8b12-573e4c4ea2fb" id="sendComponent" powered="false">
              <parameter index="0" name="Power On/Off" parameterValue="0"/>
              <parameter index="1" name="Level" parameterValue="0"/>
            </component>
            <component id="sendPan" powered="true"/>
          </sendSlot>
          <sendSlot preFader="false" sendOutputID="0" slotIndex="11">
            <component componentGuid="1064c722-9a16-4dd3-baae-c41fa4f893b2" id="sendComponent" powered="false">
              <parameter index="0" name="Power On/Off" parameterValue="0"/>
              <parameter index="1" name="Level" parameterValue="0"/>
            </component>
            <component id="sendPan" powered="true"/>
          </sendSlot>
          <sendSlot preFader="false" sendOutputID="0" slotIndex="12">
            <component componentGuid="fa635dae-09f8-488b-a942-98f15a56ae0f" id="sendComponent" powered="false">
              <parameter index="0" name="Power On/Off" parameterValue="0"/>
              <parameter index="1" name="Level" parameterValue="0"/>
            </component>
            <component id="sendPan" powered="true"/>
          </sendSlot>
          <sendSlot preFader="false" sendOutputID="0" slotIndex="13">
            <component componentGuid="7b85e202-1226-4906-8741-3f722f058ed4" id="sendComponent" powered="false">
              <parameter index="0" name="Power On/Off" parameterValue="0"/>
              <parameter index="1" name="Level" parameterValue="0"/>
            </component>
            <component id="sendPan" powered="true"/>
          </sendSlot>
          <sendSlot preFader="false" sendOutputID="0" slotIndex="14">
            <component componentGuid="5587d48f-51da-4dbe-ae47-f5bea8aab39b" id="sendComponent" powered="false">
              <parameter index="0" name="Power On/Off" parameterValue="0"/>
              <parameter index="1" name="Level" parameterValue="0"/>
            </component>
            <component id="sendPan" powered="true"/>
          </sendSlot>
          <sendSlot preFader="false" sendOutputID="0" slotIndex="15">
            <component componentGuid="fae59342-d771-4257-ad08-7167517b27e3" id="sendComponent" powered="false">
              <parameter index="0" name="Power On/Off" parameterValue="0"/>
              <parameter index="1" name="Level" parameterValue="0"/>
            </component>
            <component id="sendPan" powered="true"/>
          </sendSlot>
        </sendList>
        <audioClip clipAutoCrossfade="true" crossFadeHeadClipID="-1" crossFadeTailClipID="3" endPoint="1353571" fileID="15" hue="-1" id="0" lockedInTime="false" looped="false" name="Track 1_031" offline="false" select="false" sourceInPoint="44223" sourceOutPoint="1397794" startPoint="0" zOrder="135">
          <component componentGuid="2ab03fb1-be7e-4386-8973-26fdd7c422d9" componentID="Audition.Fader" id="clipGain" name="volume" powered="true">
            <parameter index="0" name="volume" parameterValue="1"/>
            <parameter index="1" name="static gain" parameterValue="1"/>
          </component>
          <component componentGuid="4537a96f-67bb-4339-bc9c-604cb13ffba7" componentID="Audition.Mute" id="clipMute" name="Mute" powered="true">
            <parameter index="0" parameterValue="0"/>
            <parameter index="1" name="mute" parameterValue="0"/>
          </component>
          <component id="clipPan" powered="true"/>
          <fadeIn crossFadeLinkType="linkedAsymmetric" endPoint="0" shape="0" startPoint="0" type="cosine"/>
          <fadeOut crossFadeLinkType="linkedAsymmetric" endPoint="1353571" shape="18" startPoint="1248578" type="log"/>
          <take sourceInPoint="0"/>
          <editParameter parameterIndex="0" slotIndex="4294967280"/>
          <channelMap>
            <channel index="0" sourceIndex="0"/>
          </channelMap>
        </audioClip>
        <audioClip clipAutoCrossfade="true" crossFadeHeadClipID="-1" crossFadeTailClipID="-1" endPoint="1113423" fileID="19" hue="-1" id="1" lockedInTime="false" looped="false" name="Track 1_035" offline="false" select="true" sourceInPoint="75555" sourceOutPoint="911942" startPoint="277036" zOrder="155">
          <component componentGuid="72e53eca-f294-447d-8a45-198c252721c8" componentID="Audition.Fader" id="clipGain" name="volume" powered="true">
            <parameter index="0" name="volume" parameterValue="1"/>
            <parameter index="1" name="static gain" parameterValue="1"/>
          </component>
          <component componentGuid="0e7f1adf-c315-48b4-ad7d-910032bd3797" componentID="Audition.Mute" id="clipMute" name="Mute" powered="true">
            <parameter index="0" parameterValue="0"/>
            <parameter index="1" name="mute" parameterValue="0"/>
          </component>
          <component id="clipPan" powered="true"/>
          <fadeIn crossFadeLinkType="linkedAsymmetric" endPoint="0" shape="0" startPoint="0" type="cosine"/>
          <fadeOut crossFadeLinkType="linkedAsymmetric" endPoint="836387" shape="0" startPoint="836387" type="cosine"/>
          <take sourceInPoint="0"/>
          <editParameter parameterIndex="0" slotIndex="4294967280"/>
          <channelMap>
            <channel index="0" sourceIndex="0"/>
          </channelMap>
        </audioClip>
        <audioClip clipAutoCrossfade="true" crossFadeHeadClipID="-1" crossFadeTailClipID="-1" endPoint="1323000" fileID="20" hue="-1" id="2" lockedInTime="false" looped="false" name="Track 1_038" offline="false" select="false" sourceInPoint="44074" sourceOutPoint="274657" startPoint="1092417" zOrder="154">
          <component componentGuid="4449a6ad-5122-4531-9180-f7c0b5850d72" componentID="Audition.Fader" id="clipGain" name="volume" powered="true">
            <parameter index="0" name="volume" parameterValue="1"/>
            <parameter index="1" name="static gain" parameterValue="1"/>
          </component>
          <component componentGuid="e51abf8b-5f46-413f-bcfb-6867e3eb04ae" componentID="Audition.Mute" id="clipMute" name="Mute" powered="true">
            <parameter index="0" parameterValue="0"/>
            <parameter index="1" name="mute" parameterValue="0"/>
          </component>
          <component id="clipPan" powered="true"/>
          <fadeIn crossFadeLinkType="linkedAsymmetric" endPoint="0" shape="0" startPoint="0" type="cosine"/>
          <fadeOut crossFadeLinkType="linkedAsymmetric" endPoint="230583" shape="0" startPoint="230583" type="cosine"/>
          <take sourceInPoint="0"/>
          <editParameter parameterIndex="0" slotIndex="4294967280"/>
          <channelMap>
            <channel index="0" sourceIndex="0"/>
          </channelMap>
        </audioClip>
        <audioClip clipAutoCrossfade="true" crossFadeHeadClipID="0" crossFadeTailClipID="4" endPoint="1627067" fileID="18" hue="-1" id="3" lockedInTime="false" looped="false" name="Track 1_034" offline="false" select="false" sourceInPoint="47222" sourceOutPoint="425711" startPoint="1248578" zOrder="146">
          <component componentGuid="a4354870-3d3f-44d8-a698-66aeafe4338a" componentID="Audition.Fader" id="clipGain" name="volume" powered="true">
            <parameter index="0" name="volume" parameterValue="1"/>
            <parameter index="1" name="static gain" parameterValue="1"/>
          </component>
          <component componentGuid="c2c0562f-239b-4d12-8706-5c63b332a73a" componentID="Audition.Mute" id="clipMute" name="Mute" powered="true">
            <parameter index="0" parameterValue="0"/>
            <parameter index="1" name="mute" parameterValue="0"/>
          </component>
          <component id="clipPan" powered="true"/>
          <fadeIn crossFadeLinkType="linkedAsymmetric" endPoint="104993" shape="19" startPoint="0" type="log"/>
          <fadeOut crossFadeLinkType="linkedAsymmetric" endPoint="378489" shape="19" startPoint="373780" type="log"/>
          <take sourceInPoint="0"/>
          <editParameter parameterIndex="0" slotIndex="4294967280"/>
          <channelMap>
            <channel index="0" sourceIndex="0"/>
          </channelMap>
        </audioClip>
        <audioClip clipAutoCrossfade="true" crossFadeHeadClipID="3" crossFadeTailClipID="-1" endPoint="2066512" fileID="16" hue="-1" id="4" lockedInTime="false" looped="false" name="Track 1_032" offline="false" select="false" sourceInPoint="44100" sourceOutPoint="488254" startPoint="1622358" zOrder="140">
          <component componentGuid="a93da817-f231-4404-ae0e-6564a92268bc" componentID="Audition.Fader" id="clipGain" name="volume" powered="true">
            <parameter index="0" name="volume" parameterValue="1"/>
            <parameter index="1" name="static gain" parameterValue="1"/>
          </component>
          <component componentGuid="7546c609-e409-42c3-b3c1-c2056d06d0a8" componentID="Audition.Mute" id="clipMute" name="Mute" powered="true">
            <parameter index="0" parameterValue="0"/>
            <parameter index="1" name="mute" parameterValue="0"/>
          </component>
          <component id="clipPan" powered="true"/>
          <fadeIn crossFadeLinkType="linkedAsymmetric" endPoint="4709" shape="18" startPoint="0" type="log"/>
          <fadeOut crossFadeLinkType="linkedAsymmetric" endPoint="444154" shape="0" startPoint="444154" type="cosine"/>
          <take sourceInPoint="0"/>
          <editParameter parameterIndex="0" slotIndex="4294967280"/>
          <channelMap>
            <channel index="0" sourceIndex="0"/>
          </channelMap>
        </audioClip>
        <audioClip clipAutoCrossfade="true" crossFadeHeadClipID="-1" crossFadeTailClipID="-1" endPoint="2658189" fileID="17" hue="-1" id="5" lockedInTime="false" looped="false" name="Track 1_033" offline="false" select="false" sourceInPoint="21869" sourceOutPoint="583395" startPoint="2096663" zOrder="143">
          <component componentGuid="46ef67d0-f8be-470f-9ada-de181dfe8f41" componentID="Audition.Fader" id="clipGain" name="volume" powered="true">
            <parameter index="0" name="volume" parameterValue="1"/>
            <parameter index="1" name="static gain" parameterValue="1"/>
          </component>
          <component componentGuid="6ff1da7d-5dcf-4c94-817e-de30fe707fe4" componentID="Audition.Mute" id="clipMute" name="Mute" powered="true">
            <parameter index="0" parameterValue="0"/>
            <parameter index="1" name="mute" parameterValue="0"/>
          </component>
          <component id="clipPan" powered="true"/>
          <fadeIn crossFadeLinkType="linkedAsymmetric" endPoint="0" shape="0" startPoint="0" type="cosine"/>
          <fadeOut crossFadeLinkType="linkedAsymmetric" endPoint="561526" shape="0" startPoint="561526" type="cosine"/>
          <take sourceInPoint="0"/>
          <editParameter parameterIndex="0" slotIndex="4294967280"/>
          <channelMap>
            <channel index="0" sourceIndex="0"/>
          </channelMap>
        </audioClip>
      </audioTrack>
      <audioTrack automationLaneOpenState="false" id="10006" index="6" select="false" visible="true">
        <trackParameters trackHeight="52" trackHue="252.1598768234252645" trackMinimized="false">
          <name>Track 6</name>
        </trackParameters>
        <trackAudioParameters audioChannelType="mono" automationMode="1" monitoring="false" recordArmed="false" solo="false" soloSafe="false">
          <trackOutput outputID="10000" type="trackID"/>
          <trackInput inputID="1"/>
          <component componentGuid="6518d046-2a0d-4023-9eb9-82b1783d78b5" componentID="Audition.Fader" id="trackFader" name="volume" powered="true">
            <parameter index="0" name="volume" parameterValue="1"/>
            <parameter index="1" name="static gain" parameterValue="1"/>
          </component>
          <component componentGuid="764636fb-1684-4124-a7d7-8213fdb69462" componentID="Audition.Mute" id="trackMute" name="Mute" powered="true">
            <parameter index="0" parameterValue="0"/>
            <parameter index="1" name="mute" parameterValue="1"/>
          </component>
          <component componentGuid="7db8375c-5ed6-4656-a41b-c11ef32f7943" componentID="Audition.StereoPanner" id="trackPan" name="StereoPanner" powered="true">
            <parameter index="0" name="Pan" parameterValue="0"/>
          </component>
          <component componentGuid="1b4a923d-62dc-4193-b938-f5d3f52cce4d" componentID="Audition.EQ" id="trackEQ" name="EQ" powered="false">
            <parameter index="0" name="Low Shelf Frequency" parameterValue="0.0009079"/>
            <parameter index="1" name="Low Shelf Gain" parameterValue="0.5"/>
            <parameter index="2" name="High Shelf Frequency" parameterValue="0.8161598"/>
            <parameter index="3" name="High Shelf Gain" parameterValue="0.5"/>
            <parameter index="4" name="EQ Band 1 Center Frequency" parameterValue="0.0013618"/>
            <parameter index="5" name="EQ Band 1 Q" parameterValue="0.0002"/>
            <parameter index="6" name="EQ Band 1 Gain" parameterValue="0.5"/>
            <parameter index="7" name="EQ Band 1 Enable" parameterValue="1"/>
            <parameter index="8" name="EQ Band 2 Center Frequency" parameterValue="0.0081707"/>
            <parameter index="9" name="EQ Band 2 Q" parameterValue="0.0002"/>
            <parameter index="10" name="EQ Band 2 Gain" parameterValue="0.5"/>
            <parameter index="11" name="EQ Band 2 Enable" parameterValue="1"/>
            <parameter index="12" name="EQ Band 3 Center Frequency" parameterValue="0.0354063"/>
            <parameter index="13" name="EQ Band 3 Q" parameterValue="0.0002"/>
            <parameter index="14" name="EQ Band 3 Gain" parameterValue="0.5"/>
            <parameter index="15" name="EQ Band 3 Enable" parameterValue="1"/>
            <parameter index="16" name="EQ Band 4 Center Frequency" parameterValue="0.1443486"/>
            <parameter index="17" name="EQ Band 4 Q" parameterValue="0.0002"/>
            <parameter index="18" name="EQ Band 4 Gain" parameterValue="0.5"/>
            <parameter index="19" name="EQ Band 4 Enable" parameterValue="1"/>
            <parameter index="20" name="EQ Band 5 Center Frequency" parameterValue="0.580118"/>
            <parameter index="21" name="EQ Band 5 Q" parameterValue="0.0002"/>
            <parameter index="22" name="EQ Band 5 Gain" parameterValue="0.5"/>
            <parameter index="23" name="EQ Band 5 Enable" parameterValue="1"/>
            <parameter index="24" name="Master Gain" parameterValue="0.6666667"/>
            <parameter index="25" name="ConstantQ" parameterValue="1"/>
            <parameter index="26" name="Low Shelf Filter Order" parameterValue="0"/>
            <parameter index="27" name="High Shelf Filter Order" parameterValue="0"/>
            <parameter index="28" name="Ultra-Quiet Mode" parameterValue="0"/>
            <parameter index="29" name="Low Shelf Enable" parameterValue="1"/>
            <parameter index="30" name="High Shelf Enable" parameterValue="1"/>
            <parameter index="31" name="Original Sample Rate" parameterValue="0.2296875"/>
            <parameter index="32" name="EQ Band 1 Bandwidth" parameterValue="0.0025"/>
            <parameter index="33" name="EQ Band 2 Bandwidth" parameterValue="0.01"/>
            <parameter index="34" name="EQ Band 3 Bandwidth" parameterValue="0.04"/>
            <parameter index="35" name="EQ Band 4 Bandwidth" parameterValue="0.16"/>
            <parameter index="36" name="EQ Band 5 Bandwidth" parameterValue="0.64"/>
            <parameter index="37" name="High-Pass Filter Enable" parameterValue="0"/>
            <parameter index="38" name="High-Pass Cutoff Frequency" parameterValue="0"/>
            <parameter index="39" name="High-Pass Slope" parameterValue="0.4"/>
            <parameter index="40" name="Low-Pass Filter Enable" parameterValue="0"/>
            <parameter index="41" name="Low-Pass Cutoff Frequency" parameterValue="0.906945"/>
            <parameter index="42" name="Low-Pass Slope" parameterValue="0.4"/>
            <parameter index="43" name="Bypass" parameterValue="0"/>
            <parameter index="44" name="LowGraphRange" parameterValue="1"/>
          </component>
        </trackAudioParameters>
        <editParameter parameterIndex="0" slotIndex="4294967280"/>
        <sendList>
          <sendSlot preFader="false" sendOutputID="0" slotIndex="0">
            <component componentGuid="7069c0ad-c820-435e-9a35-0507851f4014" id="sendComponent" powered="false">
              <parameter index="0" name="Power On/Off" parameterValue="0"/>
              <parameter index="1" name="Level" parameterValue="0"/>
            </component>
            <component id="sendPan" powered="true"/>
          </sendSlot>
          <sendSlot preFader="false" sendOutputID="0" slotIndex="1">
            <component componentGuid="b9e19efa-ce44-4a3c-a819-e50870eb746c" id="sendComponent" powered="false">
              <parameter index="0" name="Power On/Off" parameterValue="0"/>
              <parameter index="1" name="Level" parameterValue="0"/>
            </component>
            <component id="sendPan" powered="true"/>
          </sendSlot>
          <sendSlot preFader="false" sendOutputID="0" slotIndex="2">
            <component componentGuid="b76527a3-cd7c-40e6-92f5-46309316de07" id="sendComponent" powered="false">
              <parameter index="0" name="Power On/Off" parameterValue="0"/>
              <parameter index="1" name="Level" parameterValue="0"/>
            </component>
            <component id="sendPan" powered="true"/>
          </sendSlot>
          <sendSlot preFader="false" sendOutputID="0" slotIndex="3">
            <component componentGuid="8c10075e-8968-42c1-ad4a-27c384abccd2" id="sendComponent" powered="false">
              <parameter index="0" name="Power On/Off" parameterValue="0"/>
              <parameter index="1" name="Level" parameterValue="0"/>
            </component>
            <component id="sendPan" powered="true"/>
          </sendSlot>
          <sendSlot preFader="false" sendOutputID="0" slotIndex="4">
            <component componentGuid="9f30dc5e-9169-429c-ab99-280a2de7d6c7" id="sendComponent" powered="false">
              <parameter index="0" name="Power On/Off" parameterValue="0"/>
              <parameter index="1" name="Level" parameterValue="0"/>
            </component>
            <component id="sendPan" powered="true"/>
          </sendSlot>
          <sendSlot preFader="false" sendOutputID="0" slotIndex="5">
            <component componentGuid="725ddf65-cb16-4037-9055-f2e37da52d34" id="sendComponent" powered="false">
              <parameter index="0" name="Power On/Off" parameterValue="0"/>
              <parameter index="1" name="Level" parameterValue="0"/>
            </component>
            <component id="sendPan" powered="true"/>
          </sendSlot>
          <sendSlot preFader="false" sendOutputID="0" slotIndex="6">
            <component componentGuid="aca58e5b-9794-4402-9897-3825b6e66ee5" id="sendComponent" powered="false">
              <parameter index="0" name="Power On/Off" parameterValue="0"/>
              <parameter index="1" name="Level" parameterValue="0"/>
            </component>
            <component id="sendPan" powered="true"/>
          </sendSlot>
          <sendSlot preFader="false" sendOutputID="0" slotIndex="7">
            <component componentGuid="caf475b6-3706-4247-94dc-f56f256f48db" id="sendComponent" powered="false">
              <parameter index="0" name="Power On/Off" parameterValue="0"/>
              <parameter index="1" name="Level" parameterValue="0"/>
            </component>
            <component id="sendPan" powered="true"/>
          </sendSlot>
          <sendSlot preFader="false" sendOutputID="0" slotIndex="8">
            <component componentGuid="cf9c0e2a-aac6-4f37-8bba-5b9f1b6f0b65" id="sendComponent" powered="false">
              <parameter index="0" name="Power On/Off" parameterValue="0"/>
              <parameter index="1" name="Level" parameterValue="0"/>
            </component>
            <component id="sendPan" powered="true"/>
          </sendSlot>
          <sendSlot preFader="false" sendOutputID="0" slotIndex="9">
            <component componentGuid="78491542-7520-4eae-9929-2a733afee903" id="sendComponent" powered="false">
              <parameter index="0" name="Power On/Off" parameterValue="0"/>
              <parameter index="1" name="Level" parameterValue="0"/>
            </component>
            <component id="sendPan" powered="true"/>
          </sendSlot>
          <sendSlot preFader="false" sendOutputID="0" slotIndex="10">
            <component componentGuid="3364b17d-a576-4139-a714-9b0373f0a044" id="sendComponent" powered="false">
              <parameter index="0" name="Power On/Off" parameterValue="0"/>
              <parameter index="1" name="Level" parameterValue="0"/>
            </component>
            <component id="sendPan" powered="true"/>
          </sendSlot>
          <sendSlot preFader="false" sendOutputID="0" slotIndex="11">
            <component componentGuid="5b7adb03-b88c-4c0b-9f5b-ce4e38d21bc0" id="sendComponent" powered="false">
              <parameter index="0" name="Power On/Off" parameterValue="0"/>
              <parameter index="1" name="Level" parameterValue="0"/>
            </component>
            <component id="sendPan" powered="true"/>
          </sendSlot>
          <sendSlot preFader="false" sendOutputID="0" slotIndex="12">
            <component componentGuid="4d73a07e-a18a-41c7-b184-054cfbd21851" id="sendComponent" powered="false">
              <parameter index="0" name="Power On/Off" parameterValue="0"/>
              <parameter index="1" name="Level" parameterValue="0"/>
            </component>
            <component id="sendPan" powered="true"/>
          </sendSlot>
          <sendSlot preFader="false" sendOutputID="0" slotIndex="13">
            <component componentGuid="b24be22c-1efc-46cb-9029-4ef857a2890b" id="sendComponent" powered="false">
              <parameter index="0" name="Power On/Off" parameterValue="0"/>
              <parameter index="1" name="Level" parameterValue="0"/>
            </component>
            <component id="sendPan" powered="true"/>
          </sendSlot>
          <sendSlot preFader="false" sendOutputID="0" slotIndex="14">
            <component componentGuid="0016aaf8-ea2e-4070-8aba-01d0e0d07cb2" id="sendComponent" powered="false">
              <parameter index="0" name="Power On/Off" parameterValue="0"/>
              <parameter index="1" name="Level" parameterValue="0"/>
            </component>
            <component id="sendPan" powered="true"/>
          </sendSlot>
          <sendSlot preFader="false" sendOutputID="0" slotIndex="15">
            <component componentGuid="04c0bd58-d495-4de3-898d-636715b70324" id="sendComponent" powered="false">
              <parameter index="0" name="Power On/Off" parameterValue="0"/>
              <parameter index="1" name="Level" parameterValue="0"/>
            </component>
            <component id="sendPan" powered="true"/>
          </sendSlot>
        </sendList>
        <audioClip clipAutoCrossfade="true" crossFadeHeadClipID="-1" crossFadeTailClipID="2" endPoint="797901" fileID="21" hue="-1" id="0" lockedInTime="false" looped="false" name="Track 1_039" offline="false" select="false" sourceInPoint="44100" sourceOutPoint="842001" startPoint="0" zOrder="165">
          <component componentGuid="af3b6cfe-5b50-45d7-aee0-ea8276235022" componentID="Audition.Fader" id="clipGain" name="volume" powered="true">
            <parameter index="0" name="volume" parameterValue="1"/>
            <parameter index="1" name="static gain" parameterValue="1"/>
          </component>
          <component componentGuid="66a4b56f-9515-4f53-a65d-3db562d14602" componentID="Audition.Mute" id="clipMute" name="Mute" powered="true">
            <parameter index="0" parameterValue="0"/>
            <parameter index="1" name="mute" parameterValue="0"/>
          </component>
          <component id="clipPan" powered="true"/>
          <fadeIn crossFadeLinkType="linkedAsymmetric" endPoint="0" shape="0" startPoint="0" type="cosine"/>
          <fadeOut crossFadeLinkType="linkedAsymmetric" endPoint="797901" shape="18" startPoint="793800" type="log"/>
          <take sourceInPoint="0"/>
          <editParameter parameterIndex="0" slotIndex="4294967280"/>
          <channelMap>
            <channel index="0" sourceIndex="0"/>
          </channelMap>
        </audioClip>
        <audioClip clipAutoCrossfade="true" crossFadeHeadClipID="-1" crossFadeTailClipID="-1" endPoint="393379" fileID="23" hue="-1" id="1" lockedInTime="false" looped="false" name="Track 1_041" offline="false" select="false" sourceInPoint="33580" sourceOutPoint="176400" startPoint="250559" zOrder="168">
          <component componentGuid="639c4741-58e4-4ca8-a503-3a199a3fb644" componentID="Audition.Fader" id="clipGain" name="volume" powered="true">
            <parameter index="0" name="volume" parameterValue="1"/>
            <parameter index="1" name="static gain" parameterValue="1"/>
          </component>
          <component componentGuid="bd564690-9727-4870-9328-d99b74a5862f" componentID="Audition.Mute" id="clipMute" name="Mute" powered="true">
            <parameter index="0" parameterValue="0"/>
            <parameter index="1" name="mute" parameterValue="0"/>
          </component>
          <component id="clipPan" powered="true"/>
          <fadeIn crossFadeLinkType="linkedAsymmetric" endPoint="0" shape="0" startPoint="0" type="cosine"/>
          <fadeOut crossFadeLinkType="linkedAsymmetric" endPoint="142820" shape="0" startPoint="142820" type="cosine"/>
          <take sourceInPoint="0"/>
          <editParameter parameterIndex="0" slotIndex="4294967280"/>
          <channelMap>
            <channel index="0" sourceIndex="0"/>
          </channelMap>
        </audioClip>
        <audioClip clipAutoCrossfade="true" crossFadeHeadClipID="0" crossFadeTailClipID="-1" endPoint="1530846" fileID="22" hue="-1" id="2" lockedInTime="false" looped="false" name="Track 1_040" offline="false" select="false" sourceInPoint="30427" sourceOutPoint="767473" startPoint="793800" zOrder="163">
          <component componentGuid="e47fef48-de9b-4af6-b7f7-010cc779085a" componentID="Audition.Fader" id="clipGain" name="volume" powered="true">
            <parameter index="0" name="volume" parameterValue="1"/>
            <parameter index="1" name="static gain" parameterValue="1"/>
          </component>
          <component componentGuid="00f602ec-406b-4068-930e-7ecb1aad1681" componentID="Audition.Mute" id="clipMute" name="Mute" powered="true">
            <parameter index="0" parameterValue="0"/>
            <parameter index="1" name="mute" parameterValue="0"/>
          </component>
          <component id="clipPan" powered="true"/>
          <fadeIn crossFadeLinkType="linkedAsymmetric" endPoint="4101" shape="19" startPoint="0" type="log"/>
          <fadeOut crossFadeLinkType="linkedAsymmetric" endPoint="737046" shape="0" startPoint="737046" type="cosine"/>
          <take sourceInPoint="0"/>
          <editParameter parameterIndex="0" slotIndex="4294967280"/>
          <channelMap>
            <channel index="0" sourceIndex="0"/>
          </channelMap>
        </audioClip>
        <audioClip clipAutoCrossfade="true" crossFadeHeadClipID="-1" crossFadeTailClipID="-1" endPoint="2224059" fileID="24" hue="-1" id="3" lockedInTime="false" looped="false" name="Track 1_043" offline="false" select="false" sourceInPoint="22989" sourceOutPoint="716202" startPoint="1530846" zOrder="179">
          <component componentGuid="35dd4d1b-af3b-4f22-ba1a-d8b55c95828a" componentID="Audition.Fader" id="clipGain" name="volume" powered="true">
            <parameter index="0" name="volume" parameterValue="1"/>
            <parameter index="1" name="static gain" parameterValue="1"/>
          </component>
          <component componentGuid="027db52b-b053-41b0-a1de-cba39a48b255" componentID="Audition.Mute" id="clipMute" name="Mute" powered="true">
            <parameter index="0" parameterValue="0"/>
            <parameter index="1" name="mute" parameterValue="0"/>
          </component>
          <component id="clipPan" powered="true"/>
          <fadeIn crossFadeLinkType="linkedAsymmetric" endPoint="0" shape="0" startPoint="0" type="cosine"/>
          <fadeOut crossFadeLinkType="linkedAsymmetric" endPoint="693213" shape="0" startPoint="693213" type="cosine"/>
          <take sourceInPoint="0"/>
          <editParameter parameterIndex="0" slotIndex="4294967280"/>
          <channelMap>
            <channel index="0" sourceIndex="0"/>
          </channelMap>
        </audioClip>
      </audioTrack>
      <masterTrack automationLaneOpenState="false" id="10000" index="7" select="false" visible="true">
        <trackParameters trackHeight="52" trackHue="-1" trackMinimized="false">
          <name>Master</name>
        </trackParameters>
        <trackAudioParameters audioChannelType="mono" automationMode="1" monitoring="false" recordArmed="false" solo="false" soloSafe="true">
          <trackOutput outputID="1" type="hardwareOutput"/>
          <trackInput inputID="-1"/>
          <component componentGuid="7eddbddb-a56d-4d8a-9568-b9fe9ed44840" componentID="Audition.Fader" id="trackFader" name="volume" powered="true">
            <parameter index="0" name="volume" parameterValue="1"/>
            <parameter index="1" name="static gain" parameterValue="1"/>
          </component>
          <component componentGuid="9b33f531-746b-43d0-902b-424dae82a247" componentID="Audition.Mute" id="trackMute" name="Mute" powered="true">
            <parameter index="0" parameterValue="0"/>
            <parameter index="1" name="mute" parameterValue="0"/>
          </component>
          <component componentGuid="b5909a25-df16-498f-9235-8487ccf6bcd8" componentID="Audition.StereoPanner" id="trackPan" name="StereoPanner" powered="true">
            <parameter index="0" name="Pan" parameterValue="0"/>
          </component>
          <component componentGuid="1c205918-d7c2-4985-b107-ddc451969963" componentID="Audition.EQ" id="trackEQ" name="EQ" powered="false">
            <parameter index="0" name="Low Shelf Frequency" parameterValue="0.0009079"/>
            <parameter index="1" name="Low Shelf Gain" parameterValue="0.5"/>
            <parameter index="2" name="High Shelf Frequency" parameterValue="0.8161598"/>
            <parameter index="3" name="High Shelf Gain" parameterValue="0.5"/>
            <parameter index="4" name="EQ Band 1 Center Frequency" parameterValue="0.0013618"/>
            <parameter index="5" name="EQ Band 1 Q" parameterValue="0.0002"/>
            <parameter index="6" name="EQ Band 1 Gain" parameterValue="0.5"/>
            <parameter index="7" name="EQ Band 1 Enable" parameterValue="1"/>
            <parameter index="8" name="EQ Band 2 Center Frequency" parameterValue="0.0081707"/>
            <parameter index="9" name="EQ Band 2 Q" parameterValue="0.0002"/>
            <parameter index="10" name="EQ Band 2 Gain" parameterValue="0.5"/>
            <parameter index="11" name="EQ Band 2 Enable" parameterValue="1"/>
            <parameter index="12" name="EQ Band 3 Center Frequency" parameterValue="0.0354063"/>
            <parameter index="13" name="EQ Band 3 Q" parameterValue="0.0002"/>
            <parameter index="14" name="EQ Band 3 Gain" parameterValue="0.5"/>
            <parameter index="15" name="EQ Band 3 Enable" parameterValue="1"/>
            <parameter index="16" name="EQ Band 4 Center Frequency" parameterValue="0.1443486"/>
            <parameter index="17" name="EQ Band 4 Q" parameterValue="0.0002"/>
            <parameter index="18" name="EQ Band 4 Gain" parameterValue="0.5"/>
            <parameter index="19" name="EQ Band 4 Enable" parameterValue="1"/>
            <parameter index="20" name="EQ Band 5 Center Frequency" parameterValue="0.580118"/>
            <parameter index="21" name="EQ Band 5 Q" parameterValue="0.0002"/>
            <parameter index="22" name="EQ Band 5 Gain" parameterValue="0.5"/>
            <parameter index="23" name="EQ Band 5 Enable" parameterValue="1"/>
            <parameter index="24" name="Master Gain" parameterValue="0.6666667"/>
            <parameter index="25" name="ConstantQ" parameterValue="1"/>
            <parameter index="26" name="Low Shelf Filter Order" parameterValue="0"/>
            <parameter index="27" name="High Shelf Filter Order" parameterValue="0"/>
            <parameter index="28" name="Ultra-Quiet Mode" parameterValue="0"/>
            <parameter index="29" name="Low Shelf Enable" parameterValue="1"/>
            <parameter index="30" name="High Shelf Enable" parameterValue="1"/>
            <parameter index="31" name="Original Sample Rate" parameterValue="0.2296875"/>
            <parameter index="32" name="EQ Band 1 Bandwidth" parameterValue="0.0025"/>
            <parameter index="33" name="EQ Band 2 Bandwidth" parameterValue="0.01"/>
            <parameter index="34" name="EQ Band 3 Bandwidth" parameterValue="0.04"/>
            <parameter index="35" name="EQ Band 4 Bandwidth" parameterValue="0.16"/>
            <parameter index="36" name="EQ Band 5 Bandwidth" parameterValue="0.64"/>
            <parameter index="37" name="High-Pass Filter Enable" parameterValue="0"/>
            <parameter index="38" name="High-Pass Cutoff Frequency" parameterValue="0"/>
            <parameter index="39" name="High-Pass Slope" parameterValue="0.4"/>
            <parameter index="40" name="Low-Pass Filter Enable" parameterValue="0"/>
            <parameter index="41" name="Low-Pass Cutoff Frequency" parameterValue="0.906945"/>
            <parameter index="42" name="Low-Pass Slope" parameterValue="0.4"/>
            <parameter index="43" name="Bypass" parameterValue="0"/>
            <parameter index="44" name="LowGraphRange" parameterValue="1"/>
          </component>
        </trackAudioParameters>
        <editParameter parameterIndex="0" slotIndex="4294967280"/>
      </masterTrack>
    </tracks>
    <sessionState ctiPosition="312214" smpteStart="0">
      <selectionState selectionDuration="1019312" selectionStart="12915"/>
      <viewState horizontalViewDuration="1195967" horizontalViewStart="0" trackControlsWidth="242" verticalScrollOffset="0"/>
      <timeFormatState beatsPerBar="4" beatsPerMinute="120" customFrameRate="12" linkToDefaultTimeSettings="true" noteLength="4" subdivisions="16" timeCodeDropFrame="false" timeCodeFrameRate="30" timeCodeNTSC="false" timeFormat="timeFormatDecimal"/>
      <mixingOptionState defaultPanModeLogarithmic="false" panPower="-3"/>
    </sessionState>
    <xmpMetadata><![CDATA[<?xpacket begin="﻿" id="W5M0MpCehiHzreSzNTczkc9d"?>
<x:xmpmeta xmlns:x="adobe:ns:meta/" x:xmptk="Adobe XMP Core 5.6-c140 79.160302, 2017/03/02-16:59:38        ">
   <rdf:RDF xmlns:rdf="http://www.w3.org/1999/02/22-rdf-syntax-ns#">
      <rdf:Description rdf:about=""
            xmlns:xmp="http://ns.adobe.com/xap/1.0/"
            xmlns:xmpMM="http://ns.adobe.com/xap/1.0/mm/"
            xmlns:stEvt="http://ns.adobe.com/xap/1.0/sType/ResourceEvent#"
            xmlns:stRef="http://ns.adobe.com/xap/1.0/sType/ResourceRef#"
            xmlns:dc="http://purl.org/dc/elements/1.1/"
            xmlns:xmpDM="http://ns.adobe.com/xmp/1.0/DynamicMedia/">
         <xmp:CreatorTool>Adobe Audition CC 2017.1 (Windows)</xmp:CreatorTool>
         <xmp:CreateDate>2018-05-11T23:23:44-04:00</xmp:CreateDate>
         <xmp:MetadataDate>2018-05-12T04:13:31-04:00</xmp:MetadataDate>
         <xmp:ModifyDate>2018-05-12T04:13:31-04:00</xmp:ModifyDate>
         <xmpMM:InstanceID>xmp.iid:f78de66e-e48e-4a44-acdb-512da212a9d5</xmpMM:InstanceID>
         <xmpMM:DocumentID>xmp.did:f78de66e-e48e-4a44-acdb-512da212a9d5</xmpMM:DocumentID>
         <xmpMM:OriginalDocumentID>xmp.did:839d1595-68ee-6843-b49a-eb0a636c78dc</xmpMM:OriginalDocumentID>
         <xmpMM:History>
            <rdf:Seq>
               <rdf:li rdf:parseType="Resource">
                  <stEvt:action>saved</stEvt:action>
                  <stEvt:instanceID>xmp.iid:839d1595-68ee-6843-b49a-eb0a636c78dc</stEvt:instanceID>
                  <stEvt:when>2018-05-11T23:23:44-04:00</stEvt:when>
                  <stEvt:softwareAgent>Adobe Audition CC 2017.1 (Windows)</stEvt:softwareAgent>
                  <stEvt:changed>/metadata</stEvt:changed>
               </rdf:li>
               <rdf:li rdf:parseType="Resource">
                  <stEvt:action>saved</stEvt:action>
                  <stEvt:instanceID>xmp.iid:a9b9f91f-4f31-9e4b-883f-a480c4762d9c</stEvt:instanceID>
                  <stEvt:when>2018-05-12T04:13:31-04:00</stEvt:when>
                  <stEvt:softwareAgent>Adobe Audition CC 2017.1 (Windows)</stEvt:softwareAgent>
                  <stEvt:changed>/metadata</stEvt:changed>
               </rdf:li>
               <rdf:li rdf:parseType="Resource">
                  <stEvt:action>saved</stEvt:action>
                  <stEvt:instanceID>xmp.iid:f78de66e-e48e-4a44-acdb-512da212a9d5</stEvt:instanceID>
                  <stEvt:when>2018-05-12T04:13:31-04:00</stEvt:when>
                  <stEvt:softwareAgent>Adobe Audition CC 2017.1 (Windows)</stEvt:softwareAgent>
                  <stEvt:changed>/</stEvt:changed>
               </rdf:li>
            </rdf:Seq>
         </xmpMM:History>
         <xmpMM:DerivedFrom rdf:parseType="Resource">
            <stRef:instanceID>xmp.iid:a9b9f91f-4f31-9e4b-883f-a480c4762d9c</stRef:instanceID>
            <stRef:documentID>xmp.did:839d1595-68ee-6843-b49a-eb0a636c78dc</stRef:documentID>
            <stRef:originalDocumentID>xmp.did:839d1595-68ee-6843-b49a-eb0a636c78dc</stRef:originalDocumentID>
         </xmpMM:DerivedFrom>
         <dc:format>application/xml</dc:format>
         <xmpDM:Tracks>
            <rdf:Bag>
               <rdf:li rdf:parseType="Resource">
                  <xmpDM:trackName>CuePoint Markers</xmpDM:trackName>
                  <xmpDM:trackType>Cue</xmpDM:trackType>
                  <xmpDM:frameRate>f44100</xmpDM:frameRate>
               </rdf:li>
               <rdf:li rdf:parseType="Resource">
                  <xmpDM:trackName>CD Track Markers</xmpDM:trackName>
                  <xmpDM:trackType>Track</xmpDM:trackType>
                  <xmpDM:frameRate>f44100</xmpDM:frameRate>
               </rdf:li>
               <rdf:li rdf:parseType="Resource">
                  <xmpDM:trackName>Subclip Markers</xmpDM:trackName>
                  <xmpDM:trackType>InOut</xmpDM:trackType>
                  <xmpDM:frameRate>f44100</xmpDM:frameRate>
               </rdf:li>
            </rdf:Bag>
         </xmpDM:Tracks>
      </rdf:Description>
   </rdf:RDF>
</x:xmpmeta>
                                                                                                    
                                                                                                    
                                                                                                    
                                                                                                    
                                                                                                    
                                                                                                    
                                                                                                    
                                                                                                    
                                                                                                    
                                                                                                    
                                                                                                    
                                                                                                    
                                                                                                    
                                                                                                    
                                                                                                    
                                                                                                    
                                                                                                    
                                                                                                    
                                                                                                    
                                                                                                    
                           
<?xpacket end="w"?>]]></xmpMetadata>
    <clipGroups/>
    <metronome enabled="false" pattern="downBeat subdivision subdivision subdivision " soundSet="sticks">
      <metronomeTrack automationLaneOpenState="false" id="40000" index="0" select="false" visible="false">
        <trackParameters trackHeight="77" trackHue="-1" trackMinimized="false">
          <name>Metronome</name>
        </trackParameters>
        <trackAudioParameters audioChannelType="mono" automationMode="1" monitoring="false" recordArmed="false" solo="false" soloSafe="true">
          <trackOutput outputID="10000" type="trackID"/>
          <trackInput inputID="-1"/>
          <component componentGuid="0a526314-05d7-4aa7-a154-7a520dcb44b8" componentID="Audition.Fader" id="trackFader" name="volume" powered="true">
            <parameter index="0" name="volume" parameterValue="0.5011872"/>
            <parameter index="1" name="static gain" parameterValue="1"/>
          </component>
          <component componentGuid="38868644-228a-4359-8e24-421b573b2718" componentID="Audition.Mute" id="trackMute" name="Mute" powered="true">
            <parameter index="0" parameterValue="0"/>
            <parameter index="1" name="mute" parameterValue="0"/>
          </component>
          <component componentGuid="8b954752-0923-430d-95d9-beb2450bac77" componentID="Audition.StereoPanner" id="trackPan" name="StereoPanner" powered="true">
            <parameter index="0" name="Pan" parameterValue="0"/>
          </component>
          <component componentGuid="10a89708-8db7-41af-8db8-b1c6eb759b1d" componentID="Audition.EQ" id="trackEQ" name="EQ" powered="false">
            <parameter index="0" name="Low Shelf Frequency" parameterValue="0.0009079"/>
            <parameter index="1" name="Low Shelf Gain" parameterValue="0.5"/>
            <parameter index="2" name="High Shelf Frequency" parameterValue="0.8161598"/>
            <parameter index="3" name="High Shelf Gain" parameterValue="0.5"/>
            <parameter index="4" name="EQ Band 1 Center Frequency" parameterValue="0.0013618"/>
            <parameter index="5" name="EQ Band 1 Q" parameterValue="0.0002"/>
            <parameter index="6" name="EQ Band 1 Gain" parameterValue="0.5"/>
            <parameter index="7" name="EQ Band 1 Enable" parameterValue="1"/>
            <parameter index="8" name="EQ Band 2 Center Frequency" parameterValue="0.0081707"/>
            <parameter index="9" name="EQ Band 2 Q" parameterValue="0.0002"/>
            <parameter index="10" name="EQ Band 2 Gain" parameterValue="0.5"/>
            <parameter index="11" name="EQ Band 2 Enable" parameterValue="1"/>
            <parameter index="12" name="EQ Band 3 Center Frequency" parameterValue="0.0354063"/>
            <parameter index="13" name="EQ Band 3 Q" parameterValue="0.0002"/>
            <parameter index="14" name="EQ Band 3 Gain" parameterValue="0.5"/>
            <parameter index="15" name="EQ Band 3 Enable" parameterValue="1"/>
            <parameter index="16" name="EQ Band 4 Center Frequency" parameterValue="0.1443486"/>
            <parameter index="17" name="EQ Band 4 Q" parameterValue="0.0002"/>
            <parameter index="18" name="EQ Band 4 Gain" parameterValue="0.5"/>
            <parameter index="19" name="EQ Band 4 Enable" parameterValue="1"/>
            <parameter index="20" name="EQ Band 5 Center Frequency" parameterValue="0.580118"/>
            <parameter index="21" name="EQ Band 5 Q" parameterValue="0.0002"/>
            <parameter index="22" name="EQ Band 5 Gain" parameterValue="0.5"/>
            <parameter index="23" name="EQ Band 5 Enable" parameterValue="1"/>
            <parameter index="24" name="Master Gain" parameterValue="0.6666667"/>
            <parameter index="25" name="ConstantQ" parameterValue="1"/>
            <parameter index="26" name="Low Shelf Filter Order" parameterValue="0"/>
            <parameter index="27" name="High Shelf Filter Order" parameterValue="0"/>
            <parameter index="28" name="Ultra-Quiet Mode" parameterValue="0"/>
            <parameter index="29" name="Low Shelf Enable" parameterValue="1"/>
            <parameter index="30" name="High Shelf Enable" parameterValue="1"/>
            <parameter index="31" name="Original Sample Rate" parameterValue="0.2296875"/>
            <parameter index="32" name="EQ Band 1 Bandwidth" parameterValue="0.0025"/>
            <parameter index="33" name="EQ Band 2 Bandwidth" parameterValue="0.01"/>
            <parameter index="34" name="EQ Band 3 Bandwidth" parameterValue="0.04"/>
            <parameter index="35" name="EQ Band 4 Bandwidth" parameterValue="0.16"/>
            <parameter index="36" name="EQ Band 5 Bandwidth" parameterValue="0.64"/>
            <parameter index="37" name="High-Pass Filter Enable" parameterValue="0"/>
            <parameter index="38" name="High-Pass Cutoff Frequency" parameterValue="0"/>
            <parameter index="39" name="High-Pass Slope" parameterValue="0.4"/>
            <parameter index="40" name="Low-Pass Filter Enable" parameterValue="0"/>
            <parameter index="41" name="Low-Pass Cutoff Frequency" parameterValue="0.906945"/>
            <parameter index="42" name="Low-Pass Slope" parameterValue="0.4"/>
            <parameter index="43" name="Bypass" parameterValue="0"/>
            <parameter index="44" name="LowGraphRange" parameterValue="1"/>
          </component>
        </trackAudioParameters>
        <editParameter parameterIndex="0" slotIndex="4294967280"/>
        <sendList>
          <sendSlot preFader="false" sendOutputID="0" slotIndex="0">
            <component componentGuid="6e52eb56-482c-41ea-bd68-6a147639e725" id="sendComponent" powered="false">
              <parameter index="0" name="Power On/Off" parameterValue="0"/>
              <parameter index="1" name="Level" parameterValue="0"/>
            </component>
            <component id="sendPan" powered="true"/>
          </sendSlot>
          <sendSlot preFader="false" sendOutputID="0" slotIndex="1">
            <component componentGuid="74d33a0c-ff08-43fa-885f-3ca2e9e0b73f" id="sendComponent" powered="false">
              <parameter index="0" name="Power On/Off" parameterValue="0"/>
              <parameter index="1" name="Level" parameterValue="0"/>
            </component>
            <component id="sendPan" powered="true"/>
          </sendSlot>
          <sendSlot preFader="false" sendOutputID="0" slotIndex="2">
            <component componentGuid="9d75c92f-cf4a-472e-96da-7a6dcc242fc4" id="sendComponent" powered="false">
              <parameter index="0" name="Power On/Off" parameterValue="0"/>
              <parameter index="1" name="Level" parameterValue="0"/>
            </component>
            <component id="sendPan" powered="true"/>
          </sendSlot>
          <sendSlot preFader="false" sendOutputID="0" slotIndex="3">
            <component componentGuid="7809bcf8-58f3-4e49-bf64-b4d2e10ba89c" id="sendComponent" powered="false">
              <parameter index="0" name="Power On/Off" parameterValue="0"/>
              <parameter index="1" name="Level" parameterValue="0"/>
            </component>
            <component id="sendPan" powered="true"/>
          </sendSlot>
          <sendSlot preFader="false" sendOutputID="0" slotIndex="4">
            <component componentGuid="904ac17f-84cf-4d2b-900d-888be73fb01a" id="sendComponent" powered="false">
              <parameter index="0" name="Power On/Off" parameterValue="0"/>
              <parameter index="1" name="Level" parameterValue="0"/>
            </component>
            <component id="sendPan" powered="true"/>
          </sendSlot>
          <sendSlot preFader="false" sendOutputID="0" slotIndex="5">
            <component componentGuid="3a1c1ab7-aa82-40e3-b94f-33b6df402953" id="sendComponent" powered="false">
              <parameter index="0" name="Power On/Off" parameterValue="0"/>
              <parameter index="1" name="Level" parameterValue="0"/>
            </component>
            <component id="sendPan" powered="true"/>
          </sendSlot>
          <sendSlot preFader="false" sendOutputID="0" slotIndex="6">
            <component componentGuid="a36851d1-7e61-4544-b2e4-559eb40a1e37" id="sendComponent" powered="false">
              <parameter index="0" name="Power On/Off" parameterValue="0"/>
              <parameter index="1" name="Level" parameterValue="0"/>
            </component>
            <component id="sendPan" powered="true"/>
          </sendSlot>
          <sendSlot preFader="false" sendOutputID="0" slotIndex="7">
            <component componentGuid="e0780316-7592-49c4-9651-cd08c2cc0710" id="sendComponent" powered="false">
              <parameter index="0" name="Power On/Off" parameterValue="0"/>
              <parameter index="1" name="Level" parameterValue="0"/>
            </component>
            <component id="sendPan" powered="true"/>
          </sendSlot>
          <sendSlot preFader="false" sendOutputID="0" slotIndex="8">
            <component componentGuid="d0e84a73-2900-4b39-850c-b2d7df762766" id="sendComponent" powered="false">
              <parameter index="0" name="Power On/Off" parameterValue="0"/>
              <parameter index="1" name="Level" parameterValue="0"/>
            </component>
            <component id="sendPan" powered="true"/>
          </sendSlot>
          <sendSlot preFader="false" sendOutputID="0" slotIndex="9">
            <component componentGuid="e3043c09-2ecd-493d-9314-c8621203a43d" id="sendComponent" powered="false">
              <parameter index="0" name="Power On/Off" parameterValue="0"/>
              <parameter index="1" name="Level" parameterValue="0"/>
            </component>
            <component id="sendPan" powered="true"/>
          </sendSlot>
          <sendSlot preFader="false" sendOutputID="0" slotIndex="10">
            <component componentGuid="259d9143-59b5-4375-8f47-e1cc0953fe71" id="sendComponent" powered="false">
              <parameter index="0" name="Power On/Off" parameterValue="0"/>
              <parameter index="1" name="Level" parameterValue="0"/>
            </component>
            <component id="sendPan" powered="true"/>
          </sendSlot>
          <sendSlot preFader="false" sendOutputID="0" slotIndex="11">
            <component componentGuid="94edd9f1-e86b-42b1-8751-915d58fdc177" id="sendComponent" powered="false">
              <parameter index="0" name="Power On/Off" parameterValue="0"/>
              <parameter index="1" name="Level" parameterValue="0"/>
            </component>
            <component id="sendPan" powered="true"/>
          </sendSlot>
          <sendSlot preFader="false" sendOutputID="0" slotIndex="12">
            <component componentGuid="ea03e299-4349-4336-bcf9-e5ac3c7ee618" id="sendComponent" powered="false">
              <parameter index="0" name="Power On/Off" parameterValue="0"/>
              <parameter index="1" name="Level" parameterValue="0"/>
            </component>
            <component id="sendPan" powered="true"/>
          </sendSlot>
          <sendSlot preFader="false" sendOutputID="0" slotIndex="13">
            <component componentGuid="3b1668d9-107f-47ee-a731-a65699174df9" id="sendComponent" powered="false">
              <parameter index="0" name="Power On/Off" parameterValue="0"/>
              <parameter index="1" name="Level" parameterValue="0"/>
            </component>
            <component id="sendPan" powered="true"/>
          </sendSlot>
          <sendSlot preFader="false" sendOutputID="0" slotIndex="14">
            <component componentGuid="09bdb197-5545-4d24-a9b9-f269170393f5" id="sendComponent" powered="false">
              <parameter index="0" name="Power On/Off" parameterValue="0"/>
              <parameter index="1" name="Level" parameterValue="0"/>
            </component>
            <component id="sendPan" powered="true"/>
          </sendSlot>
          <sendSlot preFader="false" sendOutputID="0" slotIndex="15">
            <component componentGuid="fcaa990d-eca5-4a21-a0fa-3e441fac1117" id="sendComponent" powered="false">
              <parameter index="0" name="Power On/Off" parameterValue="0"/>
              <parameter index="1" name="Level" parameterValue="0"/>
            </component>
            <component id="sendPan" powered="true"/>
          </sendSlot>
        </sendList>
      </metronomeTrack>
    </metronome>
    <properties>
      <property key="EssentialSoundConfigurations">[{"Guid":"a8b40e3e-13e7-4c1f-b382-96058f1f691d","Name":"$$$/app/Presets/DefaultPresetName=(Default)","PresetData":{"ModeID":"ambience","Models":{"model_loudness":{"DefaultLoudness":{"type":"float","value":-30},"LoudnessStandard":{"type":"std::uint32_t","value":0},"MaxLoudness":{"type":"float","value":-12},"MinLoudness":{"type":"float","value":-35}},"model_soundeffects":{"ReverbPresets":{"type":"tree::any","value":{"$$$/app/Presets/EssentialSound/ReverbPreset/LargeRoomAmbience=Large Room Ambience":{"type":"array::float","value":[0.051507499068975449,0.32432401180267334,0.29292899370193481,0.30000001192092896,0.20000000298023224,0,0.14285700023174286,0.40000000596046448,0.5,0.69999998807907104,0.30000001192092896,0.25125628709793091,0.03125]},"$$$/app/Presets/EssentialSound/ReverbPreset/OutsideAmbience=Outside Ambience":{"type":"array::float","value":[0.091708503663539886,0.043893899768590927,1,0.5,0.20000000298023224,0.80000001192092896,0.18367299437522888,1,0.5,0,0.80000001192092896,0.25125628709793091,0.03125]},"$$$/app/Presets/EssentialSound/ReverbPreset/RoomAmbience=Room Ambience":{"type":"array::float","value":[0.057788901031017303,0.44944900274276733,0.49494898319244385,0.89999997615814209,0.10000000149011612,0.15000000596046448,0.081632703542709351,0.40000000596046448,0.5,0.80000001192092896,0.20000000298023224,0.25125628709793091,0.03125]},"$$$/app/Presets/EssentialSound/ReverbPreset/WindEffect=Wind Effect":{"type":"array::float","value":[0.19597999751567841,0.6896899938583374,0.69696998596191406,0.25,0.5,0.5,0.23469400405883789,0.51999998092651367,0.5,0.75,0.25,0.25125628709793091,0.03125]}}}},"model_stereowidth":{},"model_volume":{"MaxGain":{"type":"float","value":6},"MinGain":{"type":"float","value":-15}}}},"Type":"1c19ca71-c24c-49cd-8dd5-2cc46018507a","Version":1},{"Guid":"58dc27a8-6a2a-480c-bd0c-4b45fff346a6","Name":"$$$/app/Presets/DefaultPresetName=(Default)","PresetData":{"ModeID":"dialog","Models":{"model_clarity":{"EQPresets":{"type":"tree::any","value":{"$$$/app/Presets/EssentialSound/EQPreset/BackgroundVoice=Background Voice":{"type":"array::float","value":[0.12099699676036835,0.5,0.39240506291389465,0,0.5,0.5,0.5,0.5,0.5,0.47827938199043274,0.45772689580917358,0.45778733491897583,0.47946760058403015,0.5,0]},"$$$/app/Presets/EssentialSound/EQPreset/Intercom=Intercom":{"type":"array::float","value":[0.19432899355888367,0.5,1,0,0.071499988436698914,0.071499988436698914,0.071499988436698914,0.40238627791404724,0.48571401834487915,0.5,0.55155748128890991,0.59602576494216919,0.22246670722961426,0.071499988436698914,0]},"$$$/app/Presets/EssentialSound/EQPreset/LockedInTheTrunk=Locked in the Trunk":{"type":"array::float","value":[0.12099699676036835,0.5,0.79746836423873901,0,0.5,0.5,0.5,0.5,0.5,0.32846158742904663,0.15721426904201508,0.15721426904201508,0.15721426904201508,0.15721426904201508,0]},"$$$/app/Presets/EssentialSound/EQPreset/OldRadio=Old Radio":{"type":"array::float","value":[0.12099699676036835,0.5,0.79746836423873901,0,0.15721426904201508,0.15721426904201508,0.15721426904201508,0.28442040085792542,0.48315632343292236,0.36498492956161499,0.52853888273239136,0.43511500954627991,0.27154684066772461,0.15721426904201508,0]},"$$$/app/Presets/EssentialSound/EQPreset/OnTheTelephone=On the Telephone":{"type":"array::float","value":[0.12099699676036835,0.5,0.39240506291389465,0,0.32864287495613098,0.32864287495613098,0.32864287495613098,0.32864287495613098,0.48571401834487915,0.53071397542953491,0.53071397542953491,0.48357096314430237,0.32864287495613098,0.32864287495613098,0]},"$$$/app/Presets/EssentialSound/EQPreset/OutsideOfTheRoom=Outside of the Room":{"type":"array::float","value":[0.12099699676036835,0.5,0.79746836423873901,0,0.42539370059967041,0.47865453362464905,0.5,0.5,0.48571401834487915,0.40073278546333313,0.25656309723854065,0.15721426904201508,0.15721426904201508,0.15721426904201508,0]},"$$$/app/Presets/EssentialSound/EQPreset/PodcastVoice=Podcast Voice":{"type":"array::float","value":[0.12099699676036835,0.5,0.39240506291389465,0,0.5,0.5,0.5,0.51789408922195435,0.50770342350006104,0.5,0.51789408922195435,0.528114914894104,0.5102812647819519,0.5,0]},"$$$/app/Presets/EssentialSound/EQPreset/SubtleBoostFemale=Subtle Boost (Female)":{"type":"array::float","value":[0.096553400158882141,0.5,0.29113924503326416,0,0.5,0.5,0.5,0.5,0.5,0.51933407783508301,0.54642897844314575,0.52706766128540039,0.5,0.5,0]},"$$$/app/Presets/EssentialSound/EQPreset/SubtleBoostMale=Subtle Boost (Male)":{"type":"array::float","value":[0.096553400158882141,0.5,0.29113924503326416,0,0.5,0.5,0.5,0.5,0.5,0.5135338306427002,0.54642897844314575,0.51933407783508301,0.5,0.5,0]},"$$$/app/Presets/EssentialSound/EQPreset/ThatPublicRadioSound=That Public Radio Sound":{"type":"array::float","value":[0.12099699676036835,0.5,0.79746836423873901,0,0.15721426904201508,0.15721426904201508,0.15721426904201508,0.36334344744682312,0.49468311667442322,0.5,0.5,0.5,0.5,0.5,0]},"$$$/app/Presets/EssentialSound/EQPreset/VocalPresence=Vocal Presence":{"type":"array::float","value":[0.096553400158882141,0.5,0.32489451766014099,0,0.3572143018245697,0.3572143018245697,0.46428570151329041,0.47857141494750977,0.4763694703578949,0.49570354819297791,0.55924957990646362,0.56523394584655762,0.50859290361404419,0.46992480754852295,0]}}}},"model_loudness":{"DefaultLoudness":{"type":"float","value":-23},"LoudnessStandard":{"type":"std::uint32_t","value":0},"MaxLoudness":{"type":"float","value":-12},"MinLoudness":{"type":"float","value":-35}},"model_restoration":{"ReduceNoiseMaxSetting":{"type":"array::float","value":[0.60000002384185791,0.40000000596046448,0.5,0.5,0.2465750128030777,0.60000002384185791,2048,0,0]},"ReduceNoiseMinSetting":{"type":"array::float","value":[0.375,0.20000000298023224,0.60000002384185791,0.5625,0.10958899557590485,0.30000001192092896,512,0,0]},"ReduceRumbleMaxSetting":{"type":"array::float","value":[1,0.084112152457237244,0.375,0,0,0.00083333335351198912,1,0,1,0.0390625,0.00083408987848088145,0,0.0041666668839752674,0.00022554649331141263,0.0046875001862645149,0.75,0.0052083334885537624,0.75,1,0.75,0.0040520834736526012,0.75,0.0042629167437553406,0.00022554649331141263,0.0064883334562182426,0.00022554649331141263,0.006866666954010725,0.75,0.0071704164147377014,0.00022554649331141263,0.01041458360850811,0.00022554649331141263,0.010900000110268593,0.75,0.011407917365431786,0.00022554649331141263,0.015606249682605267,0.00022554649331141263,0.016333334147930145,0.75,0.017094582319259644,0.00022554649331141263,0.026243748143315315,0.00022554649331141263,0.0274666678160429,0.75,0.028746666386723518,0.00022554649331141263,0.041658751666545868,0.00022554649331141263,0.043600000441074371,0.75,0.045631669461727142,0.00022554649331141263,0.062424581497907639,0.00022554649331141263,0.065333336591720581,0.75,0.068377502262592316,0.00022554649331141263,0.10497540980577469,0.00022554649331141263,0.1098666712641716,0.75,0.11498583108186722,0.00022554649331141263,0.16663584113121033,0.00022554649331141263,0.17440000176429749,0.75,0.18252624571323395,0.00022554649331141263,0.91874998807907104,0.00022554649331141263,1,0.00022554649331141263,0,0,0,0,0,0,0,0,0,0,0,0,0,0,0,0,0,0,0,0,0,0,0,0,0,0,0,0,0,0,0,0,0,0,0,0,0,0,0,0,0,0,0,0,0,0,0,0,0,0,0,0,0,0,0,0,0,0,0,0,0,0,0,0,0,0,0,0,0,0,0,0,0,0,0,0,0,0,0,0,0,0,0,0,0,0,0,0,0,0,0,0,0,0,0,0,0,0,0,0,0,0,0,0,0,0,0,0,0,0,0,0,0,0,0,0,0,0,0,0,0,0,0,0,0,0,0,0,0,0,0,0,0,0,0,0,0,0,0,0,0,0,0,0,0,0,0,0,0,0,0,0,0,0,0,0,0,0,0,0,0,0,0,0,0,0,0,0,0,0,0,0,0,0,0,0,0,0,0,0,0,0,0,0,0,0,0,0,0,0]},"ReduceRumbleMinSetting":{"type":"array::float","value":[1,0.084112152457237244,0.375,0,0,0.00083333335351198912,1,0,1,0.0390625,0.00083408987848088145,0.75,0.0041666668839752674,0.75,0.0046875001862645149,0.75,0.0052083334885537624,0.75,1,0.75,0.91874998807907104,0.61237245798110962,1,0.61237245798110962,0,0,0,0,0,0,0,0,0,0,0,0,0,0,0,0,0,0,0,0,0,0,0,0,0,0,0,0,0,0,0,0,0,0,0,0,0,0,0,0,0,0,0,0,0,0,0,0,0,0,0,0,0,0,0,0,0,0,0,0,0,0,0,0,0,0,0,0,0,0,0,0,0,0,0,0,0,0,0,0,0,0,0,0,0,0,0,0,0,0,0,0,0,0,0,0,0,0,0,0,0,0,0,0,0,0,0,0,0,0,0,0,0,0,0,0,0,0,0,0,0,0,0,0,0,0,0,0,0,0,0,0,0,0,0,0,0,0,0,0,0,0,0,0,0,0,0,0,0,0,0,0,0,0,0,0,0,0,0,0,0,0,0,0,0,0,0,0,0,0,0,0,0,0,0,0,0,0,0,0,0,0,0,0,0,0,0,0,0,0,0,0,0,0,0,0,0,0,0,0,0,0,0,0,0,0,0,0,0,0,0,0,0,0,0,0,0,0,0,0,0,0,0,0,0,0,0,0,0,0,0,0,0,0,0,0,0,0,0,0,0,0]},"ReduceSibilanceMaxSetting":{"type":"array::float","value":[0.5,0.19983997941017151,0.18367347121238708,0.26086956262588501,0.52702701091766357,0,1,0,0,0,0,0.75,1,1,0.40000000596046448]},"ReduceSibilanceMinSetting":{"type":"array::float","value":[0.875,0.19983997941017151,0.18367347121238708,0.19130434095859528,0.25675675272941589,0,1,0,0,0,0,0.75,1,1,0.40000000596046448]}},"model_soundeffects":{"ReverbPresets":{"type":"tree::any","value":{"$$$/app/Presets/EssentialSound/ReverbPreset/Auditorium=Auditorium":{"type":"array::float","value":[0.013047545216977596,0.15895412862300873,1,0.89999997615814209,0,0.52007436752319336,0.41663265228271484,0.46000000834465027,0.5,0.73000001907348633,0.15999999642372131,0.75376886129379272,0.03125]},"$$$/app/Presets/EssentialSound/ReverbPreset/Church=Church":{"type":"array::float","value":[0.032663315534591675,0.39939939975738525,0.79797977209091187,0.25,0.5,0.5,0.2297959178686142,0.72000002861022949,0.5,0.62999999523162842,0.87999999523162842,0.25125628709793091,0.03125]},"$$$/app/Presets/EssentialSound/ReverbPreset/LargeReflectiveRoom=Large Reflective Room":{"type":"array::float","value":[0.0074449013918638229,0.098988421261310577,0.79890537261962891,0.89999997615814209,0.10000000149011612,0.40110713243484497,0.060284845530986786,0.27522978186607361,0.5,0.73000001907348633,0.31999999284744263,0.25125628709793091,0.03125]},"$$$/app/Presets/EssentialSound/ReverbPreset/OutsideTheClub=Outside the Club":{"type":"array::float","value":[0.020615793764591217,0.050136558711528778,0.69696998596191406,0.25,0.094355784356594086,0.22242647409439087,0.1071428582072258,0.2800000011920929,0.5,0.73000001907348633,0.46000000834465027,0.25125628709793091,0.03125]},"$$$/app/Presets/EssentialSound/ReverbPreset/SmallDryRoom=Small Dry Room":{"type":"array::float","value":[0.24623115360736847,0.69975000619888306,0.29292899370193481,0.40000000596046448,0.20000000298023224,0.40000000596046448,0.039285715669393539,0.10000000149011612,0.5,1,0.5,0.75376886129379272,0.03125]},"$$$/app/Presets/EssentialSound/ReverbPreset/ThickenVoice=Thicken Voice":{"type":"array::float","value":[0.19597999751567841,0.23931467533111572,0.69696998596191406,0.25,0.5,0.53999996185302734,0.020408162847161293,0.20945435762405396,0.5,1,0.34999999403953552,0.25125628709793091,0.03125]},"$$$/app/Presets/EssentialSound/ReverbPreset/WarmRoom=Warm Room":{"type":"array::float","value":[0.020100502297282219,0.074074074625968933,0.49494948983192444,0.40000000596046448,0.74960309267044067,0.40000000596046448,0.1239795908331871,0.67000001668930054,0.5,0.85000002384185791,0.56000000238418579,0.25125628709793091,0.03125]},"$$$/app/Presets/EssentialSound/ReverbPreset/WarmVoice=Warm Voice":{"type":"array::float","value":[0.19597989320755005,0.89989989995956421,0,0.40000000596046448,0.20000000298023224,0.40000000596046448,0.10204081982374191,0.090000003576278687,0.5,1,0.30000001192092896,0.25125628709793091,0.03125]}}}},"model_volume":{"MaxGain":{"type":"float","value":6},"MinGain":{"type":"float","value":-15}}}},"Type":"1c19ca71-c24c-49cd-8dd5-2cc46018507a","Version":1},{"Guid":"31ba96a6-5d3e-4d89-b1e1-1dbe3c055d0c","Name":"$$$/app/Presets/DefaultPresetName=(Default)","PresetData":{"ModeID":"music","Models":{"model_duration":{},"model_loudness":{"DefaultLoudness":{"type":"float","value":-25},"LoudnessStandard":{"type":"std::uint32_t","value":0},"MaxLoudness":{"type":"float","value":-12},"MinLoudness":{"type":"float","value":-35}},"model_volume":{"MaxGain":{"type":"float","value":6},"MinGain":{"type":"float","value":-15}}}},"Type":"1c19ca71-c24c-49cd-8dd5-2cc46018507a","Version":1},{"Guid":"cea63332-1adc-44a9-a6eb-5490f965859b","Name":"$$$/app/Presets/DefaultPresetName=(Default)","PresetData":{"ModeID":"sfx","Models":{"model_loudness":{"DefaultLoudness":{"type":"float","value":-21},"LoudnessStandard":{"type":"std::uint32_t","value":0},"MaxLoudness":{"type":"float","value":-12},"MinLoudness":{"type":"float","value":-35}},"model_pan":{},"model_soundeffects":{"ReverbPresets":{"type":"tree::any","value":{"$$$/app/Presets/EssentialSound/ReverbPreset/HeavyReverb=Heavy Reverb":{"type":"array::float","value":[0.13316600024700165,0.29929900169372559,1,0.95999997854232788,0.85000002384185791,0.5,0.51530599594116211,0.30000001192092896,0.5,0.5,0.5,0.25125628709793091,0.0625]},"$$$/app/Presets/EssentialSound/ReverbPreset/LightReverb=Light Reverb":{"type":"array::float","value":[0.095477402210235596,0.29929900169372559,0.090909101068973541,1,1,0.80000001192092896,0.22449000179767609,0.60000002384185791,0.5,0.69999998807907104,0.30000001192092896,0.25125628709793091,0.0625]},"$$$/app/Presets/EssentialSound/ReverbPreset/OutsideReverb=Outside Reverb":{"type":"array::float","value":[0.091708503663539886,0.043893899768590927,1,0.5,0.20000000298023224,0.80000001192092896,0.18367299437522888,1,0.5,0,0.80000001192092896,0.25125628709793091,0.0625]},"$$$/app/Presets/EssentialSound/ReverbPreset/RoomReverb=Room Reverb":{"type":"array::float","value":[0.057788901031017303,0.44944900274276733,0.49494898319244385,0.89999997615814209,0.10000000149011612,0.15000000596046448,0.081632703542709351,0.40000000596046448,0.5,0.80000001192092896,0.20000000298023224,0.25125628709793091,0.0625]}}}},"model_volume":{"MaxGain":{"type":"float","value":6},"MinGain":{"type":"float","value":-15}}}},"Type":"1c19ca71-c24c-49cd-8dd5-2cc46018507a","Version":1}]</property>
    </properties>
  </session>

  <files>
    <file absolutePath="C:\Users\gary\Documents\Adobe\Audition\10.0\Untitled Session 2\Untitled Session 2_Recorded\Track 1_009.wav" id="0" mediaHandler="AmioWav" relativePath="../../Adobe/Audition/10.0/Untitled Session 2/Untitled Session 2_Recorded/Track 1_009.wav"/>
    <file absolutePath="C:\Users\gary\Documents\Adobe\Audition\10.0\Untitled Session 2\Untitled Session 2_Recorded\Track 1_010.wav" id="1" mediaHandler="AmioWav" relativePath="../../Adobe/Audition/10.0/Untitled Session 2/Untitled Session 2_Recorded/Track 1_010.wav"/>
    <file absolutePath="C:\Users\gary\Documents\Adobe\Audition\10.0\Untitled Session 2\Untitled Session 2_Recorded\Track 1_011.wav" id="2" mediaHandler="AmioWav" relativePath="../../Adobe/Audition/10.0/Untitled Session 2/Untitled Session 2_Recorded/Track 1_011.wav"/>
    <file absolutePath="C:\Users\gary\Documents\Adobe\Audition\10.0\Untitled Session 2\Untitled Session 2_Recorded\Track 1_012.wav" id="3" mediaHandler="AmioWav" relativePath="../../Adobe/Audition/10.0/Untitled Session 2/Untitled Session 2_Recorded/Track 1_012.wav"/>
    <file absolutePath="C:\Users\gary\Documents\Adobe\Audition\10.0\Untitled Session 2\Untitled Session 2_Recorded\Track 1_013.wav" id="4" mediaHandler="AmioWav" relativePath="../../Adobe/Audition/10.0/Untitled Session 2/Untitled Session 2_Recorded/Track 1_013.wav"/>
    <file absolutePath="C:\Users\gary\Documents\Adobe\Audition\10.0\Untitled Session 2\Untitled Session 2_Recorded\Track 1_015.wav" id="5" mediaHandler="AmioWav" relativePath="../../Adobe/Audition/10.0/Untitled Session 2/Untitled Session 2_Recorded/Track 1_015.wav"/>
    <file absolutePath="C:\Users\gary\Documents\Adobe\Audition\10.0\Untitled Session 2\Untitled Session 2_Recorded\Track 1_016.wav" id="6" mediaHandler="AmioWav" relativePath="../../Adobe/Audition/10.0/Untitled Session 2/Untitled Session 2_Recorded/Track 1_016.wav"/>
    <file absolutePath="C:\Users\gary\Downloads\395407__littlerainyseasons__laugh-track-4.mp3" id="7" importerPrivateSettings="BitsPerSecond:0:128000;CompressionQuality:0:4;CompressionType:0:0;" mediaHandler="AmioMP3" relativePath="../../../Downloads/395407__littlerainyseasons__laugh-track-4.mp3"/>
    <file absolutePath="C:\Users\gary\Documents\Adobe\Audition\10.0\Untitled Session 2\Untitled Session 2_Recorded\Track 1_020.wav" id="8" mediaHandler="AmioWav" relativePath="../../Adobe/Audition/10.0/Untitled Session 2/Untitled Session 2_Recorded/Track 1_020.wav"/>
    <file absolutePath="C:\Users\gary\Documents\Adobe\Audition\10.0\Untitled Session 2\Untitled Session 2_Recorded\Track 1_021.wav" id="9" mediaHandler="AmioWav" relativePath="../../Adobe/Audition/10.0/Untitled Session 2/Untitled Session 2_Recorded/Track 1_021.wav"/>
    <file absolutePath="C:\Users\gary\Documents\Adobe\Audition\10.0\Untitled Session 2\Untitled Session 2_Recorded\Track 1_022.wav" id="10" mediaHandler="AmioWav" relativePath="../../Adobe/Audition/10.0/Untitled Session 2/Untitled Session 2_Recorded/Track 1_022.wav"/>
    <file absolutePath="C:\Users\gary\Documents\Adobe\Audition\10.0\Untitled Session 2\Untitled Session 2_Recorded\Track 1_024.wav" id="11" mediaHandler="AmioWav" relativePath="../../Adobe/Audition/10.0/Untitled Session 2/Untitled Session 2_Recorded/Track 1_024.wav"/>
    <file absolutePath="C:\Users\gary\Documents\Adobe\Audition\10.0\Untitled Session 2\Untitled Session 2_Recorded\Track 1_025.wav" id="12" mediaHandler="AmioWav" relativePath="../../Adobe/Audition/10.0/Untitled Session 2/Untitled Session 2_Recorded/Track 1_025.wav"/>
    <file absolutePath="C:\Users\gary\Documents\Adobe\Audition\10.0\Untitled Session 2\Untitled Session 2_Recorded\Track 1_028.wav" id="13" mediaHandler="AmioWav" relativePath="../../Adobe/Audition/10.0/Untitled Session 2/Untitled Session 2_Recorded/Track 1_028.wav"/>
    <file absolutePath="C:\Users\gary\Documents\Adobe\Audition\10.0\Untitled Session 2\Untitled Session 2_Recorded\Track 1_029.wav" id="14" mediaHandler="AmioWav" relativePath="../../Adobe/Audition/10.0/Untitled Session 2/Untitled Session 2_Recorded/Track 1_029.wav"/>
    <file absolutePath="C:\Users\gary\Documents\Adobe\Audition\10.0\Untitled Session 2\Untitled Session 2_Recorded\Track 1_031.wav" id="15" mediaHandler="AmioWav" relativePath="../../Adobe/Audition/10.0/Untitled Session 2/Untitled Session 2_Recorded/Track 1_031.wav"/>
    <file absolutePath="C:\Users\gary\Documents\Adobe\Audition\10.0\Untitled Session 2\Untitled Session 2_Recorded\Track 1_032.wav" id="16" mediaHandler="AmioWav" relativePath="../../Adobe/Audition/10.0/Untitled Session 2/Untitled Session 2_Recorded/Track 1_032.wav"/>
    <file absolutePath="C:\Users\gary\Documents\Adobe\Audition\10.0\Untitled Session 2\Untitled Session 2_Recorded\Track 1_033.wav" id="17" mediaHandler="AmioWav" relativePath="../../Adobe/Audition/10.0/Untitled Session 2/Untitled Session 2_Recorded/Track 1_033.wav"/>
    <file absolutePath="C:\Users\gary\Documents\Adobe\Audition\10.0\Untitled Session 2\Untitled Session 2_Recorded\Track 1_034.wav" id="18" mediaHandler="AmioWav" relativePath="../../Adobe/Audition/10.0/Untitled Session 2/Untitled Session 2_Recorded/Track 1_034.wav"/>
    <file absolutePath="C:\Users\gary\Documents\Adobe\Audition\10.0\Untitled Session 2\Untitled Session 2_Recorded\Track 1_035.wav" id="19" mediaHandler="AmioWav" relativePath="../../Adobe/Audition/10.0/Untitled Session 2/Untitled Session 2_Recorded/Track 1_035.wav"/>
    <file absolutePath="C:\Users\gary\Documents\Adobe\Audition\10.0\Untitled Session 2\Untitled Session 2_Recorded\Track 1_038.wav" id="20" mediaHandler="AmioWav" relativePath="../../Adobe/Audition/10.0/Untitled Session 2/Untitled Session 2_Recorded/Track 1_038.wav"/>
    <file absolutePath="C:\Users\gary\Documents\Adobe\Audition\10.0\Untitled Session 2\Untitled Session 2_Recorded\Track 1_039.wav" id="21" mediaHandler="AmioWav" relativePath="../../Adobe/Audition/10.0/Untitled Session 2/Untitled Session 2_Recorded/Track 1_039.wav"/>
    <file absolutePath="C:\Users\gary\Documents\Adobe\Audition\10.0\Untitled Session 2\Untitled Session 2_Recorded\Track 1_040.wav" id="22" mediaHandler="AmioWav" relativePath="../../Adobe/Audition/10.0/Untitled Session 2/Untitled Session 2_Recorded/Track 1_040.wav"/>
    <file absolutePath="C:\Users\gary\Documents\Adobe\Audition\10.0\Untitled Session 2\Untitled Session 2_Recorded\Track 1_041.wav" id="23" mediaHandler="AmioWav" relativePath="../../Adobe/Audition/10.0/Untitled Session 2/Untitled Session 2_Recorded/Track 1_041.wav"/>
    <file absolutePath="C:\Users\gary\Documents\Adobe\Audition\10.0\Untitled Session 2\Untitled Session 2_Recorded\Track 1_043.wav" id="24" mediaHandler="AmioWav" relativePath="../../Adobe/Audition/10.0/Untitled Session 2/Untitled Session 2_Recorded/Track 1_043.wav"/>
    <file absolutePath="C:\Users\gary\Documents\Adobe\Audition\10.0\Untitled Session 2\Untitled Session 2_Recorded\Track 1_046.wav" id="25" mediaHandler="AmioWav" relativePath="../../Adobe/Audition/10.0/Untitled Session 2/Untitled Session 2_Recorded/Track 1_046.wav"/>
    <file absolutePath="C:\Users\gary\Documents\Adobe\Audition\10.0\Untitled Session 2\Untitled Session 2_Recorded\Track 1_047.wav" id="26" mediaHandler="AmioWav" relativePath="../../Adobe/Audition/10.0/Untitled Session 2/Untitled Session 2_Recorded/Track 1_047.wav"/>
  </files>

  <audioDevice inputID="1F69FC72-3D76-4D4C-BDBD-B10C5746F33F" outputID="1C2B4F98-CA73-4FA7-BB5C-358BF94F645E">
    <inputPort id="1" name="Default Stereo Input"/>
    <inputPort id="2" name="[01M] Microphone (Realtek High Definition Audio) 1"/>
    <inputPort id="3" name="[02M] Microphone (Realtek High Definition Audio) 2"/>
    <inputPort id="4" name="[01S] Microphone (Realtek High Definition Audio) 1"/>
    <outputPort id="1" name="Default Output"/>
    <outputPort id="2" name="[01M] Speakers (I'm Fulla Schiit) 1"/>
    <outputPort id="3" name="[02M] Speakers (I'm Fulla Schiit) 2"/>
    <outputPort id="4" name="Default Stereo Output"/>
    <outputPort id="5" name="[01S] Speakers (I'm Fulla Schiit) 1"/>
    <outputPort id="6" name="Default Surround Output"/>
  </audioDevice>

</sesx>
