# This file uses centimeters as units for non-parametric coordinates.

mtllib Lamp2.mtl
g default
v -0.850608 0.036517 -0.276379
v -0.723570 0.036517 -0.525705
v -0.723570 0.036517 -0.525705
v -0.171614 0.501234 -0.124685
v -0.201744 0.501234 -0.065551
v -0.587785 0.036517 -0.809017
v -0.809017 0.036517 -0.587785
v -0.171614 0.573176 -0.124685
v -0.124685 0.573176 -0.171614
v -0.525705 0.036517 -0.723570
v -0.124685 0.501234 -0.171614
v -0.309017 0.036517 -0.951057
v -0.065551 0.573176 -0.201744
v -0.951057 0.036517 -0.309017
v -0.201744 0.573176 -0.065551
v -0.276379 0.036517 -0.850608
v -0.065551 0.501234 -0.201744
v 0.000000 0.036517 -1.000000
v -0.000000 0.573176 -0.212126
v -1.000000 0.036517 0.000000
v -0.212126 0.573176 -0.000000
v -0.723570 0.036517 0.525704
v -0.809017 0.036517 0.587785
v -0.951057 0.036517 0.309017
v -0.850608 0.036517 0.276379
v -0.000000 0.036517 -0.894382
v -0.000000 0.501234 -0.212126
v -0.894382 0.036517 -0.000000
v -0.212126 0.501234 -0.000000
v 0.309017 0.036517 -0.951057
v 0.065551 0.573176 -0.201744
v -0.201744 0.573176 0.065550
v 0.276379 0.036517 -0.850608
v 0.065551 0.501234 -0.201744
v 0.587786 0.036517 -0.809017
v 0.525705 0.036517 -0.723570
v 0.525705 0.036517 -0.723570
v 0.276379 0.036517 -0.850608
v -0.850608 0.036517 0.276379
v -0.894382 0.036517 0.000000
v -0.201744 0.501234 0.065550
v -0.000000 0.501234 -0.000000
v -0.000000 0.573176 -0.000000
v 0.124685 0.501234 -0.171614
v -0.171614 0.501234 0.124685
v -0.124685 0.501234 0.171614
v 0.171614 0.501234 -0.124685
v 0.124685 0.573176 -0.171614
v -0.171614 0.573176 0.124685
v -0.065551 0.501234 0.201744
v 0.201744 0.501234 -0.065551
v -0.124685 0.573176 0.171614
v 0.171614 0.573176 -0.124685
v -0.000000 0.501234 0.212126
v 0.212126 0.501234 -0.000000
v -0.065551 0.573176 0.201744
v 0.201744 0.573176 -0.065551
v 0.201744 0.501234 0.065550
v 0.065551 0.501234 0.201744
v 0.171613 0.501234 0.124685
v 0.124685 0.501234 0.171614
v -0.000000 0.573176 0.212126
v 0.212126 0.573176 -0.000000
v 0.201744 0.573176 0.065550
v 0.065551 0.573176 0.201744
v 0.171613 0.573176 0.124685
v 0.124685 0.573176 0.171614
v -0.525705 0.036517 0.723570
v -0.587785 0.036517 0.809017
v 0.809018 0.036517 -0.587786
v -0.276379 0.036517 0.850608
v -0.309017 0.036517 0.951057
v -0.525704 0.036517 0.723570
v 0.723570 0.036517 -0.525705
v 0.723570 0.036517 -0.525705
v 0.951057 0.036517 -0.309017
v -0.000000 0.036517 0.894382
v -0.000000 0.036517 1.000000
v 1.000000 0.036517 0.000000
v 0.276379 0.036517 0.850608
v 0.951057 0.036517 0.309017
v 0.309017 0.036517 0.951057
v 0.850608 0.036517 0.276379
v 0.723570 0.036517 0.525704
v 0.525704 0.036517 0.723570
v 0.850608 0.036517 -0.276379
v 0.894382 0.036517 0.000000
v 0.850608 0.036517 -0.276379
v 0.809017 0.036517 0.587785
v 0.587785 0.036517 0.809017
v 0.894382 0.036517 -0.000000
vt 0.475000 0.362897
vt 0.462500 0.362897
vt 0.462500 0.362897
vt 0.462500 0.688440
vt 0.475000 0.688440
vt 0.450000 0.312500
vt 0.462500 0.312500
vt 0.462500 0.688440
vt 0.450000 0.688440
vt 0.450000 0.362897
vt 0.450000 0.688440
vt 0.437500 0.312500
vt 0.437500 0.688440
vt 0.475000 0.312500
vt 0.475000 0.688440
vt 0.437500 0.362897
vt 0.437500 0.688440
vt 0.425000 0.312500
vt 0.425000 0.688440
vt 0.487500 0.312500
vt 0.487500 0.688440
vt 0.386942 0.237731
vt 0.373591 0.248091
vt 0.351397 0.204534
vt 0.367093 0.198774
vt 0.425000 0.362897
vt 0.425000 0.688440
vt 0.487500 0.362897
vt 0.487500 0.688440
vt 0.412500 0.312500
vt 0.412500 0.688440
vt 0.500000 0.312500
vt 0.500000 0.688440
vt 0.412500 0.362897
vt 0.412500 0.688440
vt 0.548284 0.007647
vt 0.591842 0.029841
vt 0.582141 0.042532
vt 0.582141 0.042532
vt 0.543184 0.022682
vt 0.500000 0.362897
vt 0.487500 0.362897
vt 0.500000 0.688440
vt 0.408159 0.970159
vt 0.500000 0.837500
vt 0.373591 0.935591
vt 0.451716 0.992353
vt 0.351397 0.892034
vt 0.500000 1.000000
vt 0.343750 0.843750
vt 0.408159 0.970159
vt 0.373591 0.935591
vt 0.500000 0.837500
vt 0.548284 0.992353
vt 0.351397 0.795466
vt 0.451716 0.992353
vt 0.351397 0.892034
vt 0.500000 1.000000
vt 0.343750 0.843750
vt 0.591841 0.970159
vt 0.373591 0.751909
vt 0.548284 0.992353
vt 0.351397 0.795466
vt 0.408159 0.717341
vt 0.626409 0.935591
vt 0.591841 0.970159
vt 0.373591 0.751909
vt 0.451716 0.695147
vt 0.648603 0.892034
vt 0.408159 0.717341
vt 0.626409 0.935591
vt 0.400000 0.312500
vt 0.400000 0.688440
vt 0.512500 0.312500
vt 0.512500 0.688440
vt 0.500000 0.687500
vt 0.656250 0.843750
vt 0.451716 0.695147
vt 0.648603 0.892034
vt 0.648603 0.795466
vt 0.548284 0.695147
vt 0.626409 0.751908
vt 0.591842 0.717341
vt 0.500000 0.687500
vt 0.656250 0.843750
vt 0.648603 0.795466
vt 0.548284 0.695147
vt 0.626409 0.751908
vt 0.591842 0.717341
vt 0.412500 0.362897
vt 0.400000 0.362897
vt 0.400000 0.688440
vt 0.512500 0.362897
vt 0.500000 0.362897
vt 0.512500 0.688440
vt 0.525000 0.362897
vt 0.525000 0.688440
vt 0.525000 0.312500
vt 0.525000 0.688440
vt 0.387500 0.312500
vt 0.387500 0.688440
vt 0.456816 0.288497
vt 0.451716 0.304853
vt 0.408159 0.282659
vt 0.417859 0.268648
vt 0.417859 0.268648
vt 0.626409 0.064408
vt 0.613058 0.073449
vt 0.613058 0.073449
vt 0.537500 0.312500
vt 0.537500 0.688440
vt 0.375000 0.312500
vt 0.375000 0.688440
vt 0.400000 0.362897
vt 0.387500 0.362897
vt 0.387500 0.688440
vt 0.550000 0.362897
vt 0.537500 0.362897
vt 0.537500 0.688440
vt 0.550000 0.688440
vt 0.550000 0.312500
vt 0.550000 0.688440
vt 0.612500 0.312500
vt 0.625000 0.312500
vt 0.625000 0.688440
vt 0.612500 0.688440
vt 0.500000 0.295337
vt 0.500000 0.312500
vt 0.562500 0.362897
vt 0.562500 0.688440
vt 0.600000 0.312500
vt 0.600000 0.688440
vt 0.562500 0.312500
vt 0.562500 0.688440
vt 0.600000 0.362897
vt 0.587500 0.362897
vt 0.587500 0.688440
vt 0.600000 0.688440
vt 0.575000 0.362897
vt 0.575000 0.688440
vt 0.525000 0.362897
vt 0.387500 0.362897
vt 0.375000 0.362897
vt 0.375000 0.688440
vt 0.639747 0.155590
vt 0.656250 0.156250
vt 0.648603 0.204534
vt 0.632908 0.198774
vt 0.543184 0.288497
vt 0.548284 0.304853
vt 0.648603 0.107966
vt 0.632908 0.112406
vt 0.632908 0.112406
vt 0.587500 0.312500
vt 0.587500 0.688440
vt 0.575000 0.312500
vt 0.575000 0.688440
vt 0.626409 0.248091
vt 0.613058 0.237731
vt 0.582141 0.268648
vt 0.591841 0.282659
vt 0.625000 0.362897
vt 0.625000 0.362897
vt 0.612500 0.362897
vt 0.612500 0.688440
vt 0.625000 0.688440
vt 0.639747 0.155590
vt 0.612500 0.362897
vt 0.343750 0.156250
vt 0.360253 0.155590
vt 0.367093 0.198774
vt 0.500000 -0.000000
vt 0.543184 0.022682
vt 0.500000 0.015843
vt 0.456816 0.022682
vt 0.451716 0.007647
vt 0.351397 0.107966
vt 0.367093 0.112406
vt 0.360253 0.155590
vt 0.373591 0.064409
vt 0.386942 0.073449
vt 0.417859 0.042532
vt 0.408159 0.029841
vt 0.386942 0.073449
vn 0.535406 -0.826485 0.173964
vn 0.505846 -0.823219 0.257741
vn 0.459757 -0.826463 0.324936
vn 0.455443 -0.826485 0.330899
vn 0.535406 -0.826485 0.173964
vn -0.330899 0.826485 -0.455443
vn -0.455443 0.826485 -0.330899
vn -0.455443 0.826485 -0.330899
vn -0.330899 0.826485 -0.455443
vn 0.330899 -0.826485 0.455443
vn 0.330899 -0.826485 0.455443
vn -0.173964 0.826485 -0.535405
vn -0.173964 0.826485 -0.535405
vn -0.535406 0.826485 -0.173964
vn -0.535406 0.826485 -0.173964
vn 0.173964 -0.826485 0.535406
vn 0.173964 -0.826485 0.535406
vn -0.000000 0.826485 -0.562959
vn -0.000000 0.826485 -0.562959
vn -0.562959 0.826485 0.000000
vn -0.562959 0.826485 -0.000000
vn 0.000000 -1.000000 -0.000000
vn 0.000000 -1.000000 -0.000000
vn 0.000000 -1.000000 -0.000000
vn 0.000000 -1.000000 -0.000000
vn -0.000000 -0.826485 0.562959
vn 0.000000 -0.826485 0.562959
vn 0.562955 -0.826479 -0.003838
vn 0.562959 -0.826485 0.000000
vn 0.173964 0.826485 -0.535406
vn 0.173964 0.826485 -0.535406
vn -0.535406 0.826485 0.173964
vn -0.535406 0.826485 0.173964
vn -0.184012 -0.826439 0.532107
vn -0.173964 -0.826485 0.535406
vn 0.000000 -1.000000 -0.000000
vn 0.000000 -1.000000 -0.000000
vn 0.000000 -1.000000 -0.000000
vn 0.000000 -0.000000 -0.000000
vn 0.000000 -1.000000 -0.000000
vn 0.532107 -0.826439 -0.184012
vn 0.560734 -0.823219 -0.088811
vn 0.535406 -0.826485 -0.173964
vn 0.000000 -1.000000 0.000001
vn 0.000000 -1.000000 -0.000000
vn 0.000000 -1.000000 0.000001
vn 0.000000 -1.000000 -0.000001
vn 0.000000 -1.000000 -0.000000
vn 0.000000 -1.000000 0.000000
vn 0.000000 -1.000000 0.000000
vn 0.000000 1.000000 0.000000
vn 0.000000 1.000000 0.000000
vn 0.000000 1.000000 0.000000
vn 0.000000 -1.000000 -0.000001
vn 0.000000 -1.000000 0.000000
vn 0.000000 1.000000 0.000000
vn 0.000000 1.000000 0.000000
vn 0.000000 1.000000 0.000000
vn 0.000000 1.000000 0.000000
vn 0.000000 -1.000000 -0.000001
vn 0.000000 -1.000000 -0.000001
vn 0.000000 1.000000 -0.000001
vn 0.000000 1.000000 0.000000
vn 0.000000 -1.000000 -0.000001
vn 0.000000 -1.000000 0.000000
vn 0.000000 1.000000 -0.000001
vn 0.000000 1.000000 0.000001
vn 0.000000 -1.000000 0.000001
vn 0.000000 -1.000000 0.000001
vn 0.000000 1.000000 0.000001
vn 0.000000 1.000000 0.000000
vn 0.330899 0.826485 -0.455443
vn 0.330899 0.826485 -0.455443
vn -0.455443 0.826485 0.330899
vn -0.455443 0.826485 0.330899
vn 0.000000 -1.000000 -0.000000
vn 0.000000 -1.000000 -0.000000
vn 0.000000 1.000000 -0.000001
vn 0.000000 1.000000 0.000002
vn 0.000000 -1.000000 -0.000001
vn 0.000000 -1.000000 -0.000001
vn 0.000000 -1.000000 0.000001
vn 0.000000 -1.000000 0.000001
vn 0.000000 1.000000 0.000000
vn 0.000000 1.000000 0.000001
vn 0.000000 1.000000 -0.000001
vn 0.000000 1.000000 0.000000
vn 0.000000 1.000000 0.000000
vn 0.000000 1.000000 -0.000001
vn -0.257741 -0.823219 0.505846
vn -0.257741 -0.823219 0.505846
vn -0.330899 -0.826485 0.455443
vn 0.455443 -0.826485 -0.330899
vn 0.505845 -0.823219 -0.257741
vn 0.455443 -0.826485 -0.330899
vn 0.324936 -0.826463 -0.459756
vn 0.330899 -0.826485 -0.455443
vn -0.330899 0.826485 0.455443
vn -0.330899 0.826485 0.455443
vn 0.455443 0.826485 -0.330899
vn 0.455443 0.826485 -0.330899
vn 0.000000 -1.000000 0.000000
vn 0.000000 -1.000000 0.000000
vn 0.000000 -1.000000 0.000000
vn 0.000000 -1.000000 0.000000
vn 0.000000 -1.000000 0.000000
vn 0.000000 -1.000000 0.000000
vn 0.000000 -1.000000 0.000000
vn 0.000000 -0.000000 -0.000000
vn -0.173964 0.826485 0.535405
vn -0.173964 0.826485 0.535405
vn 0.535406 0.826485 -0.173963
vn 0.535406 0.826485 -0.173963
vn -0.000000 -0.000000 0.000000
vn -0.401441 -0.823219 0.401442
vn -0.455443 -0.826485 0.330899
vn 0.000000 -0.826485 -0.562959
vn 0.173964 -0.826485 -0.535405
vn 0.173964 -0.826485 -0.535406
vn 0.000000 -0.826485 -0.562959
vn 0.000000 0.826485 0.562959
vn 0.000000 0.826485 0.562959
vn 0.562959 0.826485 0.000000
vn 0.562959 0.826485 0.000000
vn 0.000000 -1.000000 0.000000
vn 0.000000 -1.000000 0.000000
vn -0.173964 -0.826485 -0.535406
vn -0.173964 -0.826485 -0.535406
vn 0.535406 0.826485 0.173964
vn 0.535406 0.826485 0.173964
vn 0.173964 0.826485 0.535405
vn 0.173964 0.826485 0.535405
vn -0.535406 -0.826485 -0.173964
vn -0.455443 -0.826485 -0.330899
vn -0.455443 -0.826485 -0.330899
vn -0.535406 -0.826485 -0.173964
vn -0.330899 -0.826485 -0.455443
vn -0.330899 -0.826485 -0.455443
vn 0.257741 -0.823219 -0.505845
vn -0.000000 -0.000000 0.000000
vn -0.505845 -0.823219 0.257741
vn -0.535406 -0.826485 0.173963
vn 0.000000 -1.000000 0.000000
vn 0.000000 -1.000000 0.000000
vn 0.000000 -1.000000 -0.000000
vn 0.000000 -1.000000 -0.000000
vn 0.000000 -1.000000 0.000000
vn 0.000000 -1.000000 0.000000
vn 0.000000 -1.000000 0.000000
vn 0.000000 -1.000000 0.000000
vn 0.000000 -0.000000 0.000000
vn 0.455443 0.826485 0.330899
vn 0.455443 0.826485 0.330899
vn 0.330899 0.826485 0.455443
vn 0.330899 0.826485 0.455443
vn 0.000000 -1.000000 -0.000000
vn 0.000000 -1.000000 -0.000000
vn 0.000000 -1.000000 0.000000
vn 0.000000 -1.000000 0.000000
vn -0.000000 -0.000000 0.000000
vn -0.562955 -0.826479 -0.003839
vn -0.562959 -0.826485 -0.000001
vn 0.000000 -1.000000 0.000000
vn -0.560734 -0.823219 -0.088811
vn 0.000000 -1.000000 0.000000
vn 0.000000 -1.000000 0.000000
vn 0.000000 -1.000000 0.000000
vn 0.000000 -1.000000 -0.000000
vn 0.000000 -1.000000 -0.000001
vn 0.000000 -1.000000 -0.000000
vn 0.000000 -1.000000 0.000000
vn 0.000000 -1.000000 0.000000
vn 0.000000 -1.000000 0.000000
vn 0.000000 -1.000000 0.000000
vn 0.000000 -1.000000 0.000000
vn 0.000000 -1.000000 0.000000
vn 0.000000 -1.000000 0.000000
vn 0.000000 -1.000000 0.000000
vn 0.000000 -1.000000 0.000000
vn 0.000000 -1.000000 0.000000
s 1
g pCylinder2
usemtl initialShadingGroup
f 1/1/1 2/2/2 3/3/3 4/4/4 5/5/5
s 2
f 6/6/6 7/7/7 8/8/8 9/9/9
s 1
f 3/3/3 10/10/10 11/11/11 4/4/4
s 2
f 12/12/12 6/6/6 9/9/9 13/13/13
f 7/7/7 14/14/14 15/15/15 8/8/8
s 1
f 10/10/10 16/16/16 17/17/17 11/11/11
s 2
f 18/18/18 12/12/12 13/13/13 19/19/19
f 14/14/14 20/20/20 21/21/21 15/15/15
s 3
f 22/22/22 23/23/23 24/24/24 25/25/25
s 1
f 16/16/16 26/26/26 27/27/27 17/17/17
f 28/28/28 1/1/1 5/5/5 29/29/29
s 2
f 30/30/30 18/18/18 19/19/19 31/31/31
f 20/20/20 24/32/32 32/33/33 21/21/21
s 1
f 26/26/26 33/34/34 34/35/35 27/27/27
s 3
f 30/36/36 35/37/37 36/38/38 37/39/39 38/40/40
s 1
f 39/41/41 40/42/42 28/28/28 29/29/29 41/43/43
s 5
f 11/44/44 42/45/45 4/46/46
f 17/47/47 42/45/45 11/44/44
f 4/46/46 42/45/45 5/48/48
f 27/49/49 42/45/45 17/47/47
f 5/48/48 42/45/45 29/50/50
s 6
f 9/51/51 8/52/52 43/53/53
s 5
f 34/54/54 42/45/45 27/49/49
f 29/50/50 42/45/45 41/55/55
s 6
f 13/56/56 9/51/51 43/53/53
f 8/52/52 15/57/57 43/53/53
f 19/58/58 13/56/56 43/53/53
f 15/57/57 21/59/59 43/53/53
s 5
f 44/60/60 42/45/45 34/54/54
f 41/55/55 42/45/45 45/61/61
s 6
f 31/62/62 19/58/58 43/53/53
f 21/59/59 32/63/63 43/53/53
s 5
f 45/61/61 42/45/45 46/64/64
f 47/65/65 42/45/45 44/60/60
s 6
f 48/66/66 31/62/62 43/53/53
f 32/63/63 49/67/67 43/53/53
s 5
f 46/64/64 42/45/45 50/68/68
f 51/69/69 42/45/45 47/65/65
s 6
f 49/67/67 52/70/70 43/53/53
f 53/71/71 48/66/66 43/53/53
s 2
f 35/72/72 30/30/30 31/31/31 48/73/73
f 24/32/32 23/74/74 49/75/75 32/33/33
s 5
f 50/68/68 42/45/45 54/76/76
f 55/77/77 42/45/45 51/69/69
s 6
f 52/70/70 56/78/78 43/53/53
f 57/79/79 53/71/71 43/53/53
s 5
f 58/80/80 42/45/45 55/77/77
f 54/76/76 42/45/45 59/81/81
f 60/82/82 42/45/45 58/80/80
f 59/81/81 42/45/45 61/83/83
s 6
f 56/78/78 62/84/84 43/53/53
f 63/85/85 57/79/79 43/53/53
s 5
f 61/83/83 42/45/45 60/82/82
s 6
f 64/86/86 63/85/85 43/53/53
f 62/84/84 65/87/87 43/53/53
f 66/88/88 64/86/86 43/53/53
f 65/87/87 67/89/89 43/53/53
f 67/89/89 66/88/88 43/53/53
s 1
f 33/34/34 38/90/90 37/91/91 44/92/92 34/35/35
f 22/93/93 25/94/94 39/41/41 41/43/43 45/95/95
f 68/96/96 22/93/93 45/95/95 46/97/97
s 2
f 23/74/74 69/98/98 52/99/99 49/75/75
f 70/100/100 35/72/72 48/73/73 53/101/101
s 3
f 71/102/102 72/103/103 69/104/104 73/105/105
f 69/104/104 23/23/23 22/22/22 68/106/106 73/105/105
f 35/37/37 70/107/107 74/108/108 75/109/109 36/38/38
s 2
f 69/98/98 72/110/110 56/111/111 52/99/99
f 76/112/112 70/100/100 53/101/101 57/113/113
s 1
f 37/91/91 36/114/114 75/115/115 47/116/116 44/92/92
f 77/117/117 71/118/118 50/119/119 54/120/120
s 2
f 72/110/110 78/121/121 62/122/122 56/111/111
f 79/123/123 76/124/112 57/125/113 63/126/124
s 3
f 77/127/125 78/128/126 72/103/103 71/102/102
s 1
f 80/129/127 77/117/117 54/120/120 59/130/128
s 2
f 81/131/129 79/123/123 63/126/124 64/132/130
f 78/121/121 82/133/131 65/134/132 62/122/122
s 1
f 83/135/133 84/136/134 60/137/135 58/138/136
f 85/139/137 80/129/127 59/130/128 61/140/138
f 84/136/134 85/139/137 61/140/138 60/137/135
f 71/118/118 73/141/139 68/96/96 46/97/97 50/119/119
f 75/115/115 74/142/140 86/143/141 51/144/142 47/116/116
s 3
f 87/145/143 79/146/144 81/147/145 83/148/146
f 80/149/147 82/150/148 78/128/126 77/127/125
f 70/107/107 76/151/149 88/152/150 86/153/151 74/108/108
s 2
f 89/154/152 81/131/129 64/132/130 66/155/153
f 82/133/131 90/156/154 67/157/155 65/134/132
f 90/156/154 89/154/152 66/155/153 67/157/155
s 3
f 83/148/146 81/147/145 89/158/156 84/159/157
f 85/160/158 90/161/159 82/150/148 80/149/147
f 84/159/157 89/158/156 90/161/159 85/160/158
s 1
f 86/162/141 88/163/160 91/164/161 55/165/162 51/166/142
s 3
f 76/151/149 79/146/144 87/145/143 91/167/163 88/152/150
s 1
f 91/164/161 87/168/164 83/135/133 58/138/136 55/165/162
s 3
f 24/24/24 20/169/165 40/170/166 39/171/167 25/25/25
f 18/172/168 30/36/36 38/40/40 33/173/169 26/174/170
f 16/175/171 12/176/172 18/172/168 26/174/170
f 20/169/165 14/177/173 1/178/174 28/179/175 40/170/166
f 1/178/174 14/177/173 7/180/176 2/181/177
f 10/182/178 6/183/179 12/176/172 16/175/171
f 7/180/176 6/183/179 10/182/178 3/184/180 2/181/177
