# This file uses centimeters as units for non-parametric coordinates.

mtllib Desk1.mtl
g default
v 1.225513 0.003375 0.000000
v 1.225513 0.003375 -1.902372
v 1.225513 0.085353 -1.902372
v 1.225513 0.085353 -1.501517
v 1.225513 0.004481 -1.501517
v 1.225513 0.004481 0.000000
v -0.818151 1.569805 -0.694280
v -0.818151 1.647503 -0.694280
v -0.248824 1.647503 -0.694280
v -0.248824 1.569805 -0.694280
v 1.309347 1.394442 -1.501517
v 1.309347 0.004481 -1.501517
v 1.018916 0.085353 -1.501517
v 1.018916 1.394442 -1.501517
v -0.138741 0.003375 0.000000
v -0.138741 0.003375 1.902372
v -0.138741 0.085353 1.902372
v -0.138741 0.085353 0.000000
v 0.185025 1.569805 -1.501517
v 0.185025 2.898122 -1.501517
v 0.247526 2.898122 -1.501517
v 0.247526 1.569805 -1.501517
v 1.512072 1.482123 0.000000
v 1.512072 1.482123 -3.930495
v 1.512072 1.569805 -3.930495
v 1.512072 1.569805 -0.454234
v 1.512072 1.394442 0.000000
v 1.512072 1.394442 -3.930495
v -0.818151 1.647503 0.694280
v -0.248824 1.647503 0.694280
v -1.512072 1.394442 0.000000
v -1.512072 1.394442 2.437618
v -1.512072 1.482123 2.437618
v -1.512072 1.482123 0.000000
v 0.543386 0.003375 0.000000
v 0.543386 0.003375 1.902372
v 0.543386 0.085353 1.902372
v 0.543386 0.085353 0.000000
v -0.818151 1.569805 0.694280
v -0.818151 1.569805 0.253946
v -1.512072 1.569805 2.437618
v -1.512072 1.569805 0.464836
v -0.248824 1.569805 0.694280
v 1.225513 0.003375 1.902372
v 1.309347 0.004481 1.501517
v 1.225513 0.004481 1.501517
v -0.248824 1.569805 0.080922
v 1.225513 0.085353 1.902372
v 0.185025 2.898122 1.501517
v 0.247526 2.898122 1.501517
v -1.512072 1.394442 -2.437618
v 1.309347 1.394442 0.000000
v 1.018916 1.394442 0.000000
v 1.309347 1.394442 1.501517
v 0.185025 1.569805 1.501517
v 0.185025 1.569805 -0.050930
v 0.247526 1.569805 1.501517
v 0.247526 1.569805 -0.069925
v 1.018916 0.085353 1.501517
v 1.018916 1.394442 1.501517
v 1.018916 0.085353 0.000000
v 1.512072 1.394442 3.930495
v 1.512072 1.482123 3.930495
v 1.512072 1.569805 3.930495
v 1.225513 0.085353 1.501517
v -1.512072 1.569805 -2.437618
v 0.543386 0.003375 -1.902372
v 0.543386 0.085353 -1.902372
v -0.138741 0.085353 -1.902372
v -0.138741 0.003375 -1.902372
v -1.512072 1.482123 -2.437618
vt 0.750000 0.000000
vt 0.875000 0.000000
vt 0.875000 0.250000
vt 0.848661 0.250000
vt 0.848661 0.003372
vt 0.750000 0.003372
vt 0.375000 0.672978
vt 0.375000 0.500000
vt 0.625000 0.500000
vt 0.625000 0.672978
vt 0.625000 0.517958
vt 0.625000 0.750000
vt 0.552836 0.750000
vt 0.552836 0.736499
vt 0.375000 0.736499
vt 0.375000 0.517958
vt 0.250000 0.000000
vt 0.375000 0.000000
vt 0.375000 0.250000
vt 0.250000 0.250000
vt 0.375000 0.725954
vt 0.375000 0.500000
vt 0.625000 0.500000
vt 0.625000 0.725954
vt 0.750000 0.125000
vt 0.875000 0.125000
vt 0.875000 0.250000
vt 0.750000 0.250000
vt 0.750000 0.000000
vt 0.875000 0.000000
vt 0.375000 0.250000
vt 0.625000 0.250000
vt 0.250000 0.000000
vt 0.375000 0.000000
vt 0.375000 0.125000
vt 0.250000 0.125000
vt 0.375000 0.875000
vt 0.500000 0.875000
vt 0.500000 1.000000
vt 0.375000 1.000000
vt 0.500000 0.250000
vt 0.500000 0.375000
vt 0.375000 0.375000
vt 0.375000 0.077022
vt 0.125000 0.250000
vt 0.125000 0.077022
vt 0.295721 0.077022
vt 0.375000 0.250000
vt 0.250000 0.250000
vt 0.625000 0.077022
vt 0.625000 0.875000
vt 0.625000 1.000000
vt 0.625000 1.000000
vt 0.552836 1.000000
vt 0.552836 0.875000
vt 0.875000 0.077022
vt 0.875000 0.250000
vt 0.735431 0.077022
vt 0.500000 0.000000
vt 0.625000 0.000000
vt 0.625000 0.250000
vt 0.375000 0.250000
vt 0.625000 0.250000
vt 0.375000 0.750000
vt 0.625000 0.750000
vt 0.625000 0.875000
vt 0.608241 0.875000
vt 0.608241 0.825537
vt 0.584232 0.823129
vt 0.584232 0.875000
vt 0.375000 0.875000
vt 0.625000 0.000000
vt 0.875000 0.000000
vt 0.875000 0.232042
vt 0.750000 0.232042
vt 0.625000 0.232042
vt 0.375000 0.024046
vt 0.125000 0.250000
vt 0.125000 0.024046
vt 0.245760 0.024046
vt 0.875000 0.024046
vt 0.875000 0.250000
vt 0.625000 0.024046
vt 0.755821 0.024046
vt 0.375000 0.013501
vt 0.375000 0.232042
vt 0.250000 0.232042
vt 0.125000 0.232042
vt 0.125000 0.013501
vt 0.250000 0.013501
vt 0.625000 0.000000
vt 0.625000 0.125000
vt 0.625000 0.250000
vt 0.625000 0.276339
vt 0.587141 0.276339
vt 0.587141 0.375000
vt 0.375000 0.375000
vt 0.432365 0.375000
vt 0.432365 0.414502
vt 0.479430 0.406483
vt 0.479430 0.375000
vt 0.515296 0.375000
vt 0.515296 0.432368
vt 0.520463 0.431416
vt 0.520462 0.375000
vt 0.625000 0.375000
vt 0.625000 0.500000
vt 0.375000 0.500000
vt 0.651339 0.003372
vt 0.651339 0.250000
vt 0.552836 0.013501
vt 0.552836 0.000000
vt 0.584232 0.926871
vt 0.608241 0.924463
vt 0.625000 1.000000
vt 0.375000 1.000000
vt 0.520463 0.315654
vt 0.515296 0.315494
vt 0.479430 0.349787
vt 0.432365 0.354690
vt 0.500000 0.750000
vt 0.625000 0.750000
vt 0.587141 0.473661
vt 0.625000 0.473661
vt 0.625000 0.500000
vt 0.500000 0.500000
vt 0.375000 0.500000
vt 0.375000 0.750000
vt 0.125000 0.000000
vt 0.125000 0.250000
vt 0.125000 0.125000
vt 0.125000 0.250000
vt 0.125000 0.000000
vt 0.625000 0.625000
vt 0.375000 0.625000
vn 1.000000 0.000000 0.000000
vn 1.000000 0.000000 0.000000
vn 1.000000 0.000000 0.000000
vn 1.000000 0.000000 0.000000
vn 1.000000 0.000000 0.000000
vn 1.000000 0.000000 0.000000
vn 0.000000 0.000000 -1.000000
vn 0.000000 0.000000 -1.000000
vn 0.000000 0.000000 -1.000000
vn 0.000000 0.000000 -1.000000
vn 0.000000 0.000000 -1.000000
vn 0.000000 0.000000 -1.000000
vn 0.000000 0.000000 -1.000000
vn 0.000000 0.000000 -1.000000
vn 0.000000 0.000000 -1.000000
vn 0.000000 0.000000 -1.000000
vn -1.000000 0.000000 0.000000
vn -1.000000 0.000000 0.000000
vn -1.000000 0.000000 0.000000
vn -1.000000 0.000000 0.000000
vn 0.000000 0.000000 -1.000000
vn 0.000000 0.000000 -1.000000
vn 0.000000 0.000000 -1.000000
vn 0.000000 0.000000 -1.000000
vn 1.000000 -0.000000 0.000000
vn 1.000000 0.000000 0.000000
vn 1.000000 0.000001 0.000000
vn 1.000000 0.000001 0.000000
vn 1.000000 -0.000000 0.000000
vn 1.000000 -0.000001 0.000000
vn 0.000000 1.000000 0.000000
vn 0.000000 1.000000 0.000000
vn 0.000000 1.000000 0.000000
vn 0.000000 1.000000 0.000000
vn -1.000000 0.000000 0.000000
vn -1.000000 0.000000 0.000000
vn -1.000000 0.000000 0.000000
vn -1.000000 0.000000 0.000000
vn 0.000000 -1.000000 0.000000
vn 0.000000 -1.000000 0.000000
vn 0.000000 -1.000000 0.000000
vn 0.000000 -1.000000 0.000000
vn 0.000000 1.000000 0.000000
vn 0.000000 1.000000 0.000000
vn 0.000000 1.000000 0.000000
vn 0.000000 1.000000 0.000000
vn -1.000000 0.000000 0.000000
vn -1.000000 0.000000 0.000000
vn -1.000000 0.000000 0.000000
vn -1.000000 0.000000 0.000000
vn -1.000000 0.000000 0.000000
vn -1.000000 0.000000 0.000000
vn -1.000000 0.000000 0.000000
vn 0.000000 0.000000 1.000000
vn 0.000000 0.000000 1.000000
vn 0.000000 0.000000 1.000000
vn 0.000000 0.000000 1.000000
vn 0.000000 -1.000000 0.000000
vn 0.000000 -1.000000 0.000000
vn 0.000000 -1.000000 0.000000
vn 0.000000 -1.000000 0.000000
vn 0.000000 -1.000000 0.000000
vn 0.000000 -1.000000 0.000000
vn 0.000000 -1.000000 0.000000
vn 1.000000 0.000000 0.000000
vn 1.000000 0.000000 0.000000
vn 1.000000 0.000000 0.000000
vn 1.000000 0.000000 0.000000
vn 1.000000 0.000000 0.000000
vn 0.000000 0.000000 1.000000
vn 0.000000 0.000000 1.000000
vn 0.000000 0.000000 1.000000
vn 0.000000 0.000000 1.000000
vn 0.000000 0.000000 1.000000
vn 0.000000 0.000000 1.000000
vn 0.000000 1.000000 0.000000
vn 0.000000 1.000000 0.000000
vn 0.000000 1.000000 0.000000
vn 0.000000 1.000000 0.000000
vn 0.000000 -1.000000 -0.000000
vn 0.000000 -1.000000 -0.000000
vn 0.000000 -1.000000 0.000000
vn 0.000000 -1.000000 -0.000000
vn 0.000000 -1.000000 -0.000000
vn 0.000000 -1.000000 -0.000000
vn 0.000000 -1.000000 0.000000
vn 0.000000 -1.000000 -0.000000
vn 1.000000 0.000000 0.000000
vn 1.000000 0.000000 0.000000
vn 1.000000 0.000000 0.000000
vn 1.000000 0.000000 0.000000
vn 1.000000 0.000000 0.000000
vn -1.000000 0.000000 0.000000
vn -1.000000 0.000000 0.000000
vn -1.000000 0.000000 0.000000
vn -1.000000 0.000000 0.000000
vn -1.000000 0.000000 0.000000
vn 1.000000 0.000000 0.000000
vn 1.000000 0.000000 0.000000
vn 1.000000 0.000000 0.000000
vn 1.000000 0.000000 0.000000
vn 1.000000 0.000000 0.000000
vn 0.000000 0.000000 1.000000
vn 0.000000 0.000000 1.000000
vn 0.000000 0.000000 1.000000
vn 0.000000 0.000000 1.000000
vn -1.000000 0.000000 0.000000
vn -1.000000 0.000000 0.000000
vn -1.000000 0.000000 0.000000
vn -1.000000 0.000000 0.000000
vn -1.000000 0.000000 0.000000
vn -1.000000 0.000000 0.000000
vn -0.442655 0.000000 0.896692
vn -0.442655 0.000000 0.896692
vn -0.442655 0.000000 0.896692
vn -0.442655 0.000000 0.896692
vn -0.442654 0.000000 0.896692
vn -0.442654 0.000000 0.896692
vn 0.000000 1.000000 0.000000
vn 0.000000 1.000000 0.000000
vn 0.000000 1.000000 0.000000
vn 0.000000 1.000000 0.000000
vn 1.000000 0.000000 0.000000
vn 1.000000 0.000000 0.000000
vn 1.000000 0.000000 0.000000
vn 0.000000 1.000000 0.000000
vn 0.000000 1.000000 0.000000
vn 0.000000 1.000000 0.000000
vn 0.000000 1.000000 0.000000
vn 0.000000 1.000000 0.000000
vn 0.000000 1.000000 0.000000
vn 0.000000 1.000000 0.000000
vn 0.000000 1.000000 0.000000
vn 0.000000 1.000000 0.000000
vn 0.000000 1.000000 0.000000
vn 0.000000 1.000000 0.000000
vn 0.000000 1.000000 0.000000
vn 1.000000 0.000001 0.000000
vn 1.000000 0.000001 0.000000
vn 1.000000 0.000001 0.000000
vn 1.000000 0.000001 0.000000
vn 0.000000 0.000000 1.000000
vn 0.000000 0.000000 1.000000
vn 0.000000 0.000000 1.000000
vn 0.000000 0.000000 1.000000
vn 0.000000 0.000000 1.000000
vn 0.000000 0.000000 1.000000
vn 0.000000 -1.000000 0.000000
vn 0.000000 -1.000000 0.000000
vn 0.000000 -1.000000 0.000000
vn 0.000000 -1.000000 0.000000
vn 0.000000 1.000000 0.000000
vn 0.000000 1.000000 0.000000
vn 0.000000 1.000000 0.000000
vn 0.000000 1.000000 0.000000
vn 0.000000 1.000000 0.000000
vn 0.000000 1.000000 0.000000
vn 0.000000 -1.000000 0.000000
vn 0.000000 -1.000000 0.000000
vn 0.000000 1.000000 0.000000
vn 0.000000 1.000000 0.000000
vn 0.000000 1.000000 0.000000
vn 0.000000 1.000000 0.000000
vn 0.000000 1.000000 0.000000
vn 0.000000 -1.000000 0.000000
vn 0.000000 0.000000 -1.000000
vn 0.000000 0.000000 -1.000000
vn 0.000000 0.000000 -1.000000
vn 0.000000 0.000000 -1.000000
vn -1.000000 0.000000 0.000000
vn -1.000000 0.000000 0.000000
vn -1.000000 0.000000 0.000000
vn -1.000000 0.000000 0.000000
vn -1.000000 0.000000 0.000000
vn 0.000000 0.000000 -1.000000
vn 0.000000 0.000000 -1.000000
vn -0.442654 0.000000 -0.896692
vn -0.442654 0.000000 -0.896692
vn -0.442655 0.000000 -0.896692
vn -0.442655 0.000000 -0.896692
vn -0.442655 0.000000 -0.896692
vn -0.442655 0.000000 -0.896692
s 1
g group10_pasted__pCube2
usemtl initialShadingGroup
f 1/1/1 2/2/2 3/3/3 4/4/4 5/5/5 6/6/6
s off
f 7/7/7 8/8/8 9/9/9 10/10/10
f 11/11/11 12/12/12 5/13/13 4/14/14 13/15/15 14/16/16
s 2
f 15/17/17 16/18/18 17/19/19 18/20/20
s off
f 19/21/21 20/22/22 21/23/23 22/24/24
s 3
f 23/25/25 24/26/26 25/27/27 26/28/28
f 27/29/29 28/30/30 24/26/26 23/25/25
s off
f 29/31/31 30/32/32 9/9/33 8/8/34
s 4
f 31/33/35 32/34/36 33/35/37 34/36/38
s 5
f 15/37/39 35/38/40 36/39/41 16/40/42
s 6
f 17/19/43 37/41/44 38/42/45 18/43/46
s off
f 39/44/47 29/31/48 8/45/49 7/46/50 40/47/51
s 4
f 34/36/38 33/35/37 41/48/52 42/49/53
s off
f 43/50/54 30/32/55 29/31/56 39/44/57
s 5
f 35/38/40 1/51/58 44/52/59 36/39/41
s off
f 5/13/60 12/12/61 45/53/62 46/54/63 6/55/64
f 10/56/65 9/57/66 30/32/67 43/50/68 47/58/69
s 7
f 16/18/70 36/59/71 37/41/72 17/19/73
f 36/59/71 44/60/74 48/61/75 37/41/72
s off
f 49/62/76 50/63/77 21/23/78 20/22/79
s 8
f 51/64/80 28/65/81 27/66/82 52/67/83 11/68/84 14/69/85 53/70/86 31/71/87
s off
f 45/72/88 12/73/89 11/74/90 52/75/91 54/76/92
f 55/77/93 49/62/94 20/78/95 19/79/96 56/80/97
f 22/81/98 21/82/99 50/63/100 57/83/101 58/84/102
f 57/83/103 50/63/104 49/62/105 55/77/106
f 59/85/107 60/86/108 53/87/109 14/88/110 13/89/111 61/90/112
s 9
f 32/34/113 62/91/114 63/92/115 33/35/116
f 33/35/116 63/92/115 64/93/117 41/48/118
s 6
f 37/41/44 48/61/119 65/94/120 59/95/121 61/96/122 38/42/45
s 3
f 63/92/123 23/25/25 26/28/28 64/93/124
f 62/91/125 27/29/29 23/25/25 63/92/123
s 10
f 42/97/126 40/98/127 7/99/128 10/100/129 47/101/130 56/102/131 19/103/132 22/104/133 58/105/134 26/106/135 25/107/136 66/108/137
s 1
f 44/60/138 1/1/1 6/6/6 46/109/139 65/110/140 48/61/141
s off
f 60/86/142 59/85/143 65/111/144 46/112/145 45/72/146 54/76/147
s 8
f 31/71/87 53/70/86 60/113/148 54/114/149 52/67/83 27/66/82 62/115/150 32/116/151
s 10
f 41/48/152 64/93/153 26/106/135 58/105/134 57/117/154 55/118/155 56/102/131 47/101/130 43/119/156 39/120/157 40/98/127 42/97/126
s 5
f 67/121/158 2/122/159 1/51/58 35/38/40
s 6
f 38/42/45 61/96/122 13/123/160 4/124/161 3/125/162 68/126/163
f 18/43/46 38/42/45 68/126/163 69/127/164
s 5
f 70/128/165 67/121/158 35/38/40 15/37/39
s 11
f 68/126/166 3/125/167 2/122/168 67/121/169
s 2
f 70/129/170 15/17/17 18/20/20 69/130/171
s 4
f 71/131/172 34/36/38 42/49/53 66/132/173
f 51/133/174 31/33/35 34/36/38 71/131/172
s 11
f 69/127/175 68/126/166 67/121/169 70/128/176
s 12
f 66/108/177 25/107/178 24/134/179 71/135/180
f 71/135/180 24/134/179 28/65/181 51/64/182
