# Blender v2.78 (sub 0) OBJ File: 'Traffic Cone.blend'
# www.blender.org
mtllib Traffic Cone.mtl
o Plane
v -1.000000 -0.066495 0.976570
v -0.934398 -0.066495 1.000000
v 0.934398 -0.066495 1.000000
v 1.000000 -0.066495 0.976570
v -1.000000 -0.066495 -0.976570
v -0.934398 -0.066495 -1.000000
v 1.000000 -0.066495 -0.976570
v 0.934398 -0.066495 -1.000000
v -1.000000 0.134906 0.976570
v -0.934398 0.134906 1.000000
v 0.934398 0.134906 1.000000
v 1.000000 0.134906 0.976570
v -1.000000 0.134906 -0.976570
v -0.934398 0.134906 -1.000000
v 1.000000 0.134906 -0.976570
v 0.934398 0.134906 -1.000000
v -0.000000 0.076016 -0.728076
v -0.000000 3.275805 -0.171291
v 0.364038 0.076016 -0.630533
v 0.085646 3.275805 -0.148343
v 0.630533 0.076016 -0.364038
v 0.148343 3.275805 -0.085646
v 0.728076 0.076016 0.000000
v 0.171291 3.275805 0.000000
v 0.630533 0.076016 0.364038
v 0.148343 3.275805 0.085646
v 0.364038 0.076016 0.630533
v 0.085646 3.275805 0.148343
v 0.000000 0.076016 0.728077
v 0.000000 3.275805 0.171291
v -0.364038 0.076016 0.630533
v -0.085646 3.275805 0.148343
v -0.630533 0.076016 0.364038
v -0.148343 3.275805 0.085646
v -0.728076 0.076016 0.000000
v -0.171291 3.275805 0.000000
v -0.630533 0.076016 -0.364038
v -0.148343 3.275805 -0.085645
v -0.364039 0.076016 -0.630532
v -0.085646 3.275805 -0.148342
v -1.047481 -0.066495 0.878665
v -1.047481 -0.066495 -0.878665
v 1.047481 -0.066495 -0.878665
v 1.047481 -0.066495 0.878665
v -1.047481 0.134906 -0.878665
v -1.047481 0.134906 0.878665
v 1.047481 0.134906 0.878665
v 1.047481 0.134906 -0.878665
v 0.358918 0.134863 -0.621665
v 0.621665 0.134863 -0.358918
v 0.717837 0.134863 0.000000
v 0.621665 0.134863 0.358918
v 0.358918 0.134863 0.621665
v 0.000000 0.134863 0.717837
v -0.358918 0.134863 0.621665
v -0.621665 0.134863 0.358919
v -0.717837 0.134863 0.000000
v -0.621665 0.134863 -0.358918
v -0.358919 0.134863 -0.621665
v -0.000000 0.134863 -0.717837
vt 0.5748 0.4013
vt 0.5748 0.7485
vt 0.5379 0.7485
vt 0.5379 0.4013
vt 0.5748 0.4073
vt 0.5760 0.3891
vt 0.6129 0.3891
vt 0.6117 0.4073
vt 0.5373 0.4013
vt 0.5373 0.7485
vt 0.5004 0.7485
vt 0.5004 0.4013
vt 0.6129 0.4073
vt 0.6141 0.3891
vt 0.6510 0.3891
vt 0.6498 0.4073
vt 0.3743 0.0088
vt 0.3924 0.0000
vt 0.3699 0.0210
vt 0.0043 0.0088
vt 0.0224 0.0000
vt 0.0000 0.0210
vt 0.3924 0.3891
vt 0.3743 0.3803
vt 0.3699 0.3681
vt 0.0224 0.3891
vt 0.0043 0.3803
vt 0.0000 0.3681
vt 0.5367 0.7607
vt 0.4998 0.7607
vt 0.4998 0.3891
vt 0.5367 0.3891
vt 0.5742 0.7607
vt 0.5373 0.7607
vt 0.5373 0.3891
vt 0.5742 0.3891
vt 0.2320 0.9769
vt 0.3033 0.3891
vt 0.3191 0.3903
vt 0.2983 0.9817
vt 0.6592 0.4424
vt 0.6510 0.4281
vt 0.6510 0.4116
vt 0.6592 0.3974
vt 0.6734 0.3891
vt 0.6898 0.3891
vt 0.7040 0.3974
vt 0.7122 0.4116
vt 0.7122 0.4281
vt 0.7040 0.4424
vt 0.6898 0.4506
vt 0.6734 0.4506
vt 1.0000 0.7765
vt 0.9651 0.8371
vt 0.9048 0.8721
vt 0.8351 0.8721
vt 0.7747 0.8371
vt 0.7398 0.7765
vt 0.7398 0.7065
vt 0.7747 0.6459
vt 0.8351 0.6109
vt 0.9048 0.6109
vt 0.9651 0.6459
vt 1.0000 0.7065
vt 0.3699 0.3681
vt 0.3656 0.3803
vt 0.3475 0.3891
vt 0.7398 0.3681
vt 0.7355 0.3803
vt 0.7174 0.3891
vt 0.3656 0.0088
vt 0.3699 0.0210
vt 0.3475 0.0000
vt 0.7355 0.0088
vt 0.7398 0.0210
vt 0.7174 0.0000
vt 0.6141 0.7520
vt 0.6129 0.7338
vt 0.6498 0.7338
vt 0.6510 0.7520
vt 0.5760 0.7520
vt 0.5748 0.7338
vt 0.6117 0.7338
vt 0.6129 0.7520
vt 0.0503 0.4209
vt 0.1876 0.9967
vt 0.1764 1.0000
vt 0.0032 0.4346
vt 0.1156 0.4086
vt 0.2032 0.9938
vt 0.1816 0.4011
vt 0.2190 0.9920
vt 0.2307 0.4002
vt 0.2307 0.9918
vt 0.4328 0.9817
vt 0.4537 0.3903
vt 0.4696 0.3903
vt 0.4993 0.9817
vt 0.3666 0.9769
vt 0.4379 0.3891
vt 0.9215 0.5989
vt 0.9588 0.0080
vt 0.9705 0.0082
vt 0.9705 0.5998
vt 0.8555 0.5914
vt 0.9431 0.0062
vt 0.7902 0.5791
vt 0.9275 0.0033
vt 0.7431 0.5654
vt 0.9162 0.0000
vt 0.3350 0.3903
vt 0.3647 0.9817
vt 0.2979 0.9927
vt 0.3652 0.9927
vt 0.7398 0.5760
vt 0.7876 0.5899
vt 0.8538 0.6024
vt 0.9208 0.6100
vt 0.9705 0.6109
vt 0.3652 0.9879
vt 0.4324 0.9927
vt 0.4998 0.9927
vt 0.2307 0.3891
vt 0.1809 0.3900
vt 0.1140 0.3976
vt 0.0478 0.4101
vt 0.0000 0.4240
vt 0.2307 0.9879
vn -0.1266 -0.6706 0.7309
vn 0.1266 -0.6706 0.7309
vn 0.1266 0.6706 0.7309
vn -0.1266 0.6706 0.7309
vn -0.7322 -0.6600 0.1682
vn -0.5180 -0.6310 0.5775
vn -0.5180 0.6310 0.5775
vn -0.7322 0.6600 0.1682
vn 0.1266 -0.6706 -0.7309
vn -0.1266 -0.6706 -0.7309
vn -0.1266 0.6706 -0.7309
vn 0.1266 0.6706 -0.7309
vn 0.7322 -0.6600 -0.1682
vn 0.5180 -0.6310 -0.5775
vn 0.5180 0.6310 -0.5775
vn 0.7322 0.6600 -0.1682
vn -0.5180 0.6310 -0.5775
vn -0.7322 0.6600 -0.1682
vn -0.7322 -0.6600 -0.1682
vn -0.5180 -0.6310 -0.5775
vn 0.5180 -0.6310 0.5775
vn 0.5180 0.6310 0.5775
vn -0.4926 0.1714 -0.8532
vn -0.3492 0.7157 -0.6048
vn 0.0000 0.7157 -0.6984
vn 0.0000 0.1714 -0.9852
vn 0.3492 0.7157 -0.6048
vn -0.6048 0.7157 -0.3492
vn -0.6984 0.7157 0.0000
vn -0.6048 0.7157 0.3492
vn -0.3492 0.7157 0.6048
vn 0.0000 0.7157 0.6984
vn 0.3492 0.7157 0.6048
vn 0.6048 0.7157 0.3492
vn 0.6984 0.7157 0.0000
vn 0.6048 0.7157 -0.3492
vn 0.0000 -0.5876 -0.8091
vn 0.4046 -0.5876 -0.7007
vn 0.7007 -0.5876 -0.4046
vn 0.8091 -0.5876 0.0000
vn 0.7007 -0.5876 0.4046
vn 0.4046 -0.5876 0.7007
vn 0.0000 -0.5876 0.8091
vn -0.4046 -0.5876 0.7007
vn -0.7007 -0.5876 0.4046
vn -0.8091 -0.5876 0.0000
vn -0.7007 -0.5876 -0.4046
vn -0.4046 -0.5876 -0.7007
vn 0.7322 0.6600 0.1682
vn 0.7322 -0.6600 0.1682
vn -0.8532 0.1714 -0.4926
vn -0.9852 0.1714 0.0000
vn -0.8532 0.1714 0.4926
vn -0.4926 0.1714 0.8532
vn 0.0000 0.1714 0.9852
vn 0.4926 0.1714 0.8532
vn 0.8532 0.1714 0.4926
vn 0.9852 0.1714 0.0000
vn 0.8532 0.1714 -0.4926
vn 0.4926 0.1714 -0.8532
usemtl Material
s 1
f 2/1/1 3/2/2 11/3/3 10/4/4
f 41/5/5 1/6/6 9/7/7 46/8/8
f 8/9/9 6/10/10 14/11/11 16/12/12
f 43/13/13 7/14/14 15/15/15 48/16/16
f 7/17/14 43/18/13 8/19/9
f 13/20/17 45/21/18 14/22/11
f 42/23/19 5/24/20 6/25/10
f 48/26/16 15/27/15 16/28/12
f 5/29/20 13/30/17 14/11/11 6/10/10
f 15/31/15 7/32/14 8/9/9 16/12/12
f 4/33/21 12/34/22 11/3/3 3/2/2
f 9/35/7 1/36/6 2/1/1 10/4/4
f 59/37/23 40/38/24 18/39/25 60/40/26
f 20/41/27 18/42/25 40/43/24 38/44/28 36/45/29 34/46/30 32/47/31 30/48/32 28/49/33 26/50/34 24/51/35 22/52/36
f 17/53/37 19/54/38 21/55/39 23/56/40 25/57/41 27/58/42 29/59/43 31/60/44 33/61/45 35/62/46 37/63/47 39/64/48
f 11/65/3 12/66/22 47/67/49
f 2/68/1 1/69/6 41/70/5
f 9/71/7 10/72/4 46/73/8
f 14/22/11 45/21/18 46/73/8 10/72/4 11/65/3 47/67/49 48/26/16 16/28/12
f 4/74/21 3/75/2 44/76/50
f 4/77/21 44/78/50 47/79/49 12/80/22
f 44/78/50 43/13/13 48/16/16 47/79/49
f 5/81/20 42/82/19 45/83/18 13/84/17
f 42/82/19 41/5/5 46/8/8 45/83/18
f 2/68/1 41/70/5 42/23/19 6/25/10 8/19/9 43/18/13 44/76/50 3/75/2
f 58/85/51 38/86/28 40/87/24 59/88/23
f 57/89/52 36/90/29 38/86/28 58/85/51
f 56/91/53 34/92/30 36/90/29 57/89/52
f 55/93/54 32/94/31 34/92/30 56/91/53
f 54/95/55 30/96/32 32/97/31 55/98/54
f 53/99/56 28/100/33 30/96/32 54/95/55
f 52/101/57 26/102/34 28/103/33 53/104/56
f 51/105/58 24/106/35 26/102/34 52/101/57
f 50/107/59 22/108/36 24/106/35 51/105/58
f 49/109/60 20/110/27 22/108/36 50/107/59
f 60/40/26 18/39/25 20/111/27 49/112/60
f 17/113/37 60/40/26 49/112/60 19/114/38
f 19/115/38 49/109/60 50/107/59 21/116/39
f 21/116/39 50/107/59 51/105/58 23/117/40
f 23/117/40 51/105/58 52/101/57 25/118/41
f 25/118/41 52/101/57 53/104/56 27/119/42
f 27/120/42 53/99/56 54/95/55 29/121/43
f 29/121/43 54/95/55 55/98/54 31/122/44
f 31/123/44 55/93/54 56/91/53 33/124/45
f 33/124/45 56/91/53 57/89/52 35/125/46
f 35/125/46 57/89/52 58/85/51 37/126/47
f 37/126/47 58/85/51 59/88/23 39/127/48
f 39/128/48 59/37/23 60/40/26 17/113/37
